<?xml version="1.0" encoding="utf-8"?>
<!-- Generator: Adobe Illustrator 22.1.0, SVG Export Plug-In . SVG Version: 6.00 Build 0)  -->
<svg version="1.1" id="Layer_1" xmlns="http://www.w3.org/2000/svg" xmlns:xlink="http://www.w3.org/1999/xlink" x="0px" y="0px"
	 viewBox="0 0 1264 625" style="enable-background:new 0 0 1264 625;" xml:space="preserve">
<g id="_x32_k6biQ.tif">
	<path d="M86.9,30.4c14-2.8,27.9-7.4,41.3-12.7C168.8,1.8,210.8-2.5,253.6,1.9c15.4,1.5,30.5,6.6,45.8,9.8c11,2.2,21.9,3.9,33.4,3
		c9-0.7,18.5,2.1,27.6,4.1c32.9,7.1,65.6,14.5,98.4,21.8c4,0.9,8.1,1.9,12.1,1.9c3.8,0,8-0.4,11.3-2c14.6-6.9,30.1-9.4,46-9.8
		c24.7-0.7,49,3.1,73.2,7.3c33.1,5.8,66.2,11.3,99.3,17.3c37.9,6.8,75.8,14,113.7,21.3c18,3.5,36.1,4.2,54.2,2.6
		c33.2-2.9,66.3-6.5,99.5-9.7c23.8-2.2,47.5-2.3,71.4-0.1c17.6,1.6,35.6,0.9,53.4,0.1c31.1-1.4,62.2-3.9,93.3-5.1
		c10.7-0.4,21.6,1.2,32,3c20.5,3.6,37,13.3,45.8,33.3c0,173.4,0,346.7,0,520.1c0,1.2,0.1,2.3,0,3.5c0,0.1-0.5,0.3-0.8,0.4
		c-5.5-0.5-11-1.1-16.5-1.4c-30.5-1.9-61-3.7-91.5-5.6c-34.7-2.2-69.5-4.5-104.2-6.8c-31.8-2.1-63.6-4.2-95.4-6.5
		c-33.6-2.5-67.3-5-101-7.6c-30.6-2.4-61.2-4.7-91.8-7.4c-33.7-2.9-67.3-5.9-100.9-9.3c-29-2.9-58.2-5.7-87.1-9.8
		c-28.3-4-56.4-9.3-84.6-14.4c-28.1-5.1-56.3-8.3-84.8-10.1c-42.7-2.7-85.4-3.3-128.1-1.7c-39.3,1.5-78.6,3.3-117.8,6
		c-37.3,2.6-74.5,6.4-111.8,9.9c-14,1.3-27.9,3.2-41.8,4.8C4,565,2.1,565,0.2,565.1c0-180.8,0-361.7,0-542.5
		C28.7,30.3,57.6,36.1,86.9,30.4z"/>
</g>
</svg>
