<?xml version="1.0" encoding="utf-8"?>
<!-- Generator: Adobe Illustrator 22.1.0, SVG Export Plug-In . SVG Version: 6.00 Build 0)  -->
<svg version="1.1" id="Layer_1" xmlns="http://www.w3.org/2000/svg" xmlns:xlink="http://www.w3.org/1999/xlink" x="0px" y="0px"
	 viewBox="0 0 1264 625" style="enable-background:new 0 0 1264 625;" xml:space="preserve">
<g id="_x32_k6biQ.tif">
	<path d="M1264,22.6c0,180.8,0,361.7,0,542.5c-1.9-0.1-3.8-0.1-5.7-0.3c-13.9-1.6-27.8-3.5-41.8-4.8c-37.3-3.5-74.5-7.3-111.8-9.9
		c-39.2-2.7-78.5-4.5-117.8-6c-42.7-1.6-85.4-1-128.1,1.7c-28.5,1.8-56.7,5-84.8,10.1c-28.2,5.1-56.3,10.4-84.6,14.4
		c-28.9,4.1-58.1,6.9-87.1,9.8c-33.6,3.4-67.2,6.4-100.9,9.3c-30.6,2.7-61.2,5-91.8,7.4c-33.7,2.6-67.4,5.1-101,7.6
		c-31.8,2.3-63.6,4.4-95.4,6.5c-34.7,2.3-69.5,4.6-104.2,6.8c-30.5,1.9-61,3.7-91.5,5.6c-5.5,0.3-11,0.9-16.5,1.4
		c-0.3-0.1-0.8-0.3-0.8-0.4c-0.1-1.2,0-2.3,0-3.5c0-173.4,0-346.7,0-520.1c8.8-20,25.3-29.7,45.8-33.3C56.4,65.6,67.3,64,78,64.4
		c31.1,1.2,62.2,3.7,93.3,5.1c17.8,0.8,35.8,1.5,53.4-0.1c23.9-2.2,47.6-2.1,71.4,0.1c33.2,3.2,66.3,6.8,99.5,9.7
		c18.1,1.6,36.2,0.9,54.2-2.6c37.9-7.3,75.8-14.5,113.7-21.3c33.1-6,66.2-11.5,99.3-17.3c24.2-4.2,48.5-8,73.2-7.3
		c15.9,0.4,31.4,2.9,46,9.8c3.3,1.6,7.5,2,11.3,2c4,0,8.1-1,12.1-1.9c32.8-7.3,65.5-14.7,98.4-21.8c9.1-2,18.6-4.8,27.6-4.1
		c11.5,0.9,22.4-0.8,33.4-3c15.3-3.2,30.4-8.3,45.8-9.8c42.8-4.4,84.8-0.1,125.4,15.8c13.4,5.3,27.3,9.9,41.3,12.7
		C1206.6,36.1,1235.5,30.3,1264,22.6z"/>
</g>
</svg>
