<?xml version="1.0" encoding="utf-8"?>
<!-- Generator: Adobe Illustrator 25.3.1, SVG Export Plug-In . SVG Version: 6.00 Build 0)  -->
<svg version="1.1" id="Layer_1" xmlns="http://www.w3.org/2000/svg" xmlns:xlink="http://www.w3.org/1999/xlink" x="0px" y="0px"
	 width="1920px" height="1080px" viewBox="0 0 1920 1080" style="enable-background:new 0 0 1920 1080;" xml:space="preserve">
<path d="M1789.8,694.2c0-6.2-3.1-9.7-9.2-10.8c-2.3-0.4-4.7-0.5-7-1c-3.7-0.7-7.3-1.3-11-1.9c-9.5-1.4-18.9-2.7-28.4-4
	c-3.9-0.5-7.9-0.9-11.8,0.1c-3.4,0.9-6.7,1.9-10,2.9c-2.6,0.8-4.5,0.3-6.1-1.8c-3.2-4.4-3.2-8.4-0.1-12.9c0.7-1,1.2-1,2.1-0.4
	c1.6,1.1,3.3,1.2,5.2,1c1.8-0.2,3.6-0.6,4.9-2.1c2.1-2.4,4.7-2.7,7.6-2.1c0.7,0.1,1.3,0.1,2,0c6.1-1.2,8.8-5,7.9-11.4
	c-0.1-0.9,0-1.5,0.3-1.9c-0.5-0.7-1.2-1.3-1.8-1.8c-0.3-0.1-0.6-0.1-0.9-0.3c-5.7-2.1-11.8-2-15.2,4c-0.7,1.2-1.3,1.1-2.4,0.7
	c-2.4-0.9-4.9-1.3-7.3,0.1c-1.8,1-3.1,2.2-3.8,4.1c-0.3,0.7-0.6,1.3-1.6,0.9c-6.4-2-9.5-0.5-12,3.7c-0.5,0.8-0.9,1-1.9,0.6
	c-4.8-2.1-10,0.6-11,5.7c-0.1,0.6-0.3,1-0.6,1.3c0.2,0.7,0.4,1.3,0.6,2c0.3,0.2,0.5,0.5,0.8,0.8c1,1.3,2.1,2.7,3.9,3
	c3.9,0.6,7.6,0.2,10.3-3.1c0.4-0.5,0.8-1.5,1.7-1.1c0.9,0.5,0.4,1.5,0.3,2.2c0,0.4-0.2,0.9-0.3,1.3c-0.7,3.5-0.4,7,1.3,10.1
	c0.8,1.5,0.5,2.2-1,2.8c-6.4,2.4-12.8,5-19.3,7.3c-6.4,2.2-12.8,4.3-19,6.9c-6.5,2.7-9.1,7.7-9.2,14.4c-0.1,12.2-0.1,24.4-0.2,36.5
	c-0.1,7.8-0.4,15.6,0,23.5c0.1,1.7,0.6,2.8,2.5,3.1c1.1,0.1,2.2,0.6,3.3,0.7c13.1,1.1,26.1,3.4,39.2,4.8c3.9,0.4,7.9,1.3,11.8,0.3
	c1.9-0.5,3.8-1.1,5.8-1.5c8-1.7,16.1-3.2,24.1-4.9c8.5-1.9,16.9-4,25.4-5.9c4.1-0.9,8.1-1.9,12.2-2.5c4.9-0.7,9.6-1.8,14.4-2.7
	c1.8-0.3,2.5-1.4,2.8-3.2c0.7-5.7,0.6-11.5,0.9-17.3c0.3-6.1,0.1-12.2,0.1-18.3C1789.8,715.6,1789.9,704.9,1789.8,694.2z
	 M1733.1,647.6c1-0.3,1.2,0.7,1.4,1.4c0.2,0.7,0.2,1.5,0.2,1.9c0,3.7-1.4,6.3-4.2,8.1c-0.4,0.3-1,0.9-1.4,0.2
	c-0.4-0.5,0.3-0.8,0.7-1.1c2.9-2.2,3.8-5.2,3-8.7C1732.7,648.7,1732.1,647.9,1733.1,647.6z M1728.7,646.2c2.3,0.8,3.4,3.1,3,6.3
	c-0.6,4.3-5.3,7.3-9.2,5.9c-2.4-0.8-3.6-2.5-3.6-5.2C1718.9,648.3,1724,644.6,1728.7,646.2z M1718.9,659.3c0.1-0.2,0.5-0.3,0.6-0.1
	c0.4,0.3,0.3,0.8,0.1,1.2c-0.9,1.3-1.9,2.3-3.6,2.6C1716.8,661.6,1718.2,660.7,1718.9,659.3z M1712.1,650.8c3.5,0,5.8,2.5,5.8,6.3
	c0,3.1-4,6.3-7.7,6.2c-2.6,0-5-2.5-5-5.1C1705.2,654.4,1708.6,650.7,1712.1,650.8z M1724.1,686.1c0.1-0.5,0-1.1,0-1.7
	c0-1.9-0.2-3.7,1.1-5.3c1-1.2,2-2,3.6-1.8c5.4,0.5,10.9,1,16.3,1.8c6.3,1,12.5,1.8,18.8,2.8c6,1,12,1.6,18,2.8c4,0.8,5.7,3.4,6.4,7
	c0.3,1.4,0.4,2.8,0.5,4.3c0.1,1.1-0.5,1.8-1.7,1.6c-3.9-0.6-7.9-1.1-11.8-1.7c-5.8-0.9-11.6-1.5-17.3-2.7
	c-8.1-1.8-16.4-1.9-24.5-3.6c-2.4-0.5-4.9-0.7-7.4-0.9C1724.4,688.5,1723.7,687.9,1724.1,686.1z M1684.7,671.5c-3,0.1-5.4-1.6-5.5-4
	c-0.2-3.8,2.4-6.8,6.2-6.9c2.9-0.1,5.9,2.4,5.9,5.1C1691.3,668.9,1688.6,671.4,1684.7,671.5z M1692.2,661.9c0-2.9,3.1-5.9,6.1-5.9
	c2.7,0,5.1,2.7,5.1,5.8c0,2.6-3,5.7-5.6,5.8C1694.9,667.7,1692.2,664.9,1692.2,661.9z M1696.6,670.5c0.3-0.8,0.8-1.4,1.8-1.3
	c1.1,0,2.1-0.3,3.1-0.6c0.9-0.3,1.4-0.4,1.2,0.9c-0.7,4.1,1,7.4,3.7,10.3c0.5,0.5,0.8,1,0,1.4c-2.2,1.1-4.5,2-7,2.3
	c-0.6,0.1-1-0.1-1.4-0.7C1695.5,678.9,1695.2,674.8,1696.6,670.5z M1648.8,712.4c0.2-3.5,1-6.9,3.7-9.3c2.6-2.4,5.9-3.6,9.2-4.8
	c11.7-4.1,23.3-8.3,34.9-12.7c6.3-2.3,12.7-4.1,19.1-6.1c2.1-0.7,4.3-1.3,6.4-1.8c1.2-0.2,2,0,1.5,1.5c-0.8,2.4-0.7,5-0.9,7.6
	c-0.1,1.5-0.8,2.1-2.1,2.6c-4.5,1.7-9.3,2.5-13.9,4.2c-5.6,2.1-11.3,4.2-16.9,6.1c-5.8,2-11.7,3.9-17.6,5.9
	c-5.9,2.1-11.7,4.3-17.6,6.4c-1.4,0.5-2.8,1-4.2,1.6C1649,714.4,1648.7,713.7,1648.8,712.4z M1701.1,744.6c0,1.6-0.4,2.4-2,2.8
	c-4.7,1.2-9.2,2.9-13.8,4.4c-2.3,0.7-2.4,0.7-2.3-1.6c1-15.2,1.1-30.4,1.2-45.6c0-1.1,0.3-1.9,1.4-2.2c4.7-1.6,9.4-3.2,14-4.9
	c1.7-0.6,2.1,0,2.1,1.5c0,7.7,0.1,15.4-0.4,23.1C1701.1,729.5,1701.1,737,1701.1,744.6z M1698.7,761.8c-4.8,1.1-9.5,2.2-14.3,3.5
	c-1.2,0.3-1.6-0.3-1.7-1.3c-0.2-1.7-0.2-3.3,0-4.7c0.3-5.5,0.3-5.6,5.2-7.2c3.7-1.2,7.3-2.7,11.2-3.5c1.4-0.3,1.8,0.1,1.9,1.3
	c0.3,3.4-0.1,6.7-0.4,10C1700.4,761.1,1699.6,761.5,1698.7,761.8z M1705,765c6.8,1.5,13.7,2.4,20.5,3.5c1.4,0.2,2.9,0.3,4.3,1.2
	c-2.4,0.5-4.8,0.1-7.1-0.2c-11.5-1.4-22.9-2.7-34.5-2.8c-0.5,0-1.2,0.2-1.2-0.5c0-0.6,0.6-0.6,1.1-0.7c1-0.2,2-0.4,2.9-0.8
	C1695.7,762.7,1700.3,764,1705,765z M1681.6,760.3L1681.6,760.3c0,0.6,0,1.2,0,1.9c0,4.8,0.2,3.6-3.7,4.8c-3.5,1.1-7.1,1.8-10.6,2.8
	c-1.5,0.4-1.9,0-1.9-1.4c0.1-2.4,0.1-4.7,0-7.1c0-1.3,0.5-2.1,1.8-2.5c4.2-1.3,8.4-2.5,12.6-3.9c1.5-0.5,1.8,0,1.7,1.3
	C1681.6,757.5,1681.6,758.9,1681.6,760.3z M1669.1,771.5c8.7,2,17.6,3.2,26.4,4.5c0.4,0.1,0.8,0.3,1.2,0.4c-2.9,0.5-5.8,0.2-8.7-0.1
	c-7.7-0.9-15.3-1.8-22.9-2.7c-0.5-0.1-1-0.1-1.5-0.2c-0.3-0.1-0.6-0.2-0.7-0.5c-0.1-0.5,0.3-0.6,0.7-0.7
	C1665.5,771.5,1667.2,771,1669.1,771.5z M1680.5,753.5c-4.3,1.3-8.5,2.6-12.8,4c-1.6,0.5-1.9-0.2-2-1.6c-0.4-12.4,0-24.8,0.3-37.2
	c0.1-2.8,0.4-5.6,0.5-8.4c0.1-1.1,0.6-1.7,1.6-2c4.5-1.5,9-3,13.5-4.6c1.3-0.5,1.6,0.1,1.6,1.3c0,5,0,9.9,0,14.9
	c0.1,10.6-0.8,21.1-1.4,31.6C1681.7,752.5,1681.5,753.2,1680.5,753.5z M1702,756.4c0.3-2.3,0.3-4.6,0.2-6.9c0-1.3,0.4-1.8,1.7-2.1
	c4.8-1.2,9.4-3.1,14.3-4c4.5-0.9,4.5-1,4.5,3.5c0,0.7,0,1.5,0,2.2h0c0,1.1-0.1,2.3,0,3.3c0.3,1.9-0.6,2.8-2.4,3.2
	c-4.8,1.3-9.4,3.4-14.4,4.4C1701.8,760.9,1701.5,760.7,1702,756.4z M1722.5,733.1c-0.1,2.1,0.1,4.2,0.2,6.3c0.1,1.3-0.4,2-1.8,2.2
	c-5.3,0.9-10.3,2.5-15.4,4.1c-0.5,0.2-1,0.2-1.4,0.4c-1.3,0.4-1.8-0.1-1.8-1.5c0-8.4-0.1-16.8,0.5-25.1c0.5-6.8,0.3-13.7,0.4-20.5
	c0.1-2.9,0.2-2.9,3-3.8c4.9-1.5,9.8-3.1,14.7-4.8c1.6-0.6,2,0,2,1.5c-0.1,7.1,0,14.3,0.4,21.3
	C1722.9,719.9,1722.6,726.5,1722.5,733.1z M1648.3,745c-0.1-1.9,0-3.9,0-5.8c-0.2-7.4,0.3-14.8,0.4-22.2c0-1.2,0.6-1.8,1.6-2.2
	c4.2-1.6,8.5-3.1,12.7-4.7c1.8-0.6,2.1-0.4,2,1.5c0,6.8-0.7,13.6-0.6,20.5c0.1,8.1,0,16.3,0.1,24.4c0,1.2-0.3,1.8-1.5,2.3
	c-4.4,1.7-9,2.8-13.4,4.2c-1.3,0.4-1.6-0.5-1.6-1.6C1648.1,756.1,1648.5,750.6,1648.3,745z M1648.6,772.5c-0.2-1.8-0.3-3.7-0.4-5.6
	c-0.1-1.3,0.4-2.1,1.8-2.5c4.3-1.3,8.6-2.7,12.9-4.1c1.2-0.4,1.6,0,1.6,1.2c0,1.2,0,2.4,0,3.5c0,0,0,0-0.1,0c0,1.3,0,2.6,0,3.9
	c0.1,1.6-0.9,2.3-2.2,2.5c-3.7,0.7-7.3,1.7-11,2.8C1649.3,774.8,1648.8,774.4,1648.6,772.5z M1688.5,780.6c-7.1-0.9-14.1-2-21.2-3
	c-4.5-0.6-9-1-13.5-1.5c-0.6-0.1-1.5,0.1-1.5-0.7c0-0.8,0.9-0.6,1.5-0.8c2-0.7,3.9-0.5,6,0c4.6,1.3,9.3,2,14,2.7
	c5.3,0.8,10.6,2,15.9,2.8c1.5,0.2,3.2-0.5,5.2,0.7C1692.4,781.5,1690.4,780.9,1688.5,780.6z M1707.7,780.4c-2.5,0.6-4.9,0.6-7.4,0
	c-6.1-1.5-12.4-1.6-18.6-2.6c-3.8-0.6-7.6-1.5-11.4-2.2c9.6,0.7,19,2,28.6,2.6c2.9,0.2,5.8,0.7,8.7,0.7c0.6,0,1.5-0.1,1.5,0.7
	C1709.1,780.4,1708.3,780.3,1707.7,780.4z M1717.2,778.4c-1.2,0.3-2.4,0-3.5-0.3c-11.8-2.2-23.6-4.2-35.4-5.9
	c-2.5-0.4-5-1.1-7.5-1.6c0-0.2,0-0.3,0-0.5c2.1-0.9,4.3-1.3,6.7-0.8c13.2,2.7,26.4,5.3,39.7,7.4c0.9,0.1,2.5-0.1,2.5,1
	C1719.6,778.6,1718.1,778.1,1717.2,778.4z M1729.6,775.8c-3.3,0.7-6.6,1-10.1,0.3c-11.3-2.2-22.7-4.1-34-6.2
	c-2.2-0.4-4.5-0.8-6.7-1.9c1.9-0.6,3.8-1.4,5.9-0.8c7.8,1.9,15.7,3.1,23.7,4.2c7.1,1,14.1,2,21.2,3.1c0.4,0.1,1,0.1,1,0.6
	C1730.6,775.6,1730,775.7,1729.6,775.8z M1741.3,773.3c-4.7,1.8-9.2,0.5-13.8-0.4c-7.7-1.5-15.6-2.2-23.4-3.3
	c-1.3-0.2-2.5-0.4-3.8-0.6c0-0.2,0-0.5,0-0.7c1.7,0.1,3.4,0.1,5.1,0.3c8.6,1,17.2,2.1,25.9,2.8c3.3,0.2,6.6,0.3,9.8,0.7
	c0.6,0.1,1.5-0.3,1.6,0.5C1742.8,773.2,1741.8,773.1,1741.3,773.3z M1753.9,770.2c-2,0.3-3.9,1.4-6,1.3c-3.2-0.2-6.3-0.9-9.3-1.7
	c-8.5-2-17.2-3-25.9-4.4c-3.9-0.6-7.7-1.5-11.5-2.2c-0.4-0.1-0.8-0.1-0.8-0.6c0-0.4,0.5-0.5,0.9-0.6c3.3-0.8,6.4-1.3,9.9-0.3
	c7.9,2.4,16.1,3,24.2,4.4c6.1,1.1,12.1,2.6,18.4,3c0.3,0,0.7,0,0.8,0.4C1754.5,770,1754.2,770.1,1753.9,770.2z M1762.3,768.4
	c-2.5,0.8-5,0-7.5-0.2c-10.8-1.2-21.4-3.8-32.2-5c-0.7-0.1-1.3-0.2-2.1-0.9c1.6-0.4,2.9,0,4.1,0.1c5.2,0.7,10.3,1.5,15.5,2.1
	c5.8,0.7,11.6,1.4,17.4,2.1c1.6,0.2,3.2,0.2,4.8,0.4c0.4,0,1.1,0.1,1.1,0.8C1763.3,768.3,1762.7,768.3,1762.3,768.4z M1768.6,766.8
	c-11.2-1.2-22.3-2.6-33.5-3.9c-7.3-0.9-14.5-2.1-21.8-2.6c-0.3,0-0.7-0.2-1-0.5c1.9-1.1,3.8-2.3,6.1-1.6c6.2,1.8,12.7,2.5,19.1,3.4
	c5.4,0.7,10.7,1.5,16.1,2c6.2,0.6,12.3,1.6,18.5,1.8c0.4,0,0.8-0.1,1.2,0.6C1771.8,766.7,1770.1,767,1768.6,766.8z M1779.6,764.8
	c-0.8,0-1.6,0-2.3,0c-9.2-0.9-18.3-1.8-27.3-2.8c-8-0.9-16-1.8-24-3.2c-1.6-0.3-3.3-0.6-4.9-0.9c-0.4-0.1-1,0-1-0.6
	c0-0.7,0.7-0.6,1.1-0.7c2.3-0.8,4.5-0.3,6.8,0.1c12.7,2.2,25.5,3.7,38.3,5.7c4.5,0.7,8.9,1.5,13.5,1.5c0.5,0,1.2,0,1.1,0.6
	C1780.8,765,1780.1,764.8,1779.6,764.8z M1787.6,761.2c-0.2,1.4-1.2,1.8-2.6,1.8c-7.6-0.4-15.1-1.2-22.6-2.4
	c-10.8-1.7-21.6-3.2-32.4-4.8c-1.5-0.2-2.9-0.6-4.4-0.8c-1.3-0.2-1.9-1-1.7-2.4c0.1-1.4,0-2.7,0-3.8c-0.1-1.7-0.1-3.1-0.2-4.5
	c-0.1-1,0.3-1.5,1.4-1.4c8.8,1,17.6,2.1,26.3,3.7c5.8,1.1,11.8,1.8,17.7,2.5c5.9,0.7,11.6,1.9,17.5,2.7c1,0.1,1.5,0.7,1.5,1.8
	C1788.2,756.1,1787.9,758.6,1787.6,761.2z M1788.6,744.8c0,1.1-0.1,2.2-0.2,3.4c-0.1,2.5-0.4,2.8-2.9,2.4c-3.4-0.6-6.8-1.3-10.3-1.7
	c-8-1.1-16.2-1.9-24.1-3.4c-8.3-1.5-16.7-2.5-25.1-3.5c-1.8-0.2-2.3-0.8-2.4-2.6c-0.2-7.8,0.3-15.7,0.5-23.5
	c0.1-7.9-0.6-15.8-0.3-23.7c0.1-2.4,0.1-2.4,2.5-2.2c8.7,1,17.5,2,26.2,3.2c4.2,0.6,8.3,1.6,12.4,2.2c7.3,1.2,14.6,2.3,21.9,3.3
	c1.4,0.2,2,0.8,2,2.3C1788.8,715.6,1788.7,730.2,1788.6,744.8z"/>
<path d="M1366.4,769.3c-0.6-2.5-1.6-5-4.5-5.7c-4.4-1.2-8.7-2.3-13.2-2.9c-10.8-1.4-21.7-1.8-32.5-2.3c-4.4-0.2-8.5,1.2-12,3.8
	c-2,1.5-3.9,3-5.9,4.6c-0.8,0.6-1.6,1-2.7,0.3c-4.2-3.1-6.6-7.1-7.1-12.3c-0.4-4.7,1.3-8.4,4.6-11.7c0.7-0.7,1.2-1,2.2-0.7
	c3.3,0.9,6.9-0.7,7.1-4.5c0-0.7,0.4-1.1,0.8-1.3c-0.1-0.6-0.3-1.2-0.4-1.8c-0.3-0.2-0.5-0.3-0.7-0.6c-2-2.5-5.8-3.3-8.3-1.5
	c-1.8,1.3-3.8,1.7-5.8,2.1c-0.6,0.1-1.2,0.3-1.8,0.5c-2.8,1.4-6.1,0.9-8.8,2.7c-0.2,0.1-0.6,0.1-0.9,0.1c-1.5-0.1-2.8,0.2-3.8,1.5
	c-0.2,0.3-0.6,0.5-1,0.6c-0.1,0.5-0.2,1-0.3,1.5c0.3,0.2,0.5,0.6,0.4,1.5c-0.2,1.7,0.2,3.4,1.7,4.2c1.8,1,3.9,1.4,5.9,0.2
	c0.4-0.3,0.8-1,1.4-0.5c0.5,0.4,0.2,1,0.1,1.6c-1.7,8.9-0.2,17,5.4,24.2c1.1,1.3,0.8,2.1-0.4,3.1c-3.4,2.7-6.7,5.5-10,8.3
	c-2.4,2-4.8,4.1-7.1,6.3c-2.3,2.2-3.2,4.7-3.3,7.8c-0.2,8,0,16-0.4,24c-0.2,5.1,0,10.2,0.2,15.3c0.1,3.4-0.1,6.7,0.4,10.1
	c0.2,1.6,0.8,2.6,2.6,2.8c13.8,1.2,27.6,2.5,41.4,3.7c2.9,0.2,5.8,0.9,8.6-0.3c8.2-3.4,16.3-6.9,24.6-10.1c7-2.8,14.1-5.4,21.3-7.7
	c1.7-0.5,2.3-1.7,2.4-3.3c0.2-8.8,0.3-17.6,0.2-26.5c-0.1-9.3-0.1-18.6,0.1-28C1367.1,775.2,1367.1,772.2,1366.4,769.3z M1275.3,746
	c-0.5,0.3-1,0.2-1.4-0.2c-1.1-1.1-1.2-2.4-0.7-3.8c0.4-1.1,0.7-2.8,2.2-2.6c1.5,0.2,1.4,1.9,1.5,2.8
	C1277,744.1,1276.5,745.2,1275.3,746z M1306.7,764.1c0.7-2.1,2.1-3.6,4.5-4c2.1-0.3,4.1-0.8,6.3-0.7c11.8,0.9,23.6,0.8,35.3,3
	c3,0.6,6,1.4,9,2.3c1,0.3,1.6,1.1,2.2,1.9c1.4,2.1,1.8,4.5,2,6.9c0.1,1.2-0.6,1.6-1.8,1.5c-6-0.6-12-1.1-18-1.7
	c-7-0.7-14-0.7-21-1.4c-5.9-0.6-11.7-1.5-17.6-1.2c-1.1,0.1-1.6-0.4-1.6-1.5C1306,767.5,1306.1,765.7,1306.7,764.1z M1298.2,734.3
	c-0.5-0.8,0-1.1,0.8-1c1.3,0.1,2.3,1.5,2.2,3.7c-0.1,1.3-0.9,2.7-2.5,3.7c-0.5,0.3-1.1,0.4-1.5,0c-0.3-0.4,0.2-0.8,0.4-1.1
	C1298.7,737.9,1299.6,736.2,1298.2,734.3z M1294.9,733.7c1.2,0,2.5,1.3,2.5,2.7c0,1.6-1.4,3.3-2.7,3.3c-1.2,0-2.5-1.4-2.5-2.6
	C1292.2,735.6,1293.7,733.7,1294.9,733.7z M1291.9,740.8c0.3-0.1,0.4,0.3,0.4,0.5c-0.2,1-0.9,1.7-1.7,2.1c-0.4,0-0.7-0.3-0.6-0.6
	C1290.4,742,1291,741.2,1291.9,740.8z M1287.5,736.3c1.5-0.1,2.9,1.1,2.9,2.5c0,1.5-1.8,3.5-3,3.6c-1.1,0.1-2-1.2-2-2.8
	C1285.3,737.8,1286.3,736.3,1287.5,736.3z M1284.5,742.9c0.5-0.1,0.8,0.3,0.7,0.8c-0.1,0.8-0.8,1.2-1.4,1.5
	c-0.5,0.1-0.8-0.2-0.7-0.5C1283.4,744,1283.7,743.2,1284.5,742.9z M1279.8,744.6c-1.1-0.4-1.2-1.5-1.2-2.1c0-1.6,0.4-2.6,0.9-3.6
	c0.5-1,1.4-1.7,2.5-1.4c1.3,0.4,1.5,1.5,1.4,2.7c-0.1,1.1-0.6,2-1.2,2.9C1281.7,744.1,1281,745,1279.8,744.6z M1282.7,763.7
	c-0.8-2.9-1.7-5.8-1.5-7.9c0.2-3.1,0.2-5.2,0.8-7.3c0.3-1,0.6-1.8,1.8-1.7c0.8,0,1.4-0.4,1.9-1c0.6-0.6,1.3-1.4,2.2-0.9
	c1.1,0.6,0.5,1.7,0.1,2.5c-1.8,4.1-1.2,8.1,0.2,12.1c1.1,3.3,3.2,5.7,5.8,7.8c1.4,1.1,1.1,1.7-0.1,2.5c-1.4,0.9-2.8,1.9-4.1,2.9
	c-1.2,0.9-2,0.6-2.8-0.5C1285.2,769.6,1283.6,766.8,1282.7,763.7z M1266.7,796.6c0.1-2.6,1.8-4.6,3.6-6.2c5.5-4.7,11-9.5,16.7-14
	c5.5-4.4,11.2-8.5,16.8-12.7c0.5-0.3,0.9-1.2,1.5-0.7c0.6,0.4,0,1.2-0.1,1.7c-0.4,1.4-0.5,2.8-0.4,4.2c0.1,1.8-0.6,3-2.1,4.1
	c-6.5,4.7-13.1,9.5-19.6,14.2c-4.8,3.5-9.8,6.6-14.3,10.4c-0.5,0.4-1,1.1-1.8,0.7C1266.5,798,1266.8,797.2,1266.7,796.6z
	 M1277.2,817.7c0.3-7.5-0.3-15.3-0.4-23.1c0-1.2,0.5-2,1.4-2.6c1.5-1,3-2,4.5-3c1-0.7,1.4-0.5,1.5,0.7c0.3,3.4,0,6.8,0,10.2
	c-0.1,9.4,0.1,18.9-0.3,28.3c0,1.3-0.4,2.1-1.6,2.7c-1.2,0.6-2.5,1.2-3.7,1.8c-1.3,0.6-1.8,0.2-1.7-1.2
	C1276.9,827,1277.4,822.5,1277.2,817.7z M1281.3,832.6c2.4-0.9,2.3-1,2.4,1.6c0,1.7,0.1,3.5,0.1,5.2c0.1,1.5-0.5,2.6-1.9,3.3
	c-6,2.8-5,3.1-5.1-3.6C1275.5,835.6,1278,833.9,1281.3,832.6z M1279.8,846.2c2.9,0.7,5.9,1,8.8,1.2c5.8,0.4,11.4,1.8,17.1,2.5
	c0.2,0,0.3,0.2,0.4,0.3c0,0.1,0,0.2-0.1,0.4c-4.2-0.4-8.4-0.9-12.6-1.2c-5.6-0.5-11.3-0.9-16.9-1.4c-0.5,0-1.1,0.2-1.2-0.5
	c-0.1-0.6,0.5-0.6,0.8-0.8C1277.4,845.9,1278.4,845.9,1279.8,846.2z M1283.4,843.6c0-1,1.5-1.2,2.4-1.1c3.3,0.4,6.6,0.9,9.9,1.5
	c2.2,0.4,4.6,0.4,6.7,1.5c-5.5-0.5-11-0.9-16.4-1.4c-0.2,0-0.4,0-0.6-0.1C1284.7,843.9,1283.4,844.6,1283.4,843.6z M1284.7,837.1
	c-0.5-4.5,0.4-7.8,5.2-9.1c0.3-0.1,0.6-0.4,1-0.6c1.3-0.9,1.7-0.4,1.8,1c0.1,1.3,0.2,2.6,0.2,3.9c1.1,3.9-0.7,5.8-4.3,7.2
	C1284.7,841.1,1285.1,841.3,1284.7,837.1z M1292.8,804.2c0,5.7,0,12,0,18.4c0,1.8-0.6,3.1-2.2,3.9c-1.3,0.6-2.5,1.4-3.8,2
	c-1.6,0.8-2,0.5-1.9-1.2c0.1-3.8,0.3-7.6,0.4-11.4c0.1-9,0.2-18,0.2-27c0-1.4,0.5-2.3,1.6-3.1c1.5-0.9,2.8-2,4.3-3
	c0.4-0.3,0.7-0.8,1.3-0.5c0.6,0.3,0.4,0.9,0.4,1.3C1293,790.2,1293.6,796.9,1292.8,804.2z M1295.2,838.2c2.3,0.7,4.7,0.7,7,1.2
	c5.7,1.1,11.6,1.6,17.3,2.7c3.4,0.7,7,1,10.5,1.6c0.6,0.1,1.3-0.1,1.7,0.7c-2.7,0.3-5.2,0-7.8-0.3c-9.7-1.3-19.5-2.2-29.2-3.9
	c-0.1,0-0.3,0-0.4-0.1c-0.8-0.3-2,0.5-2.4-0.7C1291.8,838.9,1294.3,837.9,1295.2,838.2z M1294.3,781.7c0-0.8,0.3-1.4,1-1.9
	c2.6-1.9,5.3-3.9,7.9-5.9c0.9-0.7,1.4-0.5,1.4,0.6c0,1.7,0,3.3,0,5c0,5.5,0,11,0,16.6c0.1,0,0.2,0,0.4,0c0,6.8,0,13.7,0,20.5
	c0,0.9-0.1,1.7-1,2.2c-2.8,1.5-5.6,3.2-8.4,4.7c-1.5,0.8-1.8,0.6-1.8-1.1C1293.5,808.9,1294.7,795.3,1294.3,781.7z M1297.5,823.8
	c2.1-0.9,3.9-2.4,6-3.3c1.1-0.5,1.5-0.3,1.4,0.9c-0.1,3.2-0.2,6.4-0.3,9.7c0,0.8-0.4,1.3-1.1,1.6c-2.7,1.2-5.4,2.5-8.1,3.6
	c-0.9,0.4-1.1-0.3-1.2-0.9c-0.4-1.7-0.4-3.5-0.3-5.6C1292.7,826.6,1294.6,825,1297.5,823.8z M1299.6,837.5c-0.3,0-0.6,0-0.9-0.1
	c-0.4-0.1-1-0.1-1.1-0.6c-0.1-0.6,0.5-0.7,1-0.9c2.5-1.3,5-1.1,7.6-0.4c7,1.8,14.2,2.4,21.2,3.7c0.2,0,0.5,0.1,0.9,0.3
	c-0.8,0.6-1.4,0.5-2,0.4C1317.4,839.2,1308.5,838.3,1299.6,837.5z M1266.4,811.5c0.1-2.9,0-5.7-0.1-8.6c0-1.1,0.3-1.9,1.1-2.6
	c2.3-1.8,4.5-3.7,6.8-5.5c0.3-0.3,0.7-0.6,1.2-0.3c0.5,0.3,0.4,0.7,0.4,1.2c0,6.1,0,12.3,0,18.4c0,0,0,0-0.1,0c0,6,0,11.9,0,17.9
	c0,1.2-0.4,2-1.4,2.6c-2.1,1.3-4.2,2.6-6.4,3.8c-1.5,0.8-1.8,0.6-1.8-1.1C1266,828.7,1266.1,820.1,1266.4,811.5z M1266.4,844.6
	c-0.3-3,0.7-4.8,3.4-6c1.5-0.7,2.9-1.7,4.3-2.6c1-0.7,1.5-0.3,1.5,0.8c0.1,1.2,0,2.5,0,3.7c-0.3,5.9,0.8,4.7-5.1,6.9
	C1266.7,848.9,1266.7,848.7,1266.4,844.6z M1304.7,852.6c-10.4-1-20.9-1.9-31.3-2.9c-0.8-0.1-2.3,0.2-2.2-0.7
	c0.1-1.1,1.4-0.3,2.2-0.3c7.1,0.5,14.2,1,21.3,1.7c5.3,0.5,10.6,1.1,15.9,1.7c0,0.2,0,0.3,0,0.5
	C1308.6,852.9,1306.6,852.8,1304.7,852.6z M1325.1,849.5c-1.8,1.1-3.7,1.6-5.8,1.3c-8.4-1.2-16.8-2.4-25.3-3.6
	c-2.9-0.4-5.9-0.8-8.8-1.2l0.1-0.7c13.3,1.2,26.6,2.5,39.9,3.7C1325.1,849.1,1325.1,849.3,1325.1,849.5z M1326.8,847.4
	c-6.1-0.8-12.2-1.3-18.3-2.3c-6.3-1.1-12.6-2.1-18.9-3.1c-0.6-0.1-1.5,0-1.4-0.8c0.1-0.9,1-0.7,1.7-0.6c6.1,0.9,12.2,1.9,18.4,2.7
	c7.4,1,14.7,2,22.2,2.5c0.7,0,1.4,0,2.2,0.6C1330.7,847.6,1328.8,847.6,1326.8,847.4z M1342.2,842.7c-1.6,0.6-3.1,1.4-5,1.1
	c-5.1-0.9-10.1-1.6-15.2-2.4c-0.4-0.1-0.8-0.1-1.3-0.9c1.7,0.1,3.1,0.1,4.6,0.3c5.6,0.6,11.1,0.7,16.7,0.7c0.4,0,1-0.2,1.1,0.3
	C1343.3,842.4,1342.6,842.6,1342.2,842.7z M1351.5,839.3c-3.3,1.8-6.7,0.9-10,0.6c-7.8-0.9-15.5-2-23.2-3.2c-2.3-0.3-4.7-0.9-7-1.4
	c0.9-0.7,1.8-0.6,2.7-0.5c8.6,1.3,17.2,2.1,25.9,2.2c3.8,0,7.7,0.5,11.5,0.8c0.4,0,1,0,1.1,0.5
	C1352.6,839.1,1351.9,839.1,1351.5,839.3z M1358.6,836.7c-1,0.5-2,0.6-3.1,0.5c-6.4-0.5-12.8-1.3-19.3-1.4
	c-5.9-0.1-11.8-0.3-17.6-1.3c-0.8-0.1-1.6-0.1-2.5-0.9c1.6-0.4,3-0.2,4.3-0.1c9,0.4,18.1,0.9,27.1,1.3c3.6,0.2,7.2,0.7,10.8,0.5
	c0.5,0,1.1-0.1,1.2,0.5C1359.6,836.4,1359,836.5,1358.6,836.7z M1365.3,832.9c0,1.1-0.7,1.3-1.6,1.3c-4.8-0.1-9.7,0-14.5-0.4
	c-9-0.6-18.1-1.1-27.2-1.5c-4.7-0.2-9.4-0.5-14.1-0.6c-1.7-0.1-2.2-1-2.1-2.6c0.2-2.7,0.4-5.3,0.5-8c0-1.3,0.6-1.8,1.8-1.7
	c2.4,0.2,4.8,0.2,7.3,0.4c8.3,0.3,16.5,0.7,24.8,0.9c7.8,0.2,15.6,0.7,23.4,1.1c1.6,0.1,2.3,0.7,2.2,2.2
	C1365.6,826.9,1365.4,829.9,1365.3,832.9z M1365.9,803.3c0,5,0,9.9-0.1,14.9c0,2.2-0.5,2.5-2.6,2.3c-5.5-0.5-11-0.5-16.6-0.6
	c-7.9-0.2-15.9-0.7-23.8-1.1c-4.8-0.2-9.7-0.3-14.5-0.9c-1.5-0.2-2-0.6-2-2.1c0.1-7,0-13.9,0-20.9l-0.5,0c0-7,0-14,0-21.1
	c0-1.4,0.4-1.8,1.8-1.9c4.6-0.5,9.1,0.3,13.6,0.7c8.5,0.8,17,1.2,25.5,1.7c5.7,0.4,11.4,1,17.1,1.5c1.3,0.1,2.4,0.4,2.3,2.2
	C1365.6,786.6,1365.8,794.9,1365.9,803.3z"/>
<path d="M1918.2,1001.6c-7.4-2.7-14.6-6.3-22.2-8c-10.2-2.3-19.1-6.9-27.8-12.1c-2.1-1.2-4.3-2.3-6.5-3.3c-1.2-0.6-2.5-0.6-3.8-0.4
	c-4.4,0.7-8.2-0.6-11.7-3.2c-2.7-2-5.9-3.2-8.8-4.9c-1.8-1.1-3.5-2.3-5-3.9c-1.9-2.1-4.3-3.8-6.8-5.2c-1.9-1.1-3.3-2.5-4.6-4.3
	c-1.6-2.4-3.2-4.9-5.2-7c-0.3-0.3-0.6-0.7-0.7-1.1c-1.1-4.2-4.9-5.7-8-7.8c-1-0.7-1.6-0.3-1.9,0.8c-1.6,4.8-3.5,9.5-5.5,14.2
	c-0.5,1.2-0.4,2.4,0.1,3.6c0.8,2,2.2,3.6,2.8,5.7c0.6,1.8,0.4,3.4-1.3,4.4c-4.3,2.6-8.2,5.8-13.5,6.3c-2.9,0.3-5.4,1.6-7,4.6
	c-1.4,2.6-3.4,4.8-5.7,6.8c-2.6,2.2-5,4.6-7.7,6.7c-1.7,1.3-3.4,2.5-5.3,3.4c-1.9,0.9-3.5,2.3-5.1,3.7c-1.1,0.9-0.9,1.6,0.2,2.4
	c1.5,1.1,3.3,1.4,4.9,2.2c1.9,0.9,3.6,2.2,5.3,3.4c1.7,1.1,1.5,2.5-0.4,3.4c-1,0.5-2,1-3.1,1.2c-4,1-7.1,3.4-9.8,6.4
	c-1.5,1.6-3.3,2.7-5.3,3.4c-1.2,0.4-2.4,0.9-3.2,1.9c-3.2,3.8-7.3,6.6-11.1,9.6c-5.3,4.2-10.1,9.1-15.7,12.9
	c-2.6,1.8-5.1,3.7-7.8,5.6c-0.4-1,0.3-1.3,0.7-1.6c10-6.6,18.4-15.3,28.1-22.4c0.2-0.1,0.4-0.3,0.6-0.5c3-3.4,6.2-6.5,10.7-8.1
	c0.7-0.2,1.3-0.9,1.9-1.5c3-3.3,6.4-5.8,10.8-6.9c1.2-0.3,2.8-0.6,3-1.9c0.2-1.3-1.5-1.6-2.4-2.3c-1.7-1.4-3.6-2.4-5.7-2.9
	c-0.1,0-0.2-0.1-0.4-0.1c-1.4-0.6-3.2-1.3-3.5-2.8c-0.3-1.5,1.5-2.3,2.5-3.1c3.8-2.9,8.4-4.9,11.9-8.2c4-3.8,8.6-7.1,11.2-12.3
	c1.3-2.6,4.1-3.8,6.9-4c4.8-0.3,8.5-3.1,12.3-5.3c2.2-1.3,2.5-2.8,1.3-5.1c-0.9-1.6-1.9-3.2-2.6-4.9c-0.6-1.4-0.6-2.6,0-3.9
	c1.8-4,3.6-8.1,4.9-12.2c0.2-0.5,0.7-1.1,0.2-1.5c-0.6-0.5-1,0.3-1.3,0.6c-3.5,3-6.9,6.2-10.9,8.7c-3.1,1.9-5.5,4.8-8.2,7.3
	c-2.6,2.3-5.2,4.5-8,6.4c-2.9,1.9-6,3.1-9.4,1.1c-1.2-0.7-2.3-0.6-3.4,0.3c-7.9,6.3-16.6,11.4-24.6,17.5c-1.8,1.4-3.8,2.4-5.8,3.3
	c-2.3,1.1-4.6,2.2-6.7,3.6c-4,2.7-8.7,3.6-13.3,4.6c-1.2,0.2-2.5,0.1-3.6-0.5c-1.1-0.6-2.3-1.3-3.4-1.9c-3-1.7-5.1-0.8-5.6,2.6
	c-0.3,1.9-0.6,3.8-0.7,5.7c-0.1,1.8-0.7,3.2-2,4.5c-3,2.8-4,6.6-5.2,10.4c-0.9,2.8-2.1,5.4-4.3,7.5c-0.5,0.5-1.1,1.1-1.4,1.7
	c-1.8,3.9-5.1,6.3-8.4,8.8c-2.8,2-5.4,4.2-8.1,6.3c-0.4,0.3-1,1-1.4,0.4c-0.4-0.6,0.5-0.9,0.9-1.2c2.9-2.3,5.8-4.5,8.7-6.8
	c2.9-2.2,5.8-4.6,7.3-8c0-0.1,0.1-0.2,0.2-0.3c4.5-3.7,5.5-9.1,7.3-14.2c0.4-1.1,0.8-2.3,1.7-3.1c2.9-2.4,3.8-5.7,3.9-9.3
	c0-1.1,0.8-2.5-0.3-3.1c-0.8-0.4-1.9,0.8-2.6,1.5c-2.4,2.3-4.7,4.6-6.9,7c-3.4,3.7-7.4,6.6-11.4,9.6c-1,0.7-2.1,1.2-3.3,0.4
	c-1.4-0.8-2.6-0.4-3.7,0.7c-3.7,3.7-6.6,8.1-8.7,12.9c-1.9,4.4-4.9,8.2-7.2,12.4c-0.2,0.3-0.5,0.7-0.9,0.5c-0.4-0.3-0.2-0.6,0-1
	c0.9-1.4,1.6-2.9,2.6-4.3c4-6.1,6.3-13.1,11-18.6c-0.4-0.4-0.6-0.5-0.8-0.3c-6.2,4.4-13,8.1-18.6,13.3c-1,1-2,2-3,3.1
	c-1.3,1.4-2.7,2.6-4.5,3.2c-2.3,0.8-4.1,2.2-5.6,4.2c-2.6,3.7-6.1,6.5-9.5,9.4c-4.7,4.1-9.4,8.2-15,11.3c-3.5,2-5.9,5.5-9,8.1
	c-4,3.3-8.2,6.3-12.5,9c-0.7,0.4-1.4,0.3-2.3,0.1c1.8-1.1,3.4-2.1,4.9-3.1c5-3.2,9.7-6.9,13.8-11.3c2.8-3,6.7-4.5,9.8-7
	c6.6-5.2,13.4-10.3,18.7-17c1.7-2.1,3.6-3.9,6.3-4.8c1.6-0.6,3-1.8,4.2-3.1c5-5.4,11.2-9.3,17.2-13.3c2.1-1.4,4.1-2.8,6.2-4.1
	c1.4-0.9,1.1-1.6,0.1-2.6c-3.9-4.2-8.8-5.5-14.4-5.2c-0.4,0-0.8-0.1-0.9,0.4c-0.1,0.4,0.2,0.7,0.5,0.9c1.4,1.1,2.9,2.2,4.3,3.3
	c0.4,0.3,1,0.6,0.6,1.2c-0.4,0.6-0.9,0-1.3-0.2c-1.8-1.4-3.7-2.8-5.6-4c-5.2-3.1-10.9-3.9-16.8-4.5c-2.8-0.2-5-1.2-7.4-2.8
	c-3.5-2.3-6.3-5.6-10.4-7.2c-0.4-0.2-0.8-0.5-0.5-1c0.2-0.4,0.7-0.3,1-0.1c1.6,1,3.2,1.8,4.7,3c2.5,2,5.1,3.9,7.8,5.7
	c2.4,1.6,5.4,1.2,8.1,1.6c2.6,0.4,5.2,0.6,7.6,1.5c3.1,1.2,6.4,1.4,9.6,1.1c5.9-0.5,10.4,2.2,14.5,5.9c0.8,0.7,1.4,1.3,2.6,0.9
	c0.3-0.1,0.9,0,1.2,0.2c1.9,1.1,3.5,0.3,5.1-0.9c4.8-3.3,8.9-7.4,12.8-11.6c2.9-3.2,6.3-5.6,9.9-7.8c1.3-0.8,2.6-0.7,3.9-0.2
	c0.1,0,0.2,0.1,0.3,0.1c6.5,4.9,12.7,2,18.8-0.8c2.4-1.1,4.5-2.6,6.8-3.8c1.1-0.6,1.3-1.2,0.3-2.1c-1-0.9-1.9-1.9-2.8-3
	c-2.8-3.3-5.4-6.8-9.2-9.1c-2.3-1.4-4.2-3.5-5.9-5.7c-1.7-2.1-3.8-3.1-6.4-3.2c-2.2,0-4-0.9-5.6-2.2c-1.7-1.3-3.2-2.8-4.5-4.4
	c-1.9-2.3-4-4.2-6.4-5.9c-1-0.7-1.6-0.7-1.8,0.6c-0.2,1.2-0.5,2.3-0.3,3.5c0.3,1.7-0.3,3-1.3,4.3c-3,3.5-5.2,7.7-8.8,10.9
	c-1,0.9-0.6,1.6,0.4,2.1c4.1,2,6.5,5.7,9.4,8.9c2.1,2.2,1.2,5.2,1.3,7.9c0,0.3-0.2,0.6-0.5,0.6c-0.3,0-0.5-0.3-0.5-0.7
	c0-0.9-0.1-1.9,0-2.8c0.1-2.2-0.6-4-2.2-5.5c-1.3-1.2-2.5-2.6-3.7-4c-1.4-1.7-3.1-3.1-5.3-3.6c-1.4-0.3-1.8-1-0.9-2.3
	c0.5-0.7,0.9-1.6,1.5-2.1c3.8-2.9,5.6-7.4,8.8-10.8c1.1-1.2,0.8-2.6,0.6-3.9c-0.1-1.1,0.7-2.7-0.2-3.1c-1.1-0.5-1.9,1.1-2.8,1.7
	c-2.8,1.8-5.6,3.7-8.4,5.6c-1.3,0.9-2.6,1-4.1,0.4c-1.4-0.6-2.8-1.1-4.2-1.5c-1.3-0.4-2.5-0.1-3.2,1.2c-0.1,0.1-0.2,0.2-0.2,0.3
	c-3,4.9-3.2,3.1-0.1,7.8c0.2,0.3,0.4,0.6,0.6,0.9c0.2,0.3,0.2,0.6-0.1,0.8c-0.3,0.2-0.6,0-0.8-0.3c-1.1-1.5-2.2-3-3.3-4.5
	c-0.4-0.6-0.1-1.2,0.3-1.7c0.5-0.7,1-1.4,1.4-2.2c0.1-0.2,0.3-0.6,0-0.8c-0.1-0.1-0.4-0.1-0.5-0.1c-3.2,1.9-7.1,1.3-10.3,2.9
	c-2.1,1-4.2,2.1-6.3,3.2c-0.8,0.4-1.6,0.8-2.5,0.8c-3.4-0.1-6.8-0.3-10.2-0.4c-0.5,0-1.4,0.1-1.3-0.7c0-0.8,0.9-0.5,1.4-0.5
	c1.2,0,2.5,0,3.7,0c0.3,0,0.7,0,0.8-0.4c0.1-0.3-0.1-0.6-0.3-0.8c-4.7-4.3-8.5-9.4-13.6-13.3c-1.5-1.1-2.5-2.5-3.2-4.2
	c-2.2-5.1-5.8-8.8-11-10.7c-1.1-0.4-1.9-1.2-2.6-2.1c-3.5-4.1-6.9-8.3-9.8-12.9c-1.9-3-4.3-5.5-7.2-7.5c-2.2-1.5-4-3.4-5.4-5.6
	c-3.3-5.3-7.2-9.9-12.2-13.7c-2.8-2.1-5-4.8-7.6-7.2c-2.1-1.9-4.5-3.1-7.3-3.9c-2.5-0.8-4.5-2.6-6.2-4.7c-2.6-3.2-5.5-6.3-7.9-9.7
	c-0.9-1.3-2.2-2.4-3.6-3.1c-1.3-0.7-1.8-0.3-1.7,1.2c0.2,3.1,0.3,6.2,0.6,9.3c0.2,2.4-0.5,4.4-2.2,6.1c-1.2,1.2-1.6,2.5-1.8,4.1
	c-0.5,4.4-2.7,8.2-5.2,11.8c-3.6,5.3-3.8,8.8-0.2,14.1c2,2.9,3,6.2,3.9,9.6c0.5,1.8,1.4,3.3,2.7,4.6c1.2,1.1,2.1,2.4,2.7,4
	c0.4,1.1,1.2,1.8,2.3,2.2c6.8,2.7,11.1,7.9,13.9,14.5c0.3,0.6,0.8,1.4,0.1,2.1c-0.6,0.6-1.3,0.1-1.9,0.1c-0.2,0-0.4-0.1-0.5-0.2
	c-2.8-1.7-5.8-2.2-9.1-2c-1.3,0.1-2.3-0.9-3.5-1.3c-1.4-0.6-2.6-0.3-3.4,1c-1.3,2.1-3.1,3.3-5.2,4.3c-3.1,1.3-5,3.8-6.9,6.4
	c-2.7,3.7-5.3,7.5-8.4,10.9c-2.5,2.7-5.2,5.1-8.4,7c-0.4,0.3-1,1-1.4,0.3c-0.4-0.6,0.4-1,0.8-1.2c4.4-2.5,7.6-6.1,10.8-9.9
	c0.5-0.5,1.6-1.2,0.9-1.9c-0.5-0.5-1.2,0.5-1.8,1c-4.4,3.6-9.1,6.8-13.7,10c-0.3,0.2-0.7,0.6-1.3,0.3c-0.1-0.9,0.7-1.1,1.2-1.5
	c5.4-3.8,10.8-7.7,16.1-11.8c2.4-1.9,4.4-3.9,6.3-6.3c2.4-3,4.7-6.1,7.5-8.8c0.6-0.6,1.3-1.2,1.5-2.2c-0.8-0.1-1.2,0.5-1.7,0.9
	c-7.2,6.2-14.6,12.2-21.6,18.7c-0.4,0.4-0.9,1.2-1.5,0.6c-0.5-0.5,0.2-1,0.6-1.4c4.8-5.9,9.9-11.5,14.9-17.2
	c0.4-0.5,1.1-0.9,1.1-1.7c-0.7-0.3-1,0.3-1.4,0.6c-4.7,4.1-10,7.4-14.5,11.7c-0.4,0.4-0.9,1-1.4,0.5c-0.6-0.6,0.2-1.1,0.5-1.5
	c3.3-4.1,6.6-8.1,10.3-11.8c0.6-0.6,1.2-1.1,1.5-2.1c-0.9,0.1-1.4,0.6-1.8,1c-2,2-4.3,3.5-6.6,5.2c-0.5,0.4-1,0.9-1.6,0.3
	c-0.6-0.6-0.2-1.3,0.3-1.8c3.6-4.2,7.3-8.3,10.9-12.5c0.3-0.3,0.6-0.6,0.9-1c0.2-0.2,0.5-0.5,0.1-0.8c-0.3-0.2-0.6-0.1-0.8,0.1
	c-0.7,0.7-1.4,1.4-2.2,2c-4.5,3.3-9,6.6-13.6,9.9c-0.4,0.3-0.8,0.8-1.3,0.2c-0.4-0.5,0.2-0.9,0.5-1.2c3.5-4,6.6-8.4,10.4-12.2
	c0.2-0.2,0.2-0.4,0.4-0.8c-1-0.2-1.4,0.5-1.9,1c-3.2,2.7-6.4,5.5-9.7,8.2c-0.4,0.4-0.9,1.2-1.5,0.6c-0.7-0.6,0.2-1.1,0.6-1.5
	c4.5-5.6,9-11.1,14-16.2c0.3-0.3,0.8-0.7,0.7-1.3c-0.7-0.4-1,0.2-1.4,0.5c-3.9,3.6-8.3,6.6-12,10.3c-0.3,0.3-0.7,0.9-1.2,0.5
	c-0.5-0.5,0.2-0.9,0.4-1.2c3.2-3.9,6-8.3,9.6-11.9c0.2-0.2,0.6-0.5,0.4-1c-0.6-0.3-0.9,0.1-1.3,0.4c-2.7,2.3-5.7,4.2-8.1,6.8
	c-0.3,0.3-0.7,1-1.2,0.6c-0.7-0.5,0.1-1,0.4-1.4c2.7-3.8,5.7-7.4,9-10.7c0.5-0.5,1.2-0.9,1.3-2.2c-4.2,3.4-8.2,6.6-12.2,9.8
	c-0.2-0.2-0.3-0.3-0.5-0.5c3.7-4.9,8-9.3,11.9-14.1c-0.4,0.2-0.7,0.4-1.1,0.7c-0.3,0.3-0.7,0.6-1,0.9c-2.7,2.5-5.4,4.9-8.2,7.4
	c-0.4,0.4-0.9,1.2-1.5,0.6c-0.5-0.5,0.3-0.9,0.7-1.3c3.7-5,8-9.5,12.3-14c0.6-0.6,1.4-1.1,1.4-2.1c-0.6-0.4-0.8,0.1-1.1,0.4
	c-2.8,2.8-5.7,5.6-8.5,8.3c-0.4,0.4-0.8,1.2-1.5,0.5c-0.5-0.5,0.2-1,0.6-1.4c6.7-7.4,13.3-14.9,20.3-22.1c0.8-0.8,1.6-1.5,2-2.8
	c-0.9,0-1.2,0.6-1.7,1.1c-2.3,2.3-4.6,4.7-6.9,7.1c-0.3,0.3-0.6,1-1.1,0.5c-0.4-0.5,0.2-0.9,0.5-1.2c2.8-2.8,5.6-5.7,8.4-8.5
	c1-1,2-2.1,3.1-3c0.6-0.5,1.1-2.1,2-1.2c0.8,0.7-0.4,1.7-0.9,2.4c-3.3,5.1-7.5,9.3-11.7,13.5c-1.3,1.3-2.7,2.5-3.9,4.2
	c1.2,0.2,1.6-0.5,2-0.9c3.4-3.1,6.7-6.3,10.1-9.4c0.4-0.4,0.9-1.2,1.5-0.5c0.5,0.6-0.4,1.1-0.8,1.5c-6.7,6.6-12.8,13.8-19.3,20.4
	c-0.6,0.6-1.2,1.4-1.4,2.3c3-2.6,6-5.1,9-7.7c2.8-2.4,5.4-4.9,8.2-7.4c0.4-0.3,0.8-1.2,1.3-0.6c0.6,0.6-0.2,1.1-0.6,1.5
	c-6.2,5.3-11.1,11.9-16.9,17.6c-0.3,0.3-0.6,0.6-0.7,1.2c0.7,0.3,1.1-0.3,1.5-0.6c2.5-2.5,5.6-4.3,8.4-6.5c0.5-0.3,1-1,1.6-0.4
	c0.6,0.7-0.2,1.1-0.6,1.5c-3.4,3.6-6.8,7.2-10.3,10.8c-0.2,0.3-0.4,0.6-0.7,1c1.1,0.2,1.5-0.4,2-0.9c3.1-2.5,6.2-5.1,9.6-7.4
	c0.4-0.3,0.9-1,1.4-0.4c0.5,0.6-0.3,0.9-0.7,1.3c-3.9,3.6-6.9,8-10.5,11.8c-0.2,0.2-0.2,0.4-0.3,0.7c0.8,0.4,1.1-0.2,1.5-0.6
	c3.3-3,6.9-5.5,10.4-8.2c0.5-0.4,1.2-1.3,1.9-0.5c0.6,0.7-0.3,1.2-0.7,1.7c-4.6,5.1-9.2,10.2-13.7,15.2c-0.5,0.5-1.1,1-1.3,1.9
	c0.8,0,1.2-0.5,1.7-1c5-4.4,10.3-8.6,15.6-12.7c0.5-0.4,1-1.4,1.6-0.6c0.5,0.6-0.5,1.1-1,1.6c-5.4,5-10.5,10.4-15.3,16.1
	c-0.1,0.1-0.3,0.3-0.4,0.4c-0.3,0.3-0.7,0.7-0.3,1.1c0.4,0.3,0.7-0.1,0.9-0.3c3.3-2.4,6.6-4.7,9.8-7.1c2.3-1.6,4.5-3.2,6.8-4.8
	c0.4-0.3,1-0.9,1.4-0.2c0.4,0.6-0.4,0.9-0.8,1.3c-5.1,4.9-9.4,10.4-14.3,15.5c-0.2,0.2-0.3,0.4-0.1,0.7c0.7,0.3,1.1-0.3,1.5-0.7
	c4.4-3.6,8.7-7.2,13.1-10.8c0.5-0.4,0.9-1.5,1.6-0.8c0.6,0.6-0.3,1.2-0.8,1.6c-5.1,4.9-9.6,10.5-14.5,15.6c-0.3,0.3-0.8,0.6-0.8,1.3
	c0.8,0.2,1.2-0.4,1.7-0.8c6-4.7,12-9.4,18.1-14.1c0.3-0.2,0.7-0.8,1.1-0.2c0.4,0.5-0.1,0.9-0.5,1.2c-5.9,5.3-10.8,11.5-16.2,17.2
	c-0.9,0.9-1.7,2-2.8,3.2c1.3-0.1,1.7-0.9,2.3-1.3c6.7-6,13.7-11.7,20.8-17.3c0.4-0.3,0.9-1.2,1.5-0.6c0.5,0.6-0.4,1-0.8,1.5
	c-0.2,0.2-0.5,0.4-0.7,0.6c-0.3,0.4-0.8,0.7-0.4,1.3c0.4,0.4,0.8,0.1,1.2-0.1c0.9-0.4,1.7-0.8,2.6-1.1c0.6-0.3,1.2-0.9,1.9-0.4
	c0.6,0.5-0.5,1.1-0.1,1.7c0.6,0.4,1.1-0.2,1.7-0.2c0.8,0,1.4,0.1,1.4,1.1c0,1.1,0.3,1.6,1.5,1.4c0.5-0.1,1.1,0,1.1,0.6
	c0.1,0.8-0.6,0.6-1.1,0.6c-0.4,0.1-0.8,0.2-1.2,0.3c-0.3,0.1-0.6,0.3-0.5,0.7c0.1,0.2,0.3,0.4,0.5,0.4c1.7,0.1,3,1.1,4.5,1.8
	c0.5,0.2,1,0.4,1.4,0c0.5-0.5,0.1-0.9-0.1-1.3c-2.7-5.8-6.4-10.7-12.8-12.7c-1.6-0.5-2.4-1.8-2.9-3.2c-0.6-1.4-1.4-2.7-2.5-3.6
	c-1.7-1.4-2.3-3.2-2.8-5.1c-1-3.6-2.4-7-4.4-10.2c-2.3-3.8-3.5-7.8-0.4-11.9c2.1-2.8,3.8-5.8,5.1-9.1c0.6-1.6,1.3-3.2,1.2-5
	c-0.1-1.7,0.9-2.9,2-4c1.3-1.3,1.9-2.7,1.8-4.5c-0.1-2.7-0.1-5.5-0.2-8.2c0-0.6,0.2-1.4-0.6-1.6c-0.7-0.2-0.9,0.6-1.2,1
	c-3.5,4.9-7.4,9.5-11.8,13.7c-3.5,3.3-6.7,6.8-9.1,11c-1.8,3.2-4.4,6-7.7,8c-4.7,2.8-8.8,6.5-12.5,10.5c-0.8,0.9-1.7,1.8-2.6,2.7
	c-1.9,2.3-4.3,3.5-7.4,3c-1.2-0.2-2.3,0.4-3.2,1.2c-4.4,4.1-9.2,7.6-14.5,10.4c-3.2,1.7-6.9,1.7-10.5,1c-2.3-0.5-2.3-0.5-2.4,1.9
	c-0.1,2.7-0.2,5.2-2.5,7.3c-1.7,1.6-1.4,2.5,0.6,3.7c0.9,0.5,1.7,1.2,2.5,1.9c1.1,1.2,1.4,2.4,0.7,3.9c-1.4,3-1.3,5.8,1.2,8.4
	c3,3.2,5.1,7.1,7.1,10.9c0.8,1.5,1.1,3,0.4,4.6c-0.1,0.3-0.2,0.6-0.6,0.5c-0.3-0.1-0.3-0.4-0.3-0.6c0.8-5.2-3.1-8.5-5.4-12.4
	c-0.7-1.3-1.7-2.4-2.7-3.5c-2.1-2.3-2.1-4.9-1-7.6c1-2.4,0.6-3.4-1.5-4.8c-0.2-0.1-0.3-0.2-0.5-0.3c-3.4-2-3.5-2.9-0.8-5.9
	c1.8-2,1.6-4.3,1.6-6.7c0-0.9-0.7-1.2-1.2-0.5c-3.6,6.1-10.8,8-15,13.4c-2.7,3.5-6.2,6.1-9.6,8.7c-1.2,0.9-2.6,1.7-3.9,2.5
	c-0.6,0.4-1.3,0.9-1.9,0.6c-2-0.7-3.4,0.4-5.1,1.3c-1.6,0.8-3.5,0.9-5.3,1.4c-4.2,1-7.1,4.3-10.7,6.3c-1,0.6-1.9,1-3.1,1
	c-2,0-3.9,0.5-5.5,1.8c-1.2,0.9-2.7,1.6-4,2.3c-1.7,1-1.7,1.6,0,2.6c3.2,1.7,6.5,3.1,9.8,4.4c2.6,1,5.1,2.3,7.3,4
	c5.9,4.5,11.9,8.8,19.2,10.6c4.6,1.1,9.2,2.2,13.7,3.3c0.4,0.1,1.2-0.1,1,0.7c-0.1,0.5-0.7,0.4-1.1,0.3c-6.9-1.5-13.9-2.7-20.4-5.6
	c-3-1.3-5.9-3-8.4-5.1c-5.2-4.3-11.2-7.2-17.5-9.7c-2.7-1.1-5.3-2.3-7.3-4.7c-5-5.8-11.6-8.5-18.8-10.2c-2.2-0.5-4.5-1.1-6.7-1.6
	c-3.2-0.7-5.5-2.6-7.2-5.3c-3.1-4.7-8-7.4-12.2-10.9c-0.3-0.3-0.8-0.6-1.2-0.3c-0.5,0.4-0.2,0.9,0.1,1.3c1.4,2.7,1.6,5.7,2.2,8.6
	c0.2,1.2-0.1,2.4-0.8,3.4c-3.8,5.2-6.5,11-10.7,15.9c-4.4,5.2-9.8,9.3-15.3,13.2c-0.7,0.5-1.9,1.7-2.5,0.6c-0.5-0.9,1.1-1.2,1.8-1.7
	c6.8-4.2,12.9-9.4,17.6-15.9c2.8-3.9,5.2-8.2,7.8-12.3c0.8-1.2,1.1-2.5,0.9-3.9c-0.3-2.8-0.9-5.5-2.1-8c-0.5-1.1-0.9-1-1.8-0.3
	c-4.1,3.5-8.6,6.7-12.3,10.8c-1.5,1.6-3.7,2.2-5.7,3.2c-2,1-4,2-5.6,3.6c-1.2,1.2-2.7,1.5-4.3,1.6c-6.4,0.5-12.7,0.1-18.9-1.9
	c-2.8-0.9-3-0.7-4.4,1.9c-0.9,1.5-2,2.8-3.2,4.1c-1.8,2.1-2.6,4.3-2,7.2c0.8,3.3,0.4,6.4-3.1,8.3c-1.9,1.1-3.2,2.9-4.5,4.9
	c-2.3,3.8-4.9,7.5-7.5,11.1c-2.2,3-5.5,4.8-8.4,7c-0.3,0.2-0.7,0.5-1,0.1c-0.3-0.4,0.1-0.7,0.4-0.9c1.3-1,2.6-2.1,4-3
	c2.2-1.5,4-3.3,5.5-5.5c2.3-3.5,4.6-6.9,6.8-10.4c1.1-1.6,2.3-3.2,4-4.1c2.7-1.4,3.3-3.7,2.7-6.3c-0.9-4.2,0.1-7.6,3.3-10.4
	c0.4-0.4,0.8-1,1.1-1.5c0.2-0.4,0.8-0.9,0.4-1.3c-0.5-0.6-1,0.1-1.4,0.3c-3.9,2-7.5,4.4-10.5,7.6c-2,2-4.6,3.2-7,4.5
	c-5.7,2.9-10.6,6.9-15.8,10.5c-2.8,2-5.8,3.9-9.1,4.9c-3.9,1.1-7.8,0.7-11.4-1.2c-1.7-0.9-2.8-0.7-4,0.9c-2.6,3.5-5.4,6.9-8.9,9.7
	c-2,1.6-3.5,3.7-5.1,5.6c-1,1.2-1.4,2.7-0.6,4c1.8,3.1,0.6,5.6-1.1,8.1c-0.6,0.9-1.3,1.8-1.9,2.8c-0.2,0.3-0.5,0.7-0.9,0.4
	c-0.4-0.3-0.2-0.7,0-1c0.6-0.9,1.3-1.9,1.9-2.7c1.7-2.3,2.3-4.6,0.8-7.2c-1-1.8-0.5-3.3,0.7-4.8c2.4-2.9,4.9-5.8,8-8.1
	c1.8-1.3,2.8-3.3,4.2-4.9c0.2-0.3,0.5-0.6,0.1-1c-0.3-0.3-0.7-0.1-1,0.1c-2.4,1.2-4.8,2.5-7.3,3.8c-4.5,2.3-8.7,5.4-13.8,6.4
	c-4.5,0.8-9,1.8-13.4,3.2c-2.5,0.8-5.1,1.6-7.6,2.4c-0.5,0.1-1,0.3-1.5,0.3c-0.4,0.1-0.9,0.2-1.1-0.4c-0.1-0.6,0.4-0.6,0.8-0.8
	c4.4-1.3,8.9-2.3,13.2-3.9c2.4-0.9,4.9-0.5,7.4-1.1c4.9-1.2,9.2-3.6,13.6-5.9c4.6-2.4,9.2-4.8,13.8-7.3c0.8-0.4,1.4-0.6,2.3-0.2
	c6.7,3.7,13.1,2.7,19.2-1.4c0.4-0.3,0.9-0.5,1.3-0.8c6.8-5.4,14.3-9.9,21.8-14.2c0.5-0.3,1-0.6,1.3-1c4.2-4.4,9.5-7.2,14.7-10
	c1-0.5,2-0.5,3.1-0.2c5.2,1.6,10.5,2.7,16.1,2.5c3.3-0.1,6.5-0.1,9.1-2.7c1.9-1.8,4.6-2.5,6.9-3.6c1.1-0.6,2.3-1.1,3.1-2
	c3.8-4.8,9.1-7.9,13.4-12c0.8-0.8,1.5-0.9,2.6-0.4c5.3,2.8,10,6.3,13.3,11.3c2.3,3.6,5.5,5.3,9.6,6.1c4.2,0.8,8.4,1.9,12.3,3.6
	c3.8,1.7,7.5,3.7,10.3,6.9c0.8,0.9,1.6,1.1,2.6,0.5c1.9-1.1,4.1-1.9,5.8-3.3c0.9-0.7,1.9-1.2,3.1-1.2c3.1,0,5.7-1.4,7.9-3.3
	c3.5-3.1,7.8-4.4,12.3-5.5c0.6-0.1,1.1-0.2,1.5-0.6c1.1-1.1,2.3-1.3,3.8-1c1.1,0.2,2-0.1,3-0.7c5.6-3.6,10.4-8.1,14.9-12.9
	c2-2.1,4-4,6.7-5.2c1.5-0.7,2.7-1.9,3.7-3.3c0.6-0.9,1.2-1.7,1.9-2.5c1.6-1.7,3.3-2.3,5.8-1.7c5.1,1.2,9.8,0.1,14.1-2.9
	c3.4-2.4,6.8-4.8,10-7.5c1.1-1,2.2-2.2,3.9-2c4,0.6,6.5-1.7,8.7-4.4c3.3-4,7.2-7.4,11.5-10.3c4.3-2.9,7.8-6.3,10.5-10.8
	c2-3.3,4.6-6.2,7.5-8.8c5.4-4.8,9.8-10.3,13.9-16.3c1.4-2,1.8-2.1,4-1c2.1,1,3.6,2.6,4.9,4.4c2.3,3.3,5.2,6,7.6,9.2
	c1.5,1.9,3.6,3.4,6.1,4.1c3.6,1.1,6.5,3.3,9.1,6c2.3,2.4,4.6,4.7,7.2,6.7c4.2,3.3,7.5,7.4,10.4,11.9c1.5,2.3,3.1,4.3,5.4,5.8
	c4,2.7,6.9,6.5,9.3,10.6c2.3,3.9,5.8,6.8,8.2,10.6c0.3,0.5,0.9,0.8,1.5,1c5.2,1.9,9,5.4,11.4,10.3c1.2,2.4,2.7,4.4,4.8,6.1
	c4.4,3.5,7.8,8,12,11.7c3.5,3.1,5.2,3.4,9.2,1.2c3.1-1.7,6.3-3.1,9.9-3.4c1.6-0.1,3.4-0.7,4.7-1.6c3.5-2.2,7-1.8,10.5-0.3
	c1.7,0.7,3,0.5,4.5-0.5c3.5-2.5,7.1-4.8,10.6-7.3c1.4-1,2.5-1,3.8,0c2.4,1.7,4.7,3.7,6.7,5.9c1.6,1.8,3.4,3.4,5.3,5
	c1.5,1.2,3.1,1.9,5.1,2c2.3,0,4.4,0.8,6,2.6c2.8,3.2,6,6.1,9.5,8.6c2.5,1.8,4.1,4.5,6.1,6.8c1,1.2,2.1,2.3,3.1,3.4
	c1.1,1.2,2.2,1.4,3.6,0.4c2.8-2,5.6-3.9,8.5-5.8c6.3-4.1,12.4-8.7,18.5-13.2c1.4-1,2.7-1.5,4.3-0.6c2.6,1.5,5.1,1,7.6-0.4
	c4.1-2.4,7.7-5.5,11.1-8.8c2.9-2.9,6.1-5.5,9.6-7.6c2.9-1.8,5.2-4.4,7.8-6.6c3.1-2.6,3.3-2.7,6.7-0.5c1.3,0.8,2.6,1.7,3.9,2.6
	c1,0.7,2,1.4,2.5,2.5c1.7,4,5,6.9,7.2,10.6c1.6,2.6,4.3,4.1,6.8,5.7c1.3,0.9,2.6,1.9,3.7,3.1c2.4,2.5,5.2,4.4,8.4,5.8
	c2.3,0.9,4.2,2.5,6.2,3.7c2.6,1.6,5.3,3,8.4,2.6c5.2-0.7,9.5,1.4,13.5,4.1c6.3,4.2,13.1,7.3,20.1,10c2.8,1.1,5.9,0.9,8.7,2
	c4.5,1.7,8.9,3.7,13.5,5.2c2.2,0.7,4.5,1.5,6.7,2.2C1918.2,1000.6,1918.2,1001.1,1918.2,1001.6z M1538.7,940.6
	c-0.2-0.9-0.9-0.7-1.6-0.5c-2.9,1-4.6,3.4-6.6,5.6c-0.2,0.2-0.4,0.5-0.1,0.8c0.3,0.3,0.6,0.2,0.8,0c0.5-0.5,1.1-1,1.6-1.6
	c1.2-1.6,2.2-3.3,4.6-3.2C1538.1,941.9,1538.5,941.4,1538.7,940.6z M1543.8,940.8c0-0.4,0-0.7-0.4-0.8c-0.6-0.2-3.8,1.6-3.9,2.2
	c-0.1,0.5,0.3,0.8,0.7,1c0.5,0.3,1.1,0.6,1.7,0.2C1542.8,942.7,1543.4,941.8,1543.8,940.8z"/>
<path d="M1261.7,1050c-4.6-1.1-9.2-2.1-13.7-3.3c-7.3-1.8-13.4-6.1-19.2-10.6c-2.2-1.7-4.6-3-7.3-4c-3.4-1.3-6.7-2.7-9.8-4.4
	c-1.1-0.6-1.5-1.1-1.1-1.6c-0.5-0.3-1-0.6-1.5-1.1c-0.5-0.1-0.9-0.3-1.3-0.8c-2.8-3.2-6.4-5.2-10.3-6.9c-3.9-1.8-8.1-2.8-12.3-3.6
	c-4-0.8-7.2-2.5-9.6-6.1c-3.3-5-8-8.6-13.3-11.3c-1.1-0.6-1.8-0.4-2.6,0.4c-4.4,4.1-9.6,7.3-13.4,12c-0.8,1-2,1.5-3.1,2
	c-2.3,1.2-5,1.8-6.9,3.6c-2.6,2.6-5.8,2.6-9.1,2.7c-5.6,0.2-10.9-0.9-16.1-2.5c-1.1-0.3-2-0.3-3.1,0.2c-5.3,2.8-10.6,5.6-14.7,10
	c-0.4,0.4-0.9,0.7-1.3,1c-7.5,4.4-15,8.8-21.8,14.2c-0.4,0.3-0.8,0.5-1.3,0.8c-6.1,4.1-12.5,5.1-19.2,1.4c-0.8-0.5-1.5-0.2-2.3,0.2
	c-4.6,2.4-9.2,4.9-13.8,7.3c-4.4,2.3-8.7,4.7-13.6,5.9c-2.4,0.6-4.8,0.6-7.4,1.1c-6.2,1.4-50.8,22.6-55.2,23.9
	c-0.4,0.1-0.9,0.2-0.8,0.8c0.1,0.6,0.7,0.4,1.1,0.4c0.5-0.1,1-0.2,1.5-0.3c2.5-0.8,47.1-21.6,49.7-22.4c4.4-1.3,8.9-2.3,13.4-3.2
	c5.1-0.9,9.3-4.1,13.8-6.4c2.4-1.2,4.8-2.5,7.3-3.8c0.3-0.2,0.7-0.4,1-0.1c0.4,0.3,0.1,0.7-0.1,1c-1.5,1.6-2.5,3.6-4.2,4.9
	c-3,2.3-5.6,5.1-8,8.1c-1.2,1.5-1.7,3-0.7,4.8c1.5,2.6,0.9,5-0.8,7.2c-0.7,0.9-1.3,1.8-1.9,2.7c-0.2,0.3-0.4,0.7,0,1
	c0.4,0.3,0.7-0.1,0.9-0.4c0.6-0.9,1.3-1.8,1.9-2.8c1.6-2.5,2.9-5,1.1-8.1c-0.8-1.3-0.5-2.8,0.6-4c1.7-1.9,3.2-4,5.1-5.6
	c3.5-2.8,6.3-6.2,8.9-9.7c1.2-1.5,2.3-1.7,4-0.9c3.6,1.8,7.5,2.3,11.4,1.2c3.4-1,6.3-2.9,9.1-4.9c5.2-3.6,10.1-7.7,15.8-10.5
	c2.5-1.2,5.1-2.5,7-4.5c3.1-3.1,6.7-5.6,10.5-7.6c0.5-0.2,0.9-0.9,1.4-0.3c0.4,0.5-0.1,0.9-0.4,1.3c-0.3,0.5-0.6,1.1-1.1,1.5
	c-3.1,2.8-4.2,6.3-3.3,10.4c0.6,2.6,0,4.8-2.7,6.3c-1.7,0.9-2.9,2.4-4,4.1c-2.3,3.5-4.6,6.9-6.8,10.4c-1.5,2.2-3.3,4-5.5,5.5
	c-1.4,1-2.7,2-4,3c-0.3,0.2-0.7,0.5-0.4,0.9c0.3,0.4,0.7,0.1,1-0.1c2.9-2.2,6.2-3.9,8.4-7c2.6-3.6,5.2-7.3,7.5-11.1
	c1.2-2,2.5-3.8,4.5-4.9c3.5-2,3.8-5,3.1-8.3c-0.7-2.9,0.1-5.1,2-7.2c1.2-1.3,2.3-2.6,3.2-4.1c1.4-2.6,1.6-2.8,4.4-1.9
	c6.2,2,12.5,2.3,18.9,1.9c1.6-0.1,3.1-0.5,4.3-1.6c1.6-1.6,3.6-2.6,5.6-3.6c1.9-0.9,4.2-1.5,5.7-3.2c3.7-4.1,8.1-7.3,12.3-10.8
	c0.8-0.7,1.2-0.8,1.8,0.3c1.2,2.6,1.9,5.2,2.1,8c0.1,1.4-0.2,2.7-0.9,3.9c-2.6,4.1-5,8.3-7.8,12.3c-4.7,6.5-10.7,11.7-17.6,15.9
	c-0.7,0.4-2.3,0.8-1.8,1.7c0.6,1,1.8-0.1,2.5-0.6c5.6-3.9,10.9-8,15.3-13.2c4.2-4.9,6.9-10.8,10.7-15.9c0.7-0.9,1-2.2,0.8-3.4
	c-0.5-2.9-0.8-5.9-2.2-8.6c-0.2-0.4-0.6-0.9-0.1-1.3c0.4-0.3,0.9,0,1.2,0.3c4.2,3.5,9.1,6.1,12.2,10.9c1.7,2.6,4,4.5,7.2,5.3
	c2.2,0.5,4.5,1.1,6.7,1.6c7.2,1.7,13.8,4.5,18.8,10.2c2,2.3,4.6,3.6,7.3,4.7c6.3,2.5,12.3,5.4,17.5,9.7c2.5,2.1,5.4,3.8,8.4,5.1
	c6.5,2.9,13.5,4.1,20.4,5.6c0.4,0.1,1,0.2,1.1-0.3C1262.8,1049.9,1262.1,1050.1,1261.7,1050z"/>
<path d="M1918.2,1057.9c-3-0.8-5.8-1.9-8.5-3.1c-3.5-1.6-7.1-2.6-10.7-3.7c-2.1-0.6-3.9-1.5-5.4-3.1c-1.6-1.7-3.6-2.9-5.8-3.5
	c-2.5-0.7-4.4-1.8-5.4-4.5c-1.6-4-5-6.4-8.8-8.2c-8.6-4-17.2-7.9-25.8-12c-3-1.4-5.9-2.9-9-4c-1-0.3-1.8-1-2.5-1.9
	c-4-5.4-9.5-8.6-15.3-11.6c-0.5-0.3-1.7-0.3-1.3-1.2c0.3-0.8,1.3-0.1,1.8,0.2c5.7,2.8,11.3,5.8,15.1,11.2c1.3,1.7,3,2.5,5,3
	c0.4,0.1,0.7,0.3,1,0c0.3-0.4,0-0.8-0.3-1.2c-1.1-1.6-2.3-3.3-3.7-4.7c-0.4-0.4-1-0.7-1-1.5c0.5-0.5,0.8,0,1.1,0.3
	c1.7,1.9,3.6,3.6,5,5.8c1.6,2.5,3.8,4.3,6.6,5.5c8.2,3.7,16.3,7.5,24.4,11.5c4,2,7.5,4.7,9.2,9.1c0.9,2.2,3,2.7,4.9,3.4
	c2.3,0.9,4.5,2,6.2,3.9c1.7,2,4.2,2.3,6.5,2.9c0.8,0.2,1.8,1.1,2.4,0.2c0.5-0.9-0.7-1.4-1.2-2.1c-2-3-4.3-5.7-6.1-8.8
	c-1.3-2.2-3.4-4.1-4-6.6c-0.9-4.1-3.9-6.4-6.6-9.1c-0.5-0.5-1.3-0.9-1.4-1.8c0.6-0.4,0.9,0,1.2,0.3c0.5,0.5,0.9,1,1.5,1.4
	c2.8,2.3,5,4.8,6.3,8.4c2.2,6,6.7,10.7,10.4,15.9c3.6,5.1,9.1,6.5,14.4,8.5C1918.2,1057.1,1918.2,1057.5,1918.2,1057.9z"/>
<path d="M1404.2,963.8c1.4-0.1,2-0.7,2.7-1c11.4-5.7,21.7-13,32.3-19.9c0.7-0.5,1.5-0.9,2.2-1.3c0.4-0.2,1-0.7,1.3-0.1
	c0.4,0.6-0.3,0.9-0.7,1.1c-2.5,1.4-4.7,3.3-7,4.9c-4.7,3.3-9.4,6.7-14.1,10.1c-0.4,0.3-1.2,0.6-0.8,1.2c0.4,0.6,1,0,1.4-0.3
	c6-3.8,12-7.6,17.8-11.6c0.5-0.4,1.2-1.5,1.8-0.6c0.4,0.6-0.7,1.2-1.3,1.6c-5.5,3.8-11,7.6-16.5,11.5c-2.6,1.8-5.1,3.8-7.6,5.7
	c-0.3,0.2-0.8,0.4-0.7,1.1c0.9,0.1,1.5-0.4,2.2-0.8c8.5-5.2,17.4-9.8,25.7-15.4c0.4-0.2,0.8-0.8,1.2-0.1c0.3,0.5-0.3,0.8-0.6,1
	c-8.5,5.2-15.5,12.5-23.5,18.4c-0.8,0.6-1.6,1.1-2.1,2c0.7,0.4,1.1-0.1,1.4-0.3c7.6-5,15.9-8.9,23.5-14c0.7-0.5,1.3-0.9,2-1.4
	c0.4-0.3,0.9-0.8,1.3-0.3c0.3,0.5-0.3,0.9-0.7,1.1c-2.1,1.7-4.2,3.3-6.3,4.9c-4.3,3.4-8.6,6.7-12.9,10.1c-0.1,0.1-0.3,0.2-0.4,0.3
	c-0.3,0.3-0.9,0.5-0.5,1c0.3,0.4,0.7,0,1-0.1c3.1-1.7,6.2-3.5,9.2-5.2c3-1.7,6.1-3.4,9.1-5.1c0.3-0.2,0.7-0.7,1.1-0.3
	c0.5,0.5,0,0.9-0.4,1.3c-2.2,1.8-4.4,3.6-6.6,5.4c-0.8,0.7-1.9,1.1-2.5,2.2c0.7,0.5,1.1,0.1,1.5-0.2c3.6-2.5,7.6-4.2,11.5-6.1
	c0.4-0.2,0.9-0.7,1.3-0.1c0.4,0.5-0.2,0.9-0.6,1.2c-2.8,2.5-5.7,5-8.5,7.5c-0.4,0.3-1.2,0.6-0.8,1.2c0.4,0.6,1,0,1.5-0.3
	c2-1.1,3.9-2.2,6.1-2.7c0.5-0.1,1-0.5,1.3,0.1c0.2,0.5-0.1,0.8-0.4,1.1c-1.2,1.2-2.5,2.4-3.7,3.6c-0.3,0.3-0.8,0.6-0.5,1
	c0.3,0.4,0.8,0.1,1.2-0.1c1.5-0.8,3.1-1.6,4.6-2.4c0.4-0.2,0.8-0.5,1.2-0.1c0.5,0.5,0.1,0.9-0.2,1.3c-0.6,0.8-1.2,1.6-1.8,2.3
	c-0.3,0.3-0.7,0.6-0.3,1.1c0.3,0.3,0.7,0.1,1,0c0.9-0.3,2.3-1.4,2.6-0.5c0.4,1.1-1.4,1.1-2.3,1.5c-0.8,0.4-1.6,0.6-2.4,0.9
	c-0.4,0.2-0.8,0.4-1.2,0c-0.5-0.5,0-0.9,0.2-1.3c0.6-1.1,1.6-1.9,2-3c-0.3-0.4-0.6-0.2-0.9-0.1c-2.1,1.2-4.2,2.4-6.3,3.6
	c-0.4,0.2-0.9,1-1.4,0.4c-0.6-0.7,0.3-1.1,0.6-1.5c1.5-1.8,3-3.5,4.7-5.1c0.3-0.3,1-0.7,0.5-1.2c-0.4-0.4-0.8,0.1-1.1,0.3
	c-2.6,1.4-5.2,2.9-7.8,4.3c-0.4,0.2-0.8,0.6-1.1,0.1c-0.3-0.5,0.1-0.8,0.4-1.1c2-2.8,4.8-4.8,7.4-7.1c0.7-0.6,1.6-1,1.9-2
	c-0.5-0.5-0.9-0.2-1.2,0c-5.3,3.2-10.9,6-16.1,9.4c-0.4,0.3-0.9,0.7-1.3,0.1c-0.4-0.5,0.2-0.9,0.6-1.2c3.3-2.6,6.6-5.3,9.9-7.9
	c0.7-0.5,1.5-0.9,1.8-1.8c-0.8-0.5-1.3,0.2-1.8,0.5c-5,3.1-10.1,6.1-15.4,8.6c-0.5,0.3-1.2,0.8-1.7,0.2c-0.4-0.7,0.5-1,0.9-1.4
	c3.4-3.1,6.9-6.2,10.8-8.9c0.4-0.3,1-0.6,1-1.3c-0.6-0.4-1,0.1-1.5,0.4c-5.8,3.4-11.6,6.9-17.5,10.3c-0.8,0.5-2,1.7-2.7,0.8
	c-0.6-0.9,1-1.4,1.7-2c4.5-3.8,9.1-7.6,13.6-11.3c0.3-0.2,0.6-0.5,0.8-0.7c0.3-0.4,1.2-0.6,0.8-1.2c-0.5-0.6-1,0.2-1.4,0.4
	c-7,4-13.9,8-20.8,12c-0.5,0.3-1.1,0.8-1.4,0.1c-0.3-0.5,0.5-0.8,0.8-1.1c3.6-2.8,7.2-5.6,10.8-8.3c0.4-0.3,1-0.6,0.6-1.1
	c-0.4-0.5-0.9,0-1.3,0.3c-5.1,3-10.3,6.1-15.4,9.1c-0.5,0.3-1.1,0.6-1.6,1c-0.3,0.2-0.6,0.3-0.8-0.1c-0.2-0.3,0-0.6,0.3-0.8
	c0.4-0.3,0.9-0.5,1.3-0.8c5.6-3.6,11.1-7.3,16.7-10.9c0.6-0.4,1.4-0.8,1.6-1.8c-1.1,0-1.7,0.7-2.5,1.1c-6,3.2-12,6.5-18,9.7
	c-0.2,0.1-0.3,0.2-0.5,0.2c-0.4,0.2-0.9,0.6-1.3,0c-0.3-0.5,0.3-0.8,0.6-1c1.3-0.9,2.6-1.8,3.8-2.7c0.5-0.4,1.2-0.6,1.3-1.5
	c-1.1-0.1-2,0.5-2.7,1.1c-2.2,1.8-4.9,2.7-7.4,3.8c-0.4,0.2-0.9,0.5-1.2,0c-0.3-0.6,0.4-0.9,0.8-1c3.9-1.3,7.2-3.9,10.9-5.6
	c1.6-0.7,3.1-1.8,4.7-2.7c0.5-0.3,1.2-0.8,1.6,0c0.4,0.6-0.3,1-0.7,1.3C1406.4,961.8,1405.2,962.3,1404.2,963.8z"/>
<path d="M1472.4,1027c1.4-0.1,2.3-1,3.3-1.5c5.7-2.8,11.5-5.6,17.2-8.4c0.4-0.2,0.9-0.5,1.1,0c0.2,0.6-0.3,0.9-0.8,1.1
	c-6.1,3.4-11.4,8-17.1,11.9c-0.7,0.5-1.5,0.8-1.9,1.8c0.8,0.3,1.3-0.2,1.9-0.5c4.3-2.2,8.5-4.6,13-6.4c0.6-0.2,1.3-0.9,1.8,0
	c0.4,0.8-0.4,1.2-0.9,1.6c-6.8,5.4-13.6,10.8-20.4,16.3c-2.4,1.9-4.8,4-7.2,5.9c-0.4,0.4-0.8,1.1-1.8,0.4c8.8-7.7,18-14.7,27.2-22.1
	c-1-0.7-1.4,0-1.9,0.2c-5.5,3.3-11.5,5.5-17,8.9c-0.4,0.2-0.8,0.5-1.1,0.1c-0.4-0.7,0.3-1,0.7-1.3c4.3-3.6,8.9-7,13.5-10.3
	c1-0.7,2.2-1.2,2.9-2.4c-0.9-0.3-1.4,0.3-1.9,0.5c-4.7,2.7-9.6,4.9-14.5,7.2c-0.5,0.2-1.1,0.8-1.5,0.2c-0.4-0.8,0.5-1,0.9-1.4
	c4.7-3.7,9.4-7.5,14.6-10.6c0.5-0.3,0.9-0.6,1.2-1.3c-0.9-0.1-1.5,0.4-2.2,0.7c-3.6,1.8-7.2,3.5-10.9,5.3c-0.5,0.3-1.2,0.9-1.6,0.1
	c-0.3-0.7,0.5-0.8,0.9-1.1c8.8-6.1,17.2-12.6,26.3-18.3c0.3-0.2,0.7-0.4,0.7-1c-1.4,0.3-2.4,1.2-3.6,1.7c-1.4,0.7-2.8,1.5-4.3,2.3
	c-0.5,0.3-1.2,0.9-1.6,0.2c-0.4-0.6,0.4-0.9,0.8-1.2c6.5-5.6,13.5-10.7,20.4-16c4.3-3.3,8.6-6.6,12.8-9.9c0.4-0.3,0.9-0.5,0.8-1.1
	c-0.2-0.2-0.5-0.2-0.7-0.1c-5.6,3.3-11.5,6-16.9,9.5c-0.2,0.1-0.3,0.2-0.5,0.3c-0.4,0.2-0.8,0.6-1.2,0.1c-0.3-0.5,0.1-0.8,0.4-1.1
	c2.3-2.6,5-4.8,7.7-7c3.1-2.4,6.1-4.9,9.1-7.4c0.4-0.3,1-0.6,0.8-1.5c-1.2,0.3-2,1.2-3,1.8c-0.5,0.3-1.1,1-1.6,0.4
	c-0.6-0.7,0.3-1,0.8-1.4c2.4-2.1,4.8-4.1,7.2-6.2c0.3-0.3,0.7-0.5,0.8-1.1c-1.1-0.1-1.7,0.7-2.6,1.1c-0.4,0.2-0.7,0.3-1,0
	c-0.3-0.4,0.1-0.7,0.3-0.9c2.4-2.3,4.9-4.6,7.3-6.9c0.3-0.3,0.7-0.8,1.1-0.4c0.5,0.5-0.1,0.9-0.5,1.2c-1.1,1.1-2.3,2.1-3.4,3.2
	c-0.3,0.3-0.8,0.6-0.5,1c0.3,0.4,0.8,0.1,1.2,0c0.1,0,0.2-0.1,0.3-0.2c0.4-0.2,0.9-0.6,1.3,0c0.4,0.6-0.1,1-0.6,1.4
	c-1.6,1.2-3.1,2.5-4.7,3.7c-0.3,0.3-0.7,0.5-1.1,0.8c-0.3,0.3-1.1,0.6-0.7,1.1c0.4,0.5,0.9-0.1,1.3-0.3c1.6-0.9,3.2-1.9,4.8-2.8
	c0.4-0.2,0.9-0.8,1.3-0.2c0.5,0.7-0.2,1-0.7,1.3c-2.9,1.9-5.5,4-8.2,6.2c-4,3.3-8.1,6.6-12.2,9.9c-0.3,0.3-0.5,0.6-0.8,0.9
	c0.6,0.5,1,0.1,1.4-0.2c7-4.2,14.4-7.9,21.5-11.9c0.3-0.2,0.7-0.4,1-0.4c0.2,0,0.5,0.1,0.6,0.3c0.1,0.2,0,0.5-0.1,0.7
	c-0.2,0.2-0.5,0.4-0.7,0.6c-11.5,8.3-22.6,17.1-33.8,25.8c-1.2,1-2.7,1.7-3.8,2.9c0.4,0.6,0.8,0.3,1.2,0.1c4.9-2.8,10.1-5,14.8-8.2
	c0.4-0.3,1-1,1.4-0.3c0.4,0.6-0.4,0.9-0.8,1.2c-6.6,5.1-13.8,9.4-20.7,14c-4.1,2.7-8.2,5.6-12.2,8.5c-0.4,0.3-0.9,0.4-0.9,1.1
	c0.4,0.4,0.7,0,1-0.1c6.8-3.1,13.4-6.7,20-10.3c0.2-0.1,0.4-0.3,0.6-0.4c0.3-0.2,0.7-0.4,1,0c0.3,0.4-0.1,0.7-0.4,0.9
	c-0.2,0.2-0.5,0.3-0.8,0.5c-8.5,5-16.7,10.5-24.8,16.2C1473.1,1025.9,1472.5,1026.1,1472.4,1027z"/>
<path d="M1508.6,1053.5c0.6,0.3,1-0.2,1.3-0.5c7.4-5.2,15.1-9.7,22.7-14.6c0.3-0.2,0.8-0.7,1.1-0.3c0.6,0.7-0.2,1.1-0.7,1.5
	c-5.4,4.7-10.8,9.3-16.2,14c-2.5,2.2-5,4.4-7.5,6.7c-0.3,0.3-0.9,0.6-0.7,1.2c0.3,0.3,0.6,0.2,0.8,0c4.1-2.7,8.3-5.4,12.5-8.2
	c4.9-3.3,10-6.2,15-9.3c0.4-0.2,0.8-0.5,1.2-0.1c0.4,0.5-0.1,0.8-0.4,1.1c-1,0.9-2,1.9-3.1,2.7c-4.3,3.6-8.7,7.3-13,10.9
	c-0.2,0.2-0.5,0.4-0.4,0.8c0.6,0.5,1-0.1,1.4-0.4c5.6-3.5,11.2-6.9,16.8-10.4c0.5-0.3,1.1-0.8,1.5-0.3c0.6,0.7-0.2,1.1-0.7,1.5
	c-4,3.6-8.1,7.1-12.2,10.7c-5.5,4.8-10.3,10.3-15.5,15.4c-0.5,0.5-0.7,1-1.6,0.4c8-8.3,16-16.6,25.1-23.8c-0.9-0.7-1.3-0.2-1.6,0.1
	c-5.4,3.5-10.9,7-16.3,10.4c-0.4,0.3-1,0.9-1.4,0.2c-0.4-0.6,0.3-0.9,0.7-1.3c4.1-4.5,8.8-8.4,13.5-12.3c0.4-0.3,1-0.5,1-1.2
	c-0.8-0.5-1.1,0.2-1.6,0.5c-8.4,5.5-16.6,11.3-25.2,16.6c-0.2,0.1-0.4,0.3-0.6,0.4c-0.3,0.2-0.7,0.4-1,0.1c-0.3-0.4,0-0.7,0.3-0.9
	c3.3-3.3,6.4-6.8,10-9.8c3.9-3.3,7.9-6.7,11.8-10c0.6-0.5,1.4-0.8,1.5-2.1c-2.3,1.5-4.4,2.8-6.5,4.1c-4.5,3-9,6-13.5,9
	c-1.2,0.8-2.2,1.8-3.4,2.7c-0.4,0.3-0.8,0.8-1.3,0.4c-0.6-0.6,0.1-1,0.4-1.4c3.1-3.1,6.1-6.2,9.2-9.2c3.6-3.5,7.4-6.8,11.3-10
	c0.4-0.3,0.9-0.6,1-1.4c-0.8-0.3-1.2,0.3-1.7,0.7c-8.1,6-16.9,11.2-25.5,16.5c-0.4,0.2-0.8,0.7-1.1,0.1c-0.3-0.5,0.2-0.8,0.5-1.1
	c5.9-6,12.2-11.5,18.6-17c2.9-2.5,5.7-5,8.3-7.8c0.4-0.4,0.7-1.2,1.3-0.6c0.6,0.6-0.3,0.9-0.6,1.3c-5.3,5.4-11.2,10.1-16.8,15.1
	c-1.8,1.6-3.6,3.2-5.4,4.9c-0.3,0.3-0.8,0.6-0.5,1c0.3,0.5,0.8,0.1,1.1-0.1c9.1-5.9,18.3-11.8,27.4-17.7c0.4-0.3,0.9-1.1,1.4-0.4
	c0.4,0.5-0.4,0.9-0.8,1.3c-6.9,6.1-13.7,12.3-20.6,18.4C1509.4,1052.2,1508.6,1052.5,1508.6,1053.5z"/>
<path d="M1558.3,980.1c3.1-1.1,6.1-1.3,9.1-1.5c0.5,0,1.1-0.4,1.3,0.3c0.2,0.8-0.6,0.8-1.1,1c-2.4,0.6-4.5,1.7-6.7,2.7
	c-0.4,0.2-0.9,0.3-0.7,0.9c0.2,0.4,0.7,0.2,1,0.1c2.8-1,5.7-1.1,8.6-1.3c0.4,0,0.9-0.2,1.1,0.3c0.2,0.6-0.4,0.7-0.7,0.9
	c-2.2,1.1-4.3,2.2-6.5,3.3c-0.3,0.2-0.8,0.3-0.7,0.8c0.2,0.6,0.7,0.4,1.1,0.2c2.9-1,6-0.8,9-1.3c0.4-0.1,1.1-0.3,1.2,0.4
	c0.1,0.6-0.6,0.8-1,0.9c-1.8,0.5-3.2,1.6-4.8,2.5c-0.3,0.2-0.9,0.4-0.6,1c0.2,0.4,0.6,0.3,1,0.2c2.9-0.4,5.8-0.8,8.7-1.2
	c0.5-0.1,1.2-0.4,1.5,0.3c0.2,0.7-0.5,0.9-1,1.1c-0.6,0.3-1.1,0.5-1.7,0.8c-0.4,0.3-1.3,0.4-1.1,1c0.2,0.7,0.9,0.3,1.4,0.2
	c1.5-0.2,2.9-0.4,4.4-0.6c0.4-0.1,1.1-0.4,1.2,0.3c0.1,0.5-0.5,0.6-0.8,0.9c-0.6,0.5-2.1,0.5-1.7,1.5c0.3,0.8,1.4,0,2.2-0.1
	c1.5-0.1,3.1,0.1,4.6-0.2c0.4-0.1,0.8,0,0.9,0.4c0.2,0.5-0.2,0.8-0.7,0.9c-0.1,0-0.1,0-0.2,0.1c-0.8,0.6-2.6,0.2-2.4,1.5
	c0.2,0.8,1.9-0.2,2.9,0c0.1,0,0.1,0,0.2,0c0.9,0.1,2.1-1,2.5,0c0.4,1-1.1,0.9-1.8,1.4c-0.3,0.2-0.6,0.3-0.4,0.7
	c0.2,0.4,0.5,0.3,0.8,0.3c1.3-0.1,2.6-0.1,3.9-0.2c0.4,0,0.8-0.1,0.9,0.4c0.1,0.4-0.3,0.6-0.6,0.8c-0.8,0.3-1.6,0.7-2.4,1
	c-0.3,0.2-0.7,0.3-0.5,0.8c0.1,0.3,0.5,0.3,0.8,0.3c2.2-0.2,4.3-0.5,6.5-0.7c0.5-0.1,1.2-0.5,1.4,0.3c0.2,0.6-0.5,0.7-1,0.9
	c-0.5,0.2-1.2,0.3-1,1.1c0.2,0.6,0.8,0.3,1.3,0.3c0.6-0.1,1.1-0.2,1.7-0.2c0.6,0,1,0.3,0.7,0.9c-0.6,1.1-0.5,1.5,0.9,1.2
	c1.5-0.3,1.5,1.6,2.7,2c0.2,0.1-0.2,0.7-0.6,0.6c-1,0-2,0.4-2.7-0.7c-0.5-0.6-1.1-0.7-1.8-0.8c-0.6,0-1.2-0.3-1-1
	c0.4-1.5-0.4-1.2-1.3-0.9c-0.9,0.3-1.8,0.5-2.7,0.7c-0.4,0.1-0.9,0-1.1-0.4c-0.2-0.5,0.2-0.8,0.5-1.1c0.5-0.5,1.7-0.7,1.3-1.5
	c-0.4-0.8-1.4,0-2.2,0c-1.3,0.1-2.6,0.3-3.9,0.4c-0.4,0-0.9,0.1-1.1-0.4c-0.2-0.5,0.2-0.8,0.5-1.1c0.3-0.2,0.6-0.5,0.9-0.7
	c0.2-0.2,0.4-0.4,0.3-0.8c-0.1-0.4-0.5-0.3-0.8-0.3c-0.5,0-1,0.1-1.5,0.1c-1,0-1.9,0-0.9-1.4c0.2-0.3,0.4-0.6,0.2-0.8
	c-0.3-0.4-0.7-0.2-1-0.1c-0.9,0.2-1.8,0.4-2.7,0.6c-0.4,0.1-0.9,0-1.1-0.4c-0.2-0.5,0.2-0.8,0.5-1.1c0.4-0.6,1.9-0.7,1.4-1.6
	c-0.4-0.8-1.6-0.1-2.4,0c-0.9,0.1-1.7,0.4-2.6,0.5c-0.5,0.1-1.1,0.2-1.3-0.4c-0.2-0.6,0.3-0.9,0.6-1.2c0.4-0.4,1.2-0.5,1-1.2
	c-0.3-0.8-1.1-0.2-1.6-0.1c-1.4,0.3-2.9,0.8-4.3,1.2c-0.4,0.1-0.9,0.4-1.1-0.1c-0.3-0.5,0.2-0.8,0.6-1c0.8-0.6,1.7-1.3,2.5-1.9
	c0.3-0.2,0.9-0.4,0.7-1c-0.2-0.6-0.7-0.3-1.1-0.3c-2.4,0.4-4.8,0.8-7.2,1.2c-0.5,0.1-1.1,0.6-1.5-0.1c-0.3-0.6,0.3-0.8,0.7-1.2
	c1-1,2-2,3.2-2.8c0.3-0.2,0.7-0.4,0.4-0.9c-0.2-0.3-0.5-0.2-0.8-0.2c-2.4,0.5-4.8,1.1-7.3,1.6c-0.5,0.1-1.1,0.7-1.5-0.1
	c-0.3-0.7,0.3-1,0.7-1.3c1.3-1.2,2.8-2.2,4.5-3c0.6-0.3,1.3-0.4,1.7-1.3c-0.7-0.6-1.5-0.2-2.2-0.1c-2.2,0.6-4.4,1.2-6.6,1.8
	c-0.5,0.1-1.2,0.3-1.5-0.3c-0.2-0.6,0.4-0.8,0.8-1.1c1.7-1.1,3.4-2.2,5-3.5c-1.9-0.2-3.5,0.8-5.3,1.1c-0.8,0.1-2,1-2.4,0.2
	c-0.5-1,0.9-1.4,1.6-1.9c1.6-1.2,3.3-2.3,5.2-3.6c-1.5-0.4-2.3,0.3-3.3,0.5c-0.4,0.1-0.9,0.3-1.2-0.2c-0.4-0.6,0.2-0.9,0.6-1.2
	c1.3-0.9,2.6-1.9,4.1-2.6c0.4-0.2,0.9-0.4,0.7-0.9c-0.2-0.6-0.7-0.3-1.1-0.2c-1,0.2-2.1,0.5-3.1,0.7c-0.6,0.1-1.2,0.1-1.4-0.5
	c-0.2-0.6,0.4-0.8,0.8-1.1c1.3-0.7,2.5-1.6,3.9-2.1c0.3-0.1,1-0.2,0.8-0.8c-0.2-0.5-0.7-0.3-1.1-0.3c-1,0.1-2,0.3-3,0.4
	c-0.5,0-1.1,0.1-1.2-0.6c-0.1-0.5,0.3-0.8,0.7-1c0.6-0.4,1.2-0.8,1.8-1.3c0.4-0.3,1.2-0.5,1.1-1.1c-0.1-0.8-1.1,0-1.4-0.8
	c1.2-1.2,2.6-0.9,4-0.5c0.8,0.2,0.9,0.9,0.1,1.3c-0.7,0.4-1.4,0.8-2.1,1.2c-0.4,0.2-1.1,0.3-0.9,1c0.2,0.6,0.8,0.3,1.3,0.4
	c0.7,0,1.5,0,2.2,0.1c0.6,0,1.3,0,1.4,0.6c0.2,0.8-0.5,1-1.1,1.3c-1,0.4-2,0.8-2.9,1.2c-0.4,0.2-1,0.3-0.8,0.8
	c0.1,0.6,0.7,0.3,1.1,0.3c1.2-0.1,2.5-0.1,3.7-0.1c0.5,0,1.1-0.1,1.1,0.6c0,0.5-0.4,0.7-0.9,0.8c-1.3,0.5-2.7,1-4,1.6
	c-0.5,0.2-1.3,0.3-1.1,1c0.2,0.7,1,0.3,1.5,0.3c1.2-0.2,2.3-0.4,3.5-0.6c0.4-0.1,1-0.2,1.1,0.4c0.2,0.6-0.3,0.9-0.8,1
	c-2.2,0.6-4.3,1.7-6.3,2.7C1559,978.7,1558.4,978.9,1558.3,980.1z"/>
<path d="M1629.7,1054.8c-1-0.2-1.7,0.3-2.4,0.7c-3.2,1.8-6.7,3.2-10.1,4.7c-0.4,0.2-1,0.6-1.3,0.1c-0.5-0.7,0.3-0.9,0.8-1.2
	c4.1-2.8,8.2-5.6,12.3-8.4c0.5-0.3,1.2-0.5,1.3-1.4c-1.4-0.1-2.2,0.9-3.3,1.3c-0.6,0.2-1.4,0.8-1.9,0.2c-0.5-0.8,0.5-1.1,1-1.4
	c4.7-3.6,9.6-7.1,14.8-10c0.4-0.2,1-0.4,0.9-1.2c-1.2-0.1-2,0.8-3,1.1c-0.6,0.2-1.2,0.7-1.6,0c-0.3-0.7,0.4-1,0.8-1.3
	c3.3-2.3,6.5-4.8,10.1-6.6c0.9-0.4,1.9-0.8,2.3-1.8c-1.9-0.9-2-1-0.3-2.5c2.7-2.4,5.9-4.2,8.8-6.3c0.3-0.2,0.7-0.4,1,0
	c0.2,0.4-0.1,0.7-0.4,0.9c-1.4,1.1-2.7,2.3-4.4,3.1c-0.5,0.2-1.4,0.5-0.9,1.3c0.3,0.6,0.9-0.1,1.3-0.2c0.5-0.2,1.1-0.7,1.5-0.1
	c0.5,0.7-0.3,1.1-0.8,1.4c-3.4,2.7-7.1,5-11,7c-0.8,0.4-2.5,0.9-2.1,1.9c0.3,0.8,1.7-0.3,2.5-0.7c1.9-0.9,3.8-1.9,5.7-2.8
	c0.5-0.2,1-0.9,1.5-0.3c0.6,0.7-0.3,1.1-0.7,1.4c-3.6,2.6-7.5,4.5-11.3,6.9c-3.3,2-6.5,4.1-9.8,6.1c-0.3,0.2-1.1,0.5-0.6,1.1
	c0.4,0.5,0.8,0,1.1-0.2c3.9-2,8.1-3.5,11.8-5.9c0.4-0.3,1-0.6,1.3,0c0.3,0.6-0.3,0.9-0.7,1.1c-7.1,3.7-13.7,8.3-20.5,12.6
	c-0.5,0.3-1.1,0.7-1.6,1.1c0.6,0.8,1,0.4,1.4,0.1c6-3.2,12.5-5.5,18.4-9c0.4-0.3,1.1-0.9,1.5-0.3c0.5,0.7-0.4,1.1-0.9,1.3
	c-5.2,3.1-10.3,6.2-15.3,9.5c-3.4,2.3-6.9,4.6-10.4,6.9c-0.4,0.3-1,0.5-1.1,1.1c0.3,0.6,0.6,0.3,0.9,0.2c6.4-2.8,12.9-5.4,19.1-8.7
	c0.4-0.2,1-0.9,1.4-0.2c0.4,0.7-0.4,0.9-0.8,1.2c-5.4,3.4-10.8,6.6-16.1,10.1c-3.6,2.4-7.4,4.6-10.7,7.4c-0.5,0.4-0.9,0.3-1.7,0
	c6.1-4.1,11.9-8.3,18.1-12c-0.7-0.6-1.1-0.3-1.5-0.1c-4,1.8-8,3.6-12.1,5.4c-0.5,0.2-1.2,0.8-1.6,0.1c-0.3-0.6,0.5-0.9,0.9-1.2
	c5.1-4.4,10.8-8.1,16.5-11.8C1628.4,1056.1,1629.2,1055.7,1629.7,1054.8z"/>
<path d="M1225,1032.3c-0.2-0.4-0.7-0.2-1-0.1c-0.7,0.2-1.3,0.4-2,0.6c0.5,0.3,1,0.6,1.4,1c0.3-0.1,0.6-0.3,0.8-0.4
	C1224.7,1033.1,1225.3,1032.9,1225,1032.3z"/>
<path d="M1228.9,1017.2c2,0.3,3.6-1.3,5.6-0.9c-7.6,4.1-15.7,7.1-23.2,11.5c4.7-0.9,8.7-3.6,13.7-4.7c-0.8,1.2-1.8,1.5-2.7,1.9
	c-2.9,1.2-5.8,2.6-8.5,4.1c0.3,0.2,0.7,0.3,1,0.5c1.6-0.8,3.2-1.5,4.8-2.3c3-1.5,6.1-2.7,8.9-4.6c0.6-0.4,2-0.8,0.5-2
	c-0.6-0.5,0.2-0.8,0.6-1c4.5-2,9.1-4,13.6-6.1c0.5-0.2,1.4-0.3,1.4-1.6C1239.4,1013.9,1233.9,1014.8,1228.9,1017.2z"/>
<path d="M1222.2,1028.6c-1.8,0.6-3.6,1.2-5.3,1.8c0.7,0.3,1.4,0.5,2.1,0.8c1.2-0.6,2.4-1.1,3.6-1.7c0.5-0.2,1.3-0.5,0.9-1.1
	C1223.2,1027.8,1222.6,1028.4,1222.2,1028.6z"/>
<path d="M1068,1053.3c1.5,0.3,2.7-0.5,3.9-0.9c3.5-1,6.9-2.1,10.3-3.1c0.3-0.1,0.8-0.3,1,0.1c0.3,0.6-0.3,0.8-0.7,1.1
	c-4.7,2.4-9.3,4.9-14,7.4c-0.6,0.3-1.1,0.6-2,1.1c1.4,0.5,2.3-0.1,3.1-0.5c4.2-1.9,8.7-2.9,12.9-4.9c0.4-0.2,0.9-0.5,1.1,0.1
	c0.2,0.4-0.2,0.7-0.6,0.8c-5.8,3.1-11.2,6.9-16.8,10.4c-0.6,0.3-1.2,0.6-1.5,1.7c2.8-1.1,5.2-2.2,7.7-3.2c0.4-0.2,0.8-0.4,1.2-0.5
	c0.3-0.1,0.5,0,0.6,0.2c0.1,0.2,0.1,0.6-0.1,0.7c-0.5,0.5-1,0.9-1.6,1.3c-5.6,4.1-11.9,6.9-17.4,11.1c-0.4,0.3-0.9,0.7-1.3,0.1
	c-0.3-0.5,0.3-0.7,0.7-1c4-2.5,7.6-5.3,11.9-7.3c0.6-0.3,1.8-0.7,1.5-1.4c-0.5-0.9-1.2,0.2-1.8,0.4c-2.1,0.8-4.1,1.8-6.2,2.6
	c-0.4,0.2-1,0.6-1.3,0c-0.3-0.6,0.4-0.8,0.7-1.1c4-3.4,8.6-6,13.1-8.9c0.7-0.5,1.6-0.7,2-1.5c-0.3-0.5-0.6-0.4-1-0.2
	c-3.9,1.9-8.2,2.8-12.2,4.6c-0.4,0.2-0.9,0.5-1.1,0c-0.2-0.5,0.3-0.7,0.7-0.9c4.6-2.6,8.8-5.8,13.7-8c0.1,0,0.1,0,0.2-0.1
	c0.6-0.4,2-0.7,1.7-1.4c-0.6-1.1-1.3,0.2-1.9,0.4c-3.5,1.5-7.2,2.4-10.7,3.7c-0.4,0.2-1,0.5-1.3-0.1c-0.2-0.5,0.4-0.7,0.7-1
	c1.9-1.2,3.9-2.5,5.8-3.7c0.6-0.4,1.4-0.6,1.6-1.6c-2.2,0.4-4,1.3-5.9,2.1c-0.4,0.2-1,0.7-1.3,0.2c-0.4-0.7,0.4-0.9,0.8-1.2
	c5.3-3.2,10.6-6.4,16.4-8.8c0.9-0.4,1.9-0.7,2.7-1.9c-5,1.1-9,3.8-13.7,4.7c7.5-4.4,15.6-7.4,23.2-11.5c-2.1-0.4-3.6,1.2-5.6,0.9
	c5-2.4,10.4-3.3,15.8-5.1c0.1,1.3-0.8,1.4-1.4,1.6c-4.5,2-9.1,4.1-13.6,6.1c-0.4,0.2-1.2,0.5-0.6,1c1.5,1.2,0.1,1.5-0.5,2
	c-2.8,1.9-5.9,3.1-8.9,4.6c-2.3,1.2-4.7,2.2-7.1,3.4c-0.4,0.2-1.2,0.3-0.9,0.9c0.3,0.6,0.9,0.3,1.3,0.1c3.1-1,6.1-2.1,9.2-3.1
	c0.4-0.1,1-0.8,1.3-0.2c0.3,0.7-0.5,0.9-0.9,1.1c-2.1,1-4.3,2-6.4,3C1072.1,1050.6,1070,1051.7,1068,1053.3z"/>
<path d="M1305.7,1004c2.6-0.4,4.8-1.7,7.3-2.4c0.9-0.3,2-1.4,2.6-0.3c0.4,0.9-1.2,1.1-2,1.5c-5.2,2.8-10.4,5.6-15.5,8.5
	c-1.4,0.8-3,1.1-4.2,2.2c0.2,0.2,0.2,0.3,0.3,0.3c0.7,0.3,1.6-1,2,0c0.3,0.9-0.9,1.2-1.6,1.5c-3.2,1.7-6.5,3.3-9.8,5
	c-0.7,0.4-1.6,0.6-2.1,1.4c0.6,0.6,1.1,0.1,1.6-0.1c0.4-0.2,0.8-0.5,1.2,0c0.4,0.6,0,0.9-0.5,1.2c-1.7,1-3.4,1.9-5,2.9
	c-1,0.6-2.9,0.5-2,2.6c0.1,0.3-0.5,0.7-0.8,0.9c-3.1,2-6.6,3.4-9.7,5.6c-0.2,0.2-0.6,0.3-0.8,0c-0.3-0.4,0.1-0.7,0.4-0.9
	c0.8-0.5,1.6-1,2.4-1.5c0.6-0.4,1.5-0.7,1.1-1.8c-0.3-0.7,0.5-0.9,1-1.1c2.5-1.4,4.9-2.9,7.4-4.3c0.5-0.3,1-0.4,1.1-1.1
	c-1.1-0.3-1.7,0.6-2.6,0.8c-0.5,0.1-1.2,1-1.6,0.2c-0.3-0.7,0.6-0.8,1-1.1c2.7-1.8,5.5-3.4,8.4-4.8c0.7-0.4,1.5-0.6,1.1-1.8
	c-0.2-0.7,0.5-0.9,0.9-1.2c2.1-1.4,4.2-2.7,6.4-3.8c4.1-1.9,7.9-4.4,12-6.4c0.4-0.2,1-0.3,1-1.2c-1.9,0.2-3.6,1.1-5.4,1.8
	c-1,0.4-2,0.9-3.1,1.4c-0.4,0.2-0.9,0.5-1.2,0c-0.2-0.5,0.3-0.7,0.7-0.9c3.6-2.2,7.2-4.2,10.9-6c3.9-1.8,7.7-3.6,11.6-5.5
	c0.5-0.2,1.1-0.3,1.2-1.1c-1.2-0.2-2.2,0.5-3.1,0.9c-3.5,1.5-7.2,2.3-10.5,4.2c-0.4,0.2-1.1,0.5-1.3,0c-0.4-0.7,0.5-0.9,0.9-1.1
	c3.3-1.9,6.4-4.2,10-5.7c0.5-0.2,1-0.4,1.4-1.1c-1.4-0.2-2.5,0.5-3.6,0.8c-0.5,0.1-1,0.4-1.6,0.5c-0.3,0.1-0.7,0.1-0.8-0.2
	c-0.2-0.4,0.1-0.6,0.4-0.7c4.1-2.3,8.3-4.7,12.6-6.8c-1.8,2.4-4.9,3-7.1,4.9c0.1,0.2,0.2,0.4,0.3,0.6c2.5-0.9,5-1.7,7.4-2.6
	c0.5-0.2,1.2-0.7,1.5-0.1c0.4,0.8-0.5,1-1,1.2c-3.5,1.7-6.9,3.4-10.4,5c-0.8,0.4-1.6,0.7-2.3,1.5c1.3,0.2,2.3-0.4,3.2-0.8
	c4-1.7,8.4-2.4,12.1-4.7c0.3-0.2,0.7-0.3,0.9,0.2c0.2,0.5-0.3,0.8-0.7,1c-3.7,2.1-7.2,4.4-11.1,6.1c-3.9,1.7-7.8,3.6-11.6,5.4
	c-0.4,0.2-0.8,0.5-1.2,0.8C1305.6,1003.7,1305.6,1003.9,1305.7,1004z"/>
<path d="M1747.2,1014.8c-0.7-0.4-1.2,0.1-1.7,0.4c-5.2,2.5-10.5,5.1-16,7c-0.6,0.2-1.3,0.8-1.7,0.1c-0.4-0.8,0.5-1,1-1.3
	c4.3-3.1,8.8-6.1,13.6-8.5c0.6-0.3,1.1-0.7,1.5-1.2c-1.7,0-3.1,0.8-4.5,1.4c-0.4,0.2-0.9,0.4-1.2-0.1c-0.2-0.4,0.1-0.7,0.4-0.9
	c4.3-3,8.5-5.9,13-8.6c-2.2,2.9-5.5,4.5-8.8,6.7c1.3,0.4,2.1-0.2,2.8-0.4c2-0.8,3.9-1.6,5.8-2.4c0.5-0.2,1-0.6,1.3-0.1
	c0.4,0.7-0.3,1-0.8,1.2c-4.4,2.5-8.8,4.9-13.1,7.4c-2.1,1.2-4.2,2.3-6.1,4c0.9,0.5,1.5,0,2-0.2c6.8-3.4,14-6.1,20.9-9.3
	c0.4-0.2,0.8-0.4,1.2-0.5c0.7-0.2,1.4-1.5,2-0.4c0.4,0.7-1,1-1.6,1.4c-5.3,3.3-10.7,6.6-16,9.9c-2.7,1.7-5.5,3.4-8.2,5.1
	c-0.5,0.3-1.1,0.5-1.4,1.1c0.5,0.6,0.9,0.3,1.3,0c5.9-2.8,11.6-6,17.2-9.2c0.3-0.2,0.5-0.3,0.8-0.5c0.3-0.1,0.6-0.3,0.8,0
	c0.3,0.4,0,0.7-0.3,0.9c-0.3,0.2-0.6,0.4-0.9,0.6c-10,5.2-18.8,12.3-27.9,18.9c-0.4,0.3-0.8,0.9-1.2,0.4c-0.6-0.6,0.2-0.9,0.6-1.2
	c3.6-2.6,7.2-5.3,10.8-7.9c0.4-0.3,1.1-0.5,0.8-1.1c-0.3-0.6-0.9,0-1.3,0.2c-1.4,0.7-2.8,1.4-4.2,2c-0.5,0.2-1.2,0.8-1.7,0
	c-0.5-0.8,0.4-1,0.9-1.4c5.7-4.5,12-8,18-11.9C1746,1015.9,1746.9,1015.6,1747.2,1014.8z"/>
<path d="M1315,974.1c-1.4-0.2-2.1,0.6-3.1,1c-0.4,0.2-0.9,0.6-1.3,0.1c-0.3-0.4,0.2-0.8,0.5-1.1c2.3-2.2,4.8-4.4,7.4-6.3
	c0.9-0.6,1.8-1.3,2-2.6c-2,1.3-4,2.5-6,3.8c-0.8,0.5-1.6,1-2.4,1.5c-0.4,0.2-0.8,0.5-1.1,0c-0.2-0.4,0.1-0.7,0.4-0.9
	c1.6-1.3,3.3-2.6,5-3.9c2-1.7,4.3-3.2,6.1-5.2c-0.7-0.6-1.1-0.1-1.5,0.2c-3,1.9-6,3.9-9.1,5.8c-0.5,0.3-1.1,0.9-1.6,0.2
	c-0.4-0.6,0.4-1,0.7-1.3c3.3-3.1,6.8-6,10.5-8.6c0.7-0.4,1.4-0.8,1.6-1.7c-0.5-0.4-0.9,0-1.2,0.2c-1.6,1.1-3.2,2.1-4.8,3.2
	c-0.5,0.3-0.9,1.2-1.5,0.5c-0.5-0.7,0.4-1.1,0.8-1.4c1.9-1.7,3.9-3.3,5.8-5c2.9-2.5,5.9-4.8,8.4-7.6c0.3-0.3,0.6-1,1.2-0.5
	c0.5,0.5-0.2,0.9-0.5,1.2c-1.6,1.7-3.1,3.4-5,4.7c-0.5,0.4-1,0.8-1.4,1.2c-0.3,0.3-0.9,0.5-0.5,1c0.4,0.5,0.8,0,1.1-0.2
	c2-1.4,4-2.8,6-4.2c0.4-0.3,0.8-0.9,1.2-0.3c0.4,0.5-0.2,0.9-0.6,1.2c-4,3.5-7.9,7.2-12.4,10.1c-1.1,0.7-2.1,1.4-3,2.5
	c0.6,0.5,1,0.1,1.3-0.1c4.6-3.2,9.9-5.5,14.2-9.2c0.3-0.3,0.7-0.7,1.1-0.2c0.4,0.4-0.1,0.8-0.4,1.1c-1.3,1-2.5,2-3.8,3
	c-3,2.2-5.5,4.8-8.2,7.2c0.1,0.2,0.2,0.4,0.3,0.6c1.5-0.8,2.9-1.7,4.4-2.5c0.6-0.3,1.2-1.5,1.8-0.7c0.6,0.7-0.6,1.2-1.1,1.6
	c-3.3,2.8-6.4,5.9-9.9,8.5c-0.4,0.3-0.8,0.6-0.8,1.5c1.9-0.7,3.3-2,5-2.8c0.7-0.4,1.4-1.8,2.1-0.9c0.6,0.8-0.7,1.4-1.3,1.9
	c-3.8,3.3-7.9,6.2-11.6,9.6c-0.3,0.3-0.8,0.9-1.3,0.3c-0.5-0.6,0.3-0.8,0.6-1.1C1311,977.6,1313,975.9,1315,974.1z"/>
<path d="M1258.2,981.8c1.8,0,3.3-1.1,4.8-1.8c2.1-1,4.1-2.1,6.2-3.1c0.4-0.2,0.8-0.7,1.1-0.2c0.4,0.6-0.3,0.8-0.6,1.1
	c-4.2,2.9-8.1,6.4-12.6,8.9c-0.7,0.4-1.3,0.9-2,1.4c-0.3,0.2-0.9,0.5-0.5,1c0.3,0.4,0.7,0,1-0.1c2.1-1.1,4.1-2.3,6.2-3.4
	c0.5-0.3,1.1-1,1.6-0.2c0.4,0.6-0.5,0.9-0.9,1.2c-2.8,2.2-5.6,4.3-8.4,6.5c-0.3,0.2-0.8,0.4-0.7,1.2c1.6-0.2,2.8-1.1,4.2-1.7
	c0.5-0.2,0.9-0.6,1.3-0.1c0.5,0.6,0,1.1-0.4,1.4c-1.3,1.2-2.6,2.3-4,3.4c-0.4,0.3-1.1,0.6-0.9,1.1c0.7,1.8-0.9,2.4-1.8,3.2
	c-2,1.8-4.1,3.6-6.4,5.2c-0.4,0.3-0.9,0.8-1.3,0.3c-0.4-0.6,0.3-0.8,0.7-1.1c0.9-0.7,1.8-1.3,2.7-2c0.6-0.5,1.2-0.9,0.8-1.8
	c-0.4-0.8,0.4-1.2,0.9-1.6c1.6-1.4,3.3-2.8,5-4.2c0.4-0.3,0.9-0.6,1.1-1.4c-2,0.5-3.7,1.5-5.4,2.4c-0.4,0.2-0.9,0.7-1.3,0.2
	c-0.5-0.7,0.3-0.9,0.6-1.3c1.7-1.5,3.5-3,5.2-4.5c0.4-0.3,0.9-0.6,0.9-1.6c-1.8,0.8-3.4,1.6-5,2.4c-0.5,0.2-1.2,0.8-1.6,0.1
	c-0.4-0.6,0.5-0.9,0.9-1.2c3.5-2.8,6.9-5.9,10.9-8c0.6-0.3,1.2-0.6,1.4-1.4c-0.5-0.6-0.9,0-1.3,0.2c-3.4,1.7-6.8,3.4-10.1,5.1
	c-0.4,0.2-0.8,0.6-1.1,0c-0.3-0.5,0.3-0.8,0.6-1c3.4-2.4,6.7-4.7,10.1-7c0.6-0.4,1.5-0.6,1.5-1.8c-1.7,0.3-2.8,1.5-4.3,2.1
	c-0.5,0.2-1.1,1.1-1.6,0.4c-0.6-0.7,0.4-1,0.8-1.4c5.5-4.4,11.4-8.5,16.7-13.2c0.3-0.3,0.6-0.7,1.7-0.3c-4.2,4.1-8.7,7.4-13.4,10.6
	c0.1,0.2,0.3,0.4,0.4,0.6c2.5-1.3,5-2.5,7.6-3.8c0.5-0.3,1.2-1,1.6-0.3c0.4,0.7-0.6,0.9-1,1.3c-3.7,2.5-7.3,4.9-11,7.4
	C1258.8,981.1,1258.5,981.5,1258.2,981.8z"/>
<path d="M1143.7,1019.9c1.8,0,3.3-1.1,4.8-1.8c2.1-1,4.1-2.1,6.2-3.1c0.4-0.2,0.8-0.7,1.1-0.2c0.4,0.6-0.3,0.8-0.6,1.1
	c-4.2,2.9-8.1,6.4-12.6,8.9c-0.7,0.4-1.3,0.9-2,1.4c-0.3,0.2-0.9,0.5-0.5,1c0.3,0.4,0.7,0,1-0.1c2.1-1.1,4.1-2.3,6.2-3.4
	c0.5-0.3,1.1-1,1.6-0.2c0.4,0.6-0.5,0.9-0.9,1.2c-2.8,2.2-5.6,4.3-8.4,6.5c-0.3,0.2-0.8,0.4-0.7,1.2c1.6-0.2,2.8-1.1,4.2-1.7
	c0.5-0.2,0.9-0.6,1.3-0.1c0.5,0.6,0,1.1-0.4,1.4c-1.3,1.2-2.6,2.3-4,3.4c-0.4,0.3-1.1,0.6-0.9,1.1c0.7,1.8-0.9,2.4-1.8,3.2
	c-2,1.8-4.1,3.6-6.4,5.2c-0.4,0.3-0.9,0.8-1.3,0.3c-0.4-0.6,0.3-0.8,0.7-1.1c0.9-0.7,1.8-1.3,2.7-2c0.6-0.5,1.2-0.9,0.8-1.8
	c-0.4-0.8,0.4-1.2,0.9-1.6c1.6-1.4,3.3-2.8,5-4.2c0.4-0.3,0.9-0.6,1.1-1.4c-2,0.5-3.7,1.5-5.4,2.4c-0.4,0.2-0.9,0.7-1.3,0.2
	c-0.5-0.7,0.3-0.9,0.6-1.3c1.7-1.5,3.5-3,5.2-4.5c0.4-0.3,0.9-0.6,0.9-1.6c-1.8,0.8-3.4,1.6-5,2.4c-0.5,0.2-1.2,0.8-1.6,0.1
	c-0.4-0.6,0.5-0.9,0.9-1.2c3.5-2.8,6.9-5.9,10.9-8c0.6-0.3,1.2-0.6,1.4-1.4c-0.5-0.6-0.9,0-1.3,0.2c-3.4,1.7-6.8,3.4-10.1,5.1
	c-0.4,0.2-0.8,0.6-1.1,0c-0.3-0.5,0.3-0.8,0.6-1c3.4-2.4,6.7-4.7,10.1-7c0.6-0.4,1.5-0.6,1.5-1.8c-1.7,0.3-2.8,1.5-4.3,2.1
	c-0.5,0.2-1.1,1.1-1.6,0.4c-0.6-0.7,0.4-1,0.8-1.4c5.5-4.4,11.4-8.5,16.7-13.2c0.3-0.3,0.6-0.7,1.7-0.3c-4.2,4.1-8.7,7.4-13.4,10.6
	c0.1,0.2,0.3,0.4,0.4,0.6c2.5-1.3,5-2.5,7.6-3.8c0.5-0.3,1.2-1,1.6-0.3c0.4,0.7-0.6,0.9-1,1.3c-3.7,2.5-7.3,4.9-11,7.4
	C1144.3,1019.3,1144.1,1019.7,1143.7,1019.9z"/>
<path d="M1788.8,956.3c1.5,0.1,2.4-0.9,3.5-1.4c0.9-0.4,1.7-0.8,2.5-1.2c0.5-0.3,1.2-0.6,1.5,0c0.4,0.6-0.4,0.9-0.8,1.2
	c-3.8,2.7-7.7,5.3-11.5,8c-3.2,2.3-6.3,4.6-9.5,6.9c-0.4,0.3-0.7,0.5-0.7,1c0.7,0.4,1.2-0.2,1.7-0.5c6-3.3,11.9-6.7,18-9.7
	c0.4-0.2,0.8-0.7,1.1-0.2c0.4,0.6-0.2,0.9-0.6,1.1c-6.9,4-12.9,9.3-19.4,13.8c-0.2,0.1-0.3,0.2-0.4,0.3c-0.6,0.7-2.3,0.9-1.7,1.9
	c0.4,0.7,1.6-0.4,2.4-0.8c7.1-3.6,14.1-7.3,21-11.3c0.4-0.2,0.7-0.5,1.2-0.2c-0.1,0.9-0.8,1.2-1.4,1.5c-8.5,4.6-16.7,9.5-25.6,13.2
	c-0.6,0.2-1.4,0.8-1.8,0c-0.5-0.8,0.5-1.2,0.9-1.6c3.7-3.1,7.6-6,11.5-8.9c0.5-0.4,1.4-0.6,1.4-1.7c-1,0-1.6,0.7-2.3,1.1
	c-3.5,1.9-6.9,3.9-10.4,5.8c-0.5,0.3-1,0.8-1.5,0.2c-0.5-0.7,0.3-0.9,0.7-1.3c5.6-5.2,11.8-9.6,18.1-14.1c0.7-0.5,1.6-0.9,2.1-1.8
	c-1-0.5-1.5,0.4-2.2,0.7c-0.4,0.2-0.8,0.5-1.1,0c-0.3-0.5,0.1-0.8,0.4-1.1c1.2-1.1,2.3-2.3,3.6-3.3c2.8-2.2,5.6-4.4,8.4-6.5
	c0.4-0.3,0.8-0.8,1.2-0.2c0.3,0.4-0.2,0.8-0.6,1c-2.3,2-4.7,3.9-7.2,5.6C1790.3,954.8,1789.4,955.2,1788.8,956.3z"/>
<path d="M1366.2,1018c-0.5,0.4-0.8,0-1.2-0.2c-4.8-2.5-9.6-4.9-14.4-7.4c-3.9-2.1-5.1-5.9-6.2-9.8c-0.9-3.5-2.9-6.2-5.5-8.7
	c-0.8-0.8-1.6-0.8-2.5,0c-2.5,2.1-5.3,3.6-8.5,4.4c-0.9,0.2-1.7,0.5-2.3,1.1c-5.3,4.9-11.6,8.4-17.8,11.8c-6,3.3-11.4,7.2-16.3,12
	c-6.9,6.7-15.1,11.5-23.5,15.9c-0.4,0.2-1.1,0.9-1.4,0.1c-0.2-0.7,0.6-0.8,1.1-1c6.4-3.5,12.8-7.1,18.6-11.7
	c4-3.2,7.5-7.1,11.7-10.2c3.3-2.4,6.8-4.5,10.4-6.5c5.3-2.9,10.6-6.1,15.2-10.1c1.5-1.3,3.1-2.3,5-2.7c2.7-0.6,5.1-1.9,7.2-3.7
	c1.1-1,1-1.7-0.2-2.5c-1.5-0.9-2.9-1.9-4.5-2.5c-1.4-0.6-2.6-1.3-3.2-2.9c0.2-0.1,0.4-0.2,0.4-0.2c3.7,3,8.5,4.4,11.9,8.1
	c2.6,2.9,4.7,5.8,5.6,9.7c1,4,2.7,7.6,7,9.5c4.2,1.9,8.3,4.3,12.4,6.4C1365.6,1017.1,1366.2,1017.2,1366.2,1018z"/>
<path d="M1535.9,955.1c-0.3,2.4-1,4.7-1.7,7c-0.5,1.7-0.4,3.1,0.7,4.5c1.9,2.3,1.8,5.2,2.2,8c0.1,1-0.8,1.6-1.5,2.2
	c-4.6,4-9.8,7.4-14.3,11.7c-3.9,3.7-7.4,7.8-11.7,11.1c-1.2,0.9-1.8,2.2-2.4,3.5c-2.1,4.7-4.6,9.2-7.8,13.3
	c-1.1,1.4-1.8,3.1-2.4,4.8c-2.2,6.4-6.9,10.5-12.3,14c-5,3.3-9.4,7.1-13.9,10.9c-3.1,2.7-5.4,6.1-8.1,9.2c-0.3,0.4-0.6,1.2-1.2,0.7
	c-0.6-0.5,0.3-0.9,0.5-1.3c5.7-8.2,13.4-14.4,21.6-20.1c4-2.8,7.9-5.6,10.5-9.9c0.2-0.3,0.5-0.6,0.6-1c2.1-6.4,6.7-11.4,9.7-17.3
	c1.3-2.5,1.9-5.5,4.2-7.4c5.5-4.5,10-10,15.5-14.5c3.2-2.7,6.4-5.3,9.7-7.8c1.7-1.3,2.4-2.7,1.8-5c-0.6-2.3-1-4.6-2.7-6.4
	c-0.6-0.6-0.6-1.4-0.4-2.3c0.8-2.8,2-5.5,2.1-8.4c0-0.4,0.2-0.8,0.6-0.8C1535.9,954.1,1535.9,954.6,1535.9,955.1z"/>
<path d="M1674.3,959.8c0.4-1,1.2-1.3,1.9-1.7c1.8-1.2,3.6-2.4,5.4-3.6c0.4-0.2,0.8-0.5,1.2,0c0.4,0.5,0,0.8-0.2,1.1
	c-0.8,1-2.1,1.5-2.6,2.8c0.3,0.3,0.5,0.3,0.7,0.2c0.4-0.1,0.8-0.6,1.2-0.1c0.4,0.5-0.2,0.9-0.5,1.2c-2.4,2-4.8,4-7.2,5.9
	c-0.6,0.5-1.2,0.9-1.6,1.5c0.3,0.3,0.5,0.2,0.7,0.1c0.4-0.2,0.9-0.6,1.3-0.1c0.4,0.5-0.2,0.9-0.5,1.2c-1.6,1.4-3.2,2.8-4.8,4.2
	c-0.3,0.3-0.9,0.5-0.5,1c0.3,0.4,0.8,0.1,1.2-0.1c0.7-0.3,1.4-1.6,2.1-0.6c0.6,0.8-0.7,1.4-1.2,2.1c-0.5,0.7-1.5,0.9-1.7,2
	c1.4,0.1,2.2-1,3.3-1.5c0.5-0.2,0.9-0.8,1.5-0.4c0.7,0.5,0.1,1-0.2,1.4c-0.2,0.4-0.6,0.7-0.2,1.1c0.3,0.3,0.7,0.1,1.1,0
	c0.6-0.2,1.2-0.4,1.7-0.6c0.4-0.1,1-0.2,1,0.1c0.1,1.3,0.4,2.4,1.9,2.7c-0.1,2.2,2.2,2.3,3.2,3.5c0.3,0.4,1.3,0.5,1,1.1
	c-0.4,0.8-1.2,0.1-1.5-0.2c-1.3-1.2-3.7-1-4.1-3.2c0-0.1-0.2-0.2-0.3-0.2c-2.1,0.4-2.4-0.3-1.5-2.1c0.3-0.5-0.4-0.6-0.8-0.4
	c-1.1,0.5-2.1,1-3.2,1.5c-0.4,0.2-0.9,0.6-1.4,0.1c-0.5-0.5,0-0.9,0.3-1.3c0.3-0.4,0.9-0.7,0.5-1.2c-0.4-0.5-0.9,0.1-1.3,0.3
	c-0.7,0.4-1.4,0.8-2.1,1.1c-0.4,0.2-0.9,0.5-1.4,0.1c-0.5-0.5-0.2-0.9,0.1-1.3c0.3-0.4,0.9-0.8,0.4-1.2c-0.6-0.5-0.9,0.3-1.4,0.5
	c-0.7,0.4-1.5,1.8-2.3,0.8c-0.6-0.7,0.8-1.3,1.2-2c0.7-1.1,2.3-1.7,1.3-3.4c-0.2-0.3,0.4-0.7,0.7-1c1.2-1.2,2.4-2.5,3.7-3.7
	c0.6-0.6,1.6-1.1,0.5-2.2c-0.5-0.5,0.1-1,0.5-1.4c1.4-1.1,2.8-2.2,4.2-3.4c0.4-0.3,1.3-0.6,0.8-1.2c-0.4-0.6-1,0.1-1.4,0.4
	C1675.2,959.9,1674.9,960.1,1674.3,959.8z"/>
<path d="M1362.6,992.4c1.1-0.3,1.6,0.4,2.1,0.8c3.5,2.6,7.1,5.2,11.2,7c2.5,1.2,4.5,3,6.2,5.2c1.6,2,3.5,3.7,5.8,4.8
	c0.4,0.2,0.8,0.6,1.1,0.1c0.2-0.3-0.1-0.7-0.3-1c-2.8-3.7-5.4-7.6-7.4-11.8c-1.1-2.4-3.6-3.3-5.7-4.6c-2.4-1.5-4.7-2.9-7.4-4
	c-1.1-0.4-1.9-1.3-2.5-2.2c-2.8-3.8-6.3-6.8-10.2-9.4c-0.4-0.3-1-0.6-1.1-1.3c1.2,0,1.9,0.9,2.7,1.3c0.3,0.2,0.6,0.6,1,0.3
	c0.5-0.3,0.2-0.8,0-1.2c-1.2-2.4-2.5-4.7-3.7-7.1c-0.2-0.4-0.6-0.8-0.4-1.4c0.6-0.2,0.7,0.3,0.9,0.6c0.8,1.5,1.8,2.9,2.4,4.4
	c2,5,5.3,9,9.1,12.7c1.1,1.1,2.3,2,3.7,2.8c3.5,1.8,6.9,3.7,10,6.1c1.3,0.9,2.3,2.1,2.9,3.6c1.7,4.5,4.5,8.4,7.6,12.1
	c2.9,3.4,6.7,5.6,11.2,6.5c1.1,0.2,2,0.7,3,1.2c-0.3,0.8-0.8,0.6-1.2,0.5c-3.2-0.8-6.3-1.7-9.1-3.6c-1.5-1-3.2-1.7-4.8-2.4
	c-3.4-1.5-6.3-3.7-8.6-6.6c-1.7-2.2-3.8-3.8-6.4-5c-4-1.8-7.5-4.4-11-7C1363.3,993.5,1362.8,993.1,1362.6,992.4z"/>
<path d="M1832.5,1057.1c1.8,1.4,3.6,2.9,4.9,4.7c3.4,4.6,8.1,7.5,13,10.1c0.6,0.3,1.9,0.6,1.4,1.5c-0.5,0.8-1.3-0.3-1.9-0.6
	c-5.4-2.3-9.7-6.4-15-8.9c-3.2-1.5-6.4-1.7-9.8-1.6c-2.5,0.1-5.1,0.1-7.6,0.1c-1.6,0-3.1-0.5-4.4-1.4c-4.2-2.6-8.8-4-13.6-4.7
	c-1.5-0.2-3.1-0.5-4.5-1.1c-0.5-0.2-0.9-0.6-1.3,0c-0.3,0.5,0.1,1,0.5,1.3c1.6,1.2,3.2,2.4,4.8,3.6c0.4,0.3,0.9,0.6,1.4,1
	c0.3,0.3,1.1,0.6,0.6,1.1c-0.4,0.5-0.9-0.1-1.2-0.4c-3-2.2-6-4.5-8.7-7.2c-3.1-3.1-6.9-5.9-11.8-6c-1.7,0-3.3-0.3-5-0.5
	c-0.6-0.1-1.3-0.2-1.3-0.8c0.1-0.9,0.8-0.4,1.3-0.3c0.9,0.1,1.9,0.4,2.8,0.4c4.6-0.2,8.5,1.5,12,4.3c2.7,2.2,6,2.7,9.2,3.3
	c5.4,1,10.6,2.2,15.4,5.1c2.1,1.3,4.6,1.5,7,1.4c2.2-0.1,4.5-0.1,6.7-0.3c2.8-0.2,5.4,0.4,7.9,1.7c0.4,0.2,1,0.6,1.3,0.1
	c0.3-0.5-0.2-0.9-0.5-1.3c-1.3-1.4-2.6-2.7-3.9-4.1C1832.2,1057.4,1832.3,1057.2,1832.5,1057.1z"/>
<path d="M1212.5,992.3c-0.3-0.4-0.8-0.1-1.2,0.1c-5.3,3.1-10.8,5.8-16,9.1c-0.3,0.2-0.9,0.4-0.6,0.9c0.3,0.5,0.7,0.3,1.1,0.1
	c0.5-0.2,0.9-0.4,1.3-0.6c0.4-0.2,0.9-0.5,1.5,0.2c-3.1,1.8-6.1,3.4-8.9,6.1c2.6-0.2,4.6-1.3,6.9-1.4c-2.5,1.8-4.1,4.4-6.7,6
	c2.6-0.1,4.7-1.5,7.1-1.9c-1.1,1.4-2.7,1.9-4,2.9c-0.4,0.3-0.6,0.5-0.3,1c0.3,0.5,0.5,0.4,1,0.1c1.3-0.7,2.7-1.2,4.1-1.8
	c0.4-0.1,0.8-0.4,1,0c0.4,0.5-0.2,0.8-0.5,1c-1,0.8-2,1.6-2.9,2.4c1,0.4,2,0.9,2.9,1.5c0.1-0.1,0.2-0.2,0.3-0.3
	c0.4-0.4,0.6-0.9,0-1.3c-1-0.7-0.3-1.1,0.2-1.5c0.5-0.4,1-0.9,1.5-1.4c0.3-0.4,0.8-0.7,0.6-1.3c-0.2-0.6-0.8-0.4-1.3-0.3
	c-0.4,0.1-0.8,0.2-1-0.1c-0.3-0.5,0.2-0.8,0.5-1c0.2-0.2,0.5-0.4,0.7-0.6c0.4-0.4,1.3-0.8,0.8-1.4c-0.4-0.5-1,0-1.5,0.1
	c-1.5,0.4-2.8,1.3-4.5,1.2c1.7-1.7,3.9-2.7,5.8-3.9c0.8-0.5,2.3-0.9,1.8-1.9c-0.5-1-1.7,0.1-2.6,0.3c-1.6,0.3-3,1.4-5,1.4
	c0.5-0.8,1.1-1,1.6-1.3c2.8-1.5,5.6-3,8.4-4.5c0.7-0.4,1.3-0.8,1.9-1.2c0.3-0.2,0.5-0.5,0.3-0.8c-0.2-0.4-0.6-0.4-1-0.2
	c-0.9,0.4-1.8,0.8-2.7,1.2c-0.6,0.2-1,1-1.8,0.4c0-0.5,0.5-0.6,0.8-0.7c3.3-1.8,6.5-3.6,9.8-5.4
	C1212.2,993.2,1212.9,992.9,1212.5,992.3z"/>
<path d="M1020.2,1064.1c-2.3,0.2-4.3,1.2-6.9,1.4c2.8-2.7,5.9-4.3,8.9-6.1c-0.6-0.7-1-0.4-1.5-0.2c-0.5,0.2-0.9,0.4-1.3,0.6
	c-0.4,0.2-0.9,0.4-1.1-0.1c-0.3-0.6,0.3-0.7,0.6-0.9c5.2-3.3,10.7-6,16-9.1c0.4-0.2,0.9-0.6,1.2-0.1c0.4,0.6-0.3,0.8-0.7,1.1
	c-3.2,1.8-6.5,3.6-9.8,5.4c-0.3,0.2-0.7,0.2-0.8,0.7c0.7,0.6,1.2-0.2,1.8-0.4c0.9-0.4,1.8-0.8,2.7-1.2c0.3-0.1,0.8-0.2,1,0.2
	c0.1,0.3-0.1,0.6-0.3,0.8c-0.6,0.4-1.2,0.9-1.9,1.2c-2.8,1.5-5.6,3-8.4,4.5c-0.5,0.3-1.1,0.5-1.6,1.3c1.9,0,3.4-1.1,5-1.4
	c0.9-0.2,2.1-1.3,2.6-0.3c0.5,1-1.1,1.4-1.8,1.9c-1.9,1.3-4.1,2.2-5.8,3.9c1.6,0.2,3-0.7,4.5-1.2c0.5-0.2,1.2-0.7,1.5-0.1
	c0.5,0.7-0.4,1-0.8,1.4c-0.2,0.2-0.5,0.4-0.7,0.6c-0.3,0.3-0.8,0.6-0.5,1c0.2,0.4,0.7,0.2,1,0.1c0.5-0.1,1-0.3,1.3,0.3
	c0.2,0.6-0.2,0.9-0.6,1.3c-0.5,0.5-1,1-1.5,1.4c-0.5,0.4-1.3,0.8-0.2,1.5c0.6,0.4,0.3,0.9,0,1.3c-1.3,1.4-2.5,2.7-3.8,4.1
	c-0.2,0.2-0.5,0.5-0.8,0.2c-0.3-0.2-0.2-0.6,0-0.8c0.7-0.7,1.3-1.5,2-2.2c0.3-0.3,0.6-0.5,0.4-0.9c-0.2-0.3-0.5-0.2-0.8-0.2
	c-0.3,0.1-0.7,0.1-0.8-0.2c-0.2-0.4,0.1-0.7,0.4-1c1-0.9,2.1-1.7,3.2-2.6c0.3-0.3,0.9-0.5,0.5-1c-0.3-0.3-0.7-0.1-1,0
	c-1.4,0.6-2.8,1.1-4.1,1.8c-0.5,0.3-0.7,0.4-1-0.1c-0.3-0.5-0.2-0.7,0.3-1c1.3-1,2.9-1.5,4-2.9c-2.4,0.4-4.5,1.8-7.1,1.9
	C1016.2,1068.5,1017.7,1065.8,1020.2,1064.1z"/>
<path d="M1489.4,943.8c-2.1,1.8-4.2,3.6-6.2,5.3c-0.4,0.4-0.9,1.2-1.5,0.6c-0.7-0.6,0.1-1.1,0.4-1.6c0.6-1.1,1.3-2.2,2-3.3
	c-0.8-0.5-1.1,0.1-1.4,0.4c-1.8,1.7-3.6,3.4-5.5,5.1c-0.4,0.3-0.7,1.1-1.3,0.5c-0.5-0.4-0.2-1,0.1-1.6c0.3-0.6,1.2-1.3,0.6-1.9
	c-0.7-0.6-1.2,0.5-1.8,0.8c-0.6,0.3-1.2,1.3-1.9,0.6c-0.9-0.7,0.2-1.3,0.5-1.9c0.2-0.3,0.5-0.6,0.1-1.1c-0.9,0.1-1.2,0.9-1.8,1.4
	c-0.4,0.3-0.7,0.6-1.2,0.3c-0.6-0.4-0.4-0.8-0.1-1.3c0.3-0.5,0.7-1.1,0.1-1.5c-0.4-0.3-0.9,0.3-1.3,0.4c-0.5,0.2-1,0.8-1.5,0.4
	c-0.7-0.5-0.1-1.1,0.1-1.7c0.1-0.3,0.2-0.7-0.1-0.8c-0.6-0.3-1.3-0.5-0.4-1.2c0.9-0.6,1.9-1.5,3-0.9c0.8,0.5-0.1,1-0.4,1.5
	c-0.2,0.3-0.5,0.6-0.2,1c0.3,0.4,0.7,0,1-0.1c0.4-0.2,0.8-0.4,1.1-0.6c0.5-0.3,1.1-1,1.7-0.6c0.8,0.5,0,1.1-0.3,1.5
	c-0.1,0.2-0.2,0.5,0.1,0.7c0.3,0.2,0.6,0.1,0.8-0.1c1.1-0.7,2.1-1.5,3.2-2.2c0.4-0.3,0.8-0.8,1.3-0.2c0.4,0.5-0.1,0.9-0.5,1.2
	c-0.6,0.5-1.2,0.9-1.7,1.5c-0.4,0.4-1.3,0.9-0.8,1.4c0.5,0.6,1.1-0.1,1.5-0.5c2.4-1.7,4.8-3.6,7-5.6c0.6-0.5,1.4-1.8,2.2-1
	c0.7,0.8-0.7,1.3-1.3,1.9c-1.7,1.6-3.7,2.9-5.3,4.7c-0.3,0.3-0.8,0.6-0.5,1.3c0.6,0.2,1-0.3,1.3-0.7c2.7-2.6,5.8-4.6,8.7-7.1
	c0.4-0.3,0.9-1,1.4-0.5c0.6,0.7-0.2,1.1-0.6,1.5c-1.7,1.4-3.2,3.2-4.6,4.9c-0.2,0.3-0.6,0.6-0.2,1c0.4,0.3,0.7-0.1,0.9-0.3
	c1.9-1.6,3.8-3.2,5.7-4.8c0.4-0.3,0.8-0.9,1.3-0.4c0.5,0.5,0.1,1-0.3,1.5c-0.1,0.1-0.2,0.2-0.2,0.3c-0.3,0.5-1.3,1.1-0.8,1.7
	c0.6,0.7,1-0.5,1.6-0.7c0.2-0.1,0.3-0.1,0.5-0.1c-0.2,0.9-3,3.5-3.8,3.6c-0.6,0-0.9-0.3-0.7-1
	C1489.1,945.2,1489.7,944.8,1489.4,943.8z"/>
<path d="M1723.3,1003.9c-2.6,0.9-5.2,1.9-7.8,2.8c-0.3,0.1-0.7,0.3-1.1,0.3c-0.6,0.1-1.4,0.4-1.7-0.3c-0.4-0.8,0.5-1,1-1.4
	c5.8-4.8,12.6-8.2,18.7-12.5c0.3-0.2,0.6-0.3,0.8-0.5c0.3-0.3,0.9-0.5,0.6-1c-0.3-0.4-0.8-0.2-1.2,0c-1.2,0.5-2.4,1.1-3.5,1.6
	c-0.5,0.2-1.2,0.9-1.6,0.1c-0.4-0.7,0.4-0.9,0.8-1.3c3.9-3.3,8.4-5.8,12.6-8.6c0.2-0.1,0.4,0,0.7-0.1c0.1,0.9-0.6,1.1-1,1.4
	c-2,1.4-3.9,3.1-6.1,4.2c-0.3,0.2-0.8,0.3-0.6,0.8c0.2,0.4,0.6,0.3,1,0.2c0.7-0.2,1.4-0.5,2.1-0.7c0.4-0.1,1-0.5,1.3,0.1
	c0.3,0.6-0.2,0.9-0.5,1.3c-0.6,0.6-1.3,1.2-2,1.6c-5.9,3.8-11.8,7.5-17.7,11.3c-0.6,0.4-1.4,0.5-1.5,1.7c2.2-0.4,4.1-1.4,6.1-2.2
	c3-1.1,6-1.8,8.9-3.2c0.3-0.2,0.7-0.3,0.9,0.2c0.1,0.3-0.1,0.6-0.4,0.8c-0.8,0.5-1.6,1-2.4,1.4c-8.4,4.6-16.4,9.8-24.1,15.4
	c-1,0.7-2,1.6-3.5,1.6c7.1-5.2,14-10.5,21.7-14.8C1723.5,1004.2,1723.4,1004.1,1723.3,1003.9z"/>
<path d="M1680.8,1016.1c2.4-1.2,4.4-2.3,6.4-3.3c0.6-0.3,1.3-0.9,1.8-0.1c0.5,0.8-0.4,1.2-0.9,1.6c-1.7,1.3-3.3,2.6-5,3.9
	c-0.4,0.3-1,0.6-0.7,1.1c0.3,0.5,0.8,0,1.2-0.1c0.8-0.1,1.7-1.5,2.2-0.6c0.7,1-0.9,1.4-1.4,2c-0.6,0.6-1.3,1.2-2,1.7
	c-0.6,0.5-1.2,1-0.6,1.8c0.4,0.6,0,1.1-0.4,1.5c-1.5,1.6-3.2,3.1-5,4.4c-0.3,0.2-0.8,0.6-1.1,0.1c-0.2-0.4,0.2-0.7,0.5-0.9
	c0.6-0.5,1.2-0.9,1.8-1.3c0.3-0.3,0.9-0.7,0.5-1c-1.9-1.4,0.1-1.8,0.6-2.5c0.3-0.4,0.9-0.7,1.2-1.1c0.5-0.5,1.6-1,1.2-1.7
	c-0.5-0.9-1.2,0.3-1.9,0.4c-0.5,0.1-1,0.4-1.3-0.2c-0.3-0.6,0.3-0.9,0.6-1.2c1.5-1.3,3.2-2.5,4.9-4.4c-1.9,0.3-3,1.5-4.3,1.9
	c-0.9,0.3-1.9,1.6-2.6,0.6c-0.7-0.9,0.9-1.3,1.4-2c0.5-0.7,1.2-1.2,1.8-1.8c0.3-0.3,0.7-0.7,0.5-0.9c-1.4-1.4,0.1-1.9,0.8-2.6
	c3.7-4.1,8.3-7.3,12.2-11.2c0.2-0.3,0.6-0.7,0.9-0.4c0.5,0.4,0,0.8-0.3,1.1c-1.6,1.8-3.3,3.5-5.3,4.9c-0.5,0.4-1,0.8-1.4,1.2
	c-0.2,0.2-0.3,0.4-0.1,0.7c0.2,0.2,0.5,0.2,0.7,0c0.8-0.5,1.5-1,2.3-1.6c0.5-0.3,1-0.9,1.4-0.3c0.5,0.6-0.2,1-0.6,1.4
	c-2.8,2.3-5.7,4.6-8.5,6.9C1681.9,1014.5,1681.2,1014.8,1680.8,1016.1z"/>
<path d="M1675.7,1051.9c-3.3,0.9-6.6,1.8-9.9,2.6c-1.7,0.4-3.5,0.8-5.3,1.2c-0.6,0.1-1.4,0.5-1.7-0.2c-0.3-0.9,0.7-1,1.3-1.3
	c5.3-2.9,10.7-5.5,16.1-8.1c3.9-1.8,8-3.4,11.6-5.9c0.2-0.1,0.4-0.2,0.8,0c-0.2,0.8-0.9,1.1-1.6,1.5c-4.1,2.6-8.6,4.3-13,6.3
	c-3.3,1.5-6.4,3.5-9.9,4.8c-0.3,0.1-0.4,0.4-0.8,0.7c1.1,0.4,1.9-0.1,2.6-0.2c9.4-2.4,18.8-4.5,28.4-6.1c0.5-0.1,1.1-0.4,1.3,0.2
	c0.3,0.8-0.6,0.8-1.1,0.9c-15.5,3.5-30.1,9.5-44.7,15.5c-0.7,0.3-1.4,0.7-2.2,1.1c-0.3,0.2-0.7,0.6-1,0.1c-0.4-0.6,0.3-0.8,0.6-0.9
	c2.2-1.1,4.5-2.1,6.8-3.1c6.5-2.7,13.1-5.4,19.8-7.6c0.7-0.2,1.4-0.7,2.1-1C1675.9,1052.2,1675.8,1052,1675.7,1051.9z"/>
<path d="M1539.9,905.5c2.5,2.1,4.8,3.9,7.1,5.8c0-1.8-1.3-2.8-1.9-4.1c-0.3-0.7-1.5-1.5-0.7-2c0.8-0.5,1.1,0.9,1.5,1.5
	c1.5,2.1,2.6,4.5,4.3,6.3c3,3.3,5.3,7.2,8.2,10.5c1.9,2.2,5,2.7,7.5,3.9c1.9,0.9,3.5,2,4.6,3.6c1.9,2.7,3.7,5.4,5.6,8.1
	c0.8,1.2,1.7,2.1,3,2.6c2.4,0.9,4.2,2.6,5.9,4.5c2.6,2.7,5,5.7,8.1,7.9c0.3,0.2,0.7,0.5,0.4,0.9c-0.4,0.5-0.8,0.1-1.1-0.1
	c-1.3-1-2.7-1.9-3.8-3.2c-1.8-2.2-3.8-4.1-5.8-6.1c-1.2-1.2-2.5-2.2-4.1-2.8c-3.4-1.2-6.4-3.1-9.5-4.8c-0.4-0.2-1.2-0.4-0.9-1
	c0.3-0.7,1-0.3,1.4,0c1.2,0.7,2.4,1.4,3.5,2.1c0.3,0.2,0.7,0.4,1,0c0.2-0.3,0-0.6-0.1-0.8c-2.8-4.5-5.4-9.2-11.1-11
	c-2.4-0.7-4.7-2-6.7-3.6c-2.3-1.8-5-2.7-7.8-3.4c-0.5-0.1-1.5-0.2-1.2-1.1c0.2-0.6,1-0.1,1.5,0.1c1.5,0.5,2.9,1,4.4,1.4
	c0.3,0.1,0.6,0.2,0.9-0.1c0.3-0.3,0.1-0.7-0.1-1c-1.3-1.8-2.4-3.7-4.4-5c-3.2-2-6-4.6-8.9-7.1
	C1540.5,907.2,1539.9,906.8,1539.9,905.5z"/>
<path d="M1548.1,889.9c1.5,1.3,2.9,2.6,4.4,3.8c0.4,0.3,0.7,1.1,1.3,0.6c0.5-0.4-0.1-0.9-0.2-1.4c-0.6-3.1-2.4-5.5-4.5-7.8
	c-0.4-0.5-1.1-0.9-1-1.7c0.9-0.3,1.1,0.5,1.5,0.9c3.1,2.7,4.7,6.3,5.7,10.2c0.5,1.9,1.6,3.3,2.9,4.7c3.4,3.4,5.5,7.8,8.1,11.8
	c1.7,2.7,3.6,4.3,6.8,4.3c1.5,0,2.9,0.5,4.3,1.2c0.4,0.2,0.8,0.6,1.1,0.1c0.3-0.4-0.1-0.8-0.4-1.1c-0.8-1.1-2.1-2.1-2.4-3.8
	c1.2,0.3,1.6,1.2,2.1,1.9c3.7,4.9,8.9,8.5,12.3,13.6c1.1,1.6,2.5,3.1,3.9,4.5c0.3,0.3,0.9,0.8,0.3,1.2c-0.5,0.5-0.9-0.1-1.2-0.5
	c-2.4-2.8-4.9-5.6-7.1-8.6c-3.5-4.7-8.5-6.6-13.8-7.6c-3.6-0.7-6.7-1.6-9.1-4.4c-1.7-1.9-3.7-3.5-5.8-4.9c-0.4-0.3-1-0.6-0.5-1.1
	c0.3-0.4,0.8,0,1.1,0.3c1.9,1.3,3.8,2.6,5.3,4.4c0.3,0.4,0.7,1,1.2,0.7c0.7-0.4,0-1-0.2-1.4c-3.3-6.3-7.9-11.5-13.3-16.1
	c-1.2-1-2.3-2.2-3.4-3.3C1547.8,890.2,1548,890,1548.1,889.9z"/>
<path d="M1515.1,1028.9c-2.1,1.1-3.6,2.3-5.2,3.5c-4.6,3.4-9.8,6-14.2,9.5c-0.4,0.3-0.9,0.8-1.3,0.2c-0.4-0.5,0.1-0.9,0.5-1.2
	c8.8-9.1,17.5-18.3,27.2-26.6c0.3-0.2,0.5-0.5,1.5-0.2c-2.8,2.6-5.4,5-8,7.4c-2.8,2.5-5.4,5.1-8,7.8c-2.5,2.6-5.1,5.2-7.7,7.8
	c0.7,0.6,1,0.1,1.4-0.1c7.4-4.8,14.8-9.6,22.1-14.4c0.4-0.2,0.8-0.9,1.2-0.3c0.3,0.5-0.3,0.9-0.7,1.2c-3.5,2.9-7,5.9-10.7,8.7
	c-8.8,6.8-16.8,14.6-24.7,22.3c-0.7,0.6-1.6,2.2-2.1,1.6c-0.7-0.8,0.9-1.4,1.5-2c5.3-5.4,10.7-10.6,16.3-15.5c3-2.7,6.2-5.2,9.3-7.7
	C1514.1,1030.4,1514.8,1030,1515.1,1028.9z"/>
<path d="M1322.2,1018.2c2.3,2.4,5.5,3.8,6.5,7.4c0.3,1.1,0.9,2.2,1.2,3.3c1,3.4,3.7,4.6,6.7,5.5c1.5,0.5,2.9,1.1,4.3,1.6
	c0.4,0.2,0.8,0.4,1.2,0c0.3-0.3,0.1-0.7,0-1c-1.4-2.8-2.3-5.7-3.1-8.7c-0.2-0.8-0.8-1.5-1.4-2.2c-3.5-3.9-5.7-8.7-8.8-12.9
	c-0.2-0.2-0.3-0.6,0-1c0.9,0.2,1.1,1.2,1.6,1.8c0.2,0.3,0.4,0.7,0.8,0.6c0.6-0.2,0.4-0.7,0.3-1.1c-0.1-1.6-0.9-3-0.5-4.9
	c1.1,0.7,1,1.7,1.1,2.5c0.3,5.8,2.5,10.7,6.5,14.8c0.9,0.9,1.4,2.1,1.7,3.3c1.3,4.9,3.7,9.1,6.9,13.2c4.2,5.4,9.7,8.4,15.5,11.2
	c0.5,0.3,1.5,0.4,1.1,1.2c-0.3,0.7-1,0-1.4-0.2c-4.2-1.8-8-4.2-11.7-6.9c-1.4-1-2.5-2.4-3.4-3.9c-1.4-2.2-3.3-3.7-5.9-4.5
	c-2.8-0.8-5.5-1.9-8.2-3c-1.6-0.6-2.7-1.9-3.5-3.4c-0.2-0.4-0.4-0.9-0.6-1.4c-1.2-4-3.1-7.5-6.7-10c-0.2-0.2-0.4-0.5-0.6-0.7
	c-0.1-0.1-0.1-0.2-0.1-0.4C1322,1018.4,1322.1,1018.3,1322.2,1018.2z"/>
<path d="M1742.5,1056.6c-2.6,1-5.1,2-7.7,3c-5.2,2.2-10.6,3.9-15.7,6.2c-0.5,0.2-1.2,0.5-1.4-0.2c-0.3-0.7,0.4-1,0.9-1.3
	c4.6-3,9.2-6.1,13.9-9.1c3.4-2.2,7-4.3,10.5-6.4c0.4-0.2,0.7-0.6,1.8-0.3c-7.3,5.2-14.9,9.1-21.7,14.1c0.4,0.7,0.9,0.3,1.3,0.1
	c6-2.3,11.9-4.6,17.9-6.8c1.7-0.6,3.6-1,5.3-1.7c0.4-0.2,1.1-0.8,1.5-0.1c0.4,0.7-0.5,0.9-0.9,1.2c-2.2,1.3-4.4,2.7-6.8,3.9
	c-9.2,4.7-17.6,10.7-26,16.7c-0.6,0.4-1,0.9-2,0.3c9.6-7,19.2-13.7,29.7-19C1742.7,1057,1742.6,1056.8,1742.5,1056.6z"/>
<path d="M1812.3,960.9c1,0.1,1.4,0.9,1.9,1.5c3.1,3.6,6,7.2,7.9,11.7c1.5,3.6,3.7,7,5.6,10.5c0.5,0.9,1.3,1.5,2.3,1.8
	c1.7,0.6,3.4,1.3,4.9,2.2c3,1.9,6.3,3.2,9.6,4.4c3.4,1.2,5.9,3.6,8.6,5.7c0.3,0.2,0.7,0.5,0.4,0.9c-0.4,0.4-0.8,0.1-1.1-0.2
	c-3.8-3.6-8.6-5.2-13.2-7.4c-5.6-2.8-11.5-5.1-17.1-7.9c-1.1-0.5-1.9-1.3-2.3-2.3c-0.6-1.8-1.9-3.1-3.4-4.1
	c-2.4-1.6-4.7-3.5-7.4-4.6c-0.5-0.2-1.1-0.4-1.1-1.1c0.7-0.4,1.3,0.1,1.9,0.4c3,1.4,5.8,3.3,8.4,5.4c0.8,0.7,1.6,1.4,2,2.4
	c0.7,2.2,2.5,3.1,4.4,3.9c0.3,0.1,0.7,0.4,1,0c0.1-0.2,0.1-0.6,0-0.9c-0.1-0.3-0.3-0.7-0.5-1c-3.7-6.9-6.7-14.3-12.4-20
	C1812.4,961.9,1812.1,961.5,1812.3,960.9z"/>
<path d="M1599.3,966.6c1.2-0.1,1.7,0.8,2.3,1.3c3.5,2.6,7,5.1,9.6,8.8c0.7,1,1.8,1.2,2.9,1.5c3.4,0.8,6.9,1.6,10.2,2.6
	c2.5,0.8,4.7,2.4,6.5,4.2c2.3,2.4,5,4.2,7.9,5.8c0.7,0.4,2.3,0.9,1.7,1.8c-0.8,1.1-1.4-0.5-2.1-0.9c-1.1-0.5-2-1.2-3.1-1.7
	c-0.9-0.4-1.8-0.9-2.5-1.6c-4.4-5.4-10.3-7.6-16.9-8.8c-2.9-0.5-5.8-0.9-8.7-1c-2.5-0.1-4.6-1-6.4-2.9c-4.2-4.3-9.4-7.2-14.7-10.1
	c-0.6-0.3-1.9-0.4-1.4-1.3c0.4-0.9,1.3,0,1.9,0.3c5.6,3.1,11.2,6.2,15.7,10.8c1.6,1.7,3.8,2,6,2c0.5,0,1.1,0.1,1.3-0.4
	c0.3-0.6-0.2-0.9-0.5-1.3c-2.4-2.8-5.4-4.9-8.2-7.3C1600.2,967.9,1599.4,967.7,1599.3,966.6z"/>
<path d="M1251.2,1012c-3.7,1.9-6.6,4.1-10,5.6c-4.7,2.1-8.8,5.1-11.4,9.8c-0.7,1.3-0.1,2.2,0.5,3.1c1.4,2.2,1.9,4.5,1.6,7.1
	c-0.2,1.4-0.6,2.5-1.7,3.3c-0.6,0.5-1.2,0.9-1.8,1.3c-5.7,3-10.6,7.1-15.7,11c-4.5,3.6-9.8,6.1-14.7,9.2c-1.3,0.8-2.6,1.6-3.9,2.5
	c-0.5,0.3-1.1,1-1.6,0.3c-0.3-0.5,0.3-1.2,0.8-1.4c1.9-0.6,3.4-1.8,5-2.8c7.1-4,14.1-8.4,20.2-13.9c2.6-2.3,5.9-3.6,8.8-5.5
	c3.6-2.3,4.8-5.9,2.4-9.5c-2-2.9-1.8-5.1,0.4-7.7c2.6-3.1,5.6-5.8,9.3-7.4c3.3-1.4,6.3-3.4,9.6-4.9
	C1249.6,1011.9,1250,1011.5,1251.2,1012z"/>
<path d="M1739.8,1045.2c-2,0.5-3.5,1.8-5.2,2.5c-0.5,0.2-1.2,0.8-1.6,0.1c-0.4-0.6,0.4-0.9,0.8-1.3c6.9-5.8,14.8-10.3,22.2-15.4
	c0.2-0.1,0.4-0.1,0.8,0.1c-5.4,4.8-12.1,7.8-17.8,12.6c1,0.5,1.5,0,2-0.3c3.2-1.8,6.7-3,9.8-4.9c0.3-0.2,0.7-0.5,1-0.1
	c0.4,0.4,0.1,0.8-0.3,1.1c-1.2,0.8-2.3,1.6-3.5,2.4c-8.3,5.3-16.7,10.6-24.8,16.2c-0.4,0.3-0.9,0.9-1.2,0.2
	c-0.3-0.5,0.4-0.8,0.8-1.1c5.2-3.5,10.5-6.9,15.7-10.4C1738.9,1046.5,1739.7,1046.3,1739.8,1045.2z"/>
<path d="M1533.9,1015.2c-0.1,0.4-0.1,0.7-0.2,1c-1.3,3.4-0.1,6.3,1.8,9.1c0.4,0.6,1,1.1,1.7,1.3c6.7,2.3,10,7.5,11.4,14
	c0.5,2.1,1.3,3.6,3,4.9c4.3,3.2,9,5.8,13.5,8.6c1.3,0.8,2.5,1.8,3.8,2.7c0.4,0.3,1,0.6,0.5,1.1c-0.4,0.4-0.8-0.1-1.1-0.3
	c-1.7-1.4-3.6-2.5-5.4-3.7c-4.2-2.7-8.6-5.2-12.6-8.2c-1.8-1.3-2.4-3.2-2.9-5.2c-1.4-6.2-4.5-11.1-11-13c-0.4-0.1-1-0.3-1.1-0.6
	c-1.6-3-4.1-5.7-2.9-9.6c0.6-1.9,0.2-3.7-1-5.3c-2.4-3.1-3.7-6.7-5-10.3c-0.1-0.4-0.4-0.8,0-1c0.5-0.3,0.7,0.2,1,0.5
	c0,0.1,0.1,0.1,0.1,0.2c1.1,4.7,4,8.5,6.1,12.7C1533.7,1014.4,1533.8,1014.8,1533.9,1015.2z"/>
<path d="M1576.6,1026.3c0,0.5,0.3,0.8,0.6,1c4,2.6,6.6,6.5,9.3,10.3c0.3,0.4,0.8,0.8,0.3,1.3c-0.6,0.4-0.9-0.1-1.1-0.6
	c-2.6-4.6-6.3-8.2-10.5-11.4c-1.6-1.2-2.8-2.8-3.6-4.7c-0.8-1.8-2.2-3-3.9-3.9c-3-1.6-5.7-3.8-8.5-5.7c-0.4-0.3-0.9-0.5-0.6-1.3
	c1,0.2,1.7,1,2.4,1.5c2.2,1.5,4.3,3.1,6.7,4.4c2.3,1.2,4.2,2.9,5.1,5.4c0.4,1,1.2,1.7,2.3,1.9c7.2,1.8,13.6,5.2,19.2,10.2
	c1.9,1.7,4.1,2.5,6.5,2.9c3.4,0.6,6.4,2.3,9.6,3.3c0.4,0.1,0.9,0.4,0.7,0.9c-0.2,0.5-0.7,0.2-1.1,0.1c-3.8-1.4-7.6-3.1-11.7-3.7
	c-2.3-0.4-4-2.1-5.8-3.6c-4.4-3.8-9.3-6.6-14.9-8.2C1577.4,1026.2,1577.1,1026,1576.6,1026.3z"/>
<path d="M1761.3,1026.9c-0.3,3.6-0.1,7.2-1.1,10.7c-0.3,1.2-1.3,1.9-2.2,2.7c-2.2,1.9-4.5,3.7-6.6,5.8c-0.9,0.9-1.1,1.8-0.3,2.8
	c2.8,3.4,5.6,6.6,9.7,8.5c2.6,1.2,5.1,2.5,7.4,4.3c0.3,0.2,0.6,0.5,0.9,0.6c5.4,2,9.9,5.6,14.9,8.3c2.2,1.2,3.8,3,5.4,4.8
	c0.2,0.3,0.6,0.6,0.2,0.9c-0.4,0.3-0.9,0.2-1.2-0.1c-5.2-6.1-12.3-9.1-19.2-12.7c-2.9-1.5-5.5-3.6-8.5-5c-4.3-1.9-7.3-5.3-10.2-8.8
	c-1.8-2.2-1.6-2.7,0.4-4.7c1.2-1.2,2.3-2.5,3.7-3.4c4.4-2.7,5.4-6.8,5.2-11.5C1760,1029,1760.2,1027.8,1761.3,1026.9z"/>
<path d="M1796.8,1034.1c0.2,0.9,0.9,1.3,1.6,1.7c5.3,3.3,10,7.4,15.6,10.1c0.5,0.3,1.4,0.6,1,1.3c-0.4,0.8-1,0-1.5-0.2
	c-5.2-2.5-9.5-6.4-14.5-9.4c-2.4-1.4-4.4-3.4-6.2-5.6c-2.3-2.8-5.1-4.6-8.8-4.8c-1.4-0.1-2.8-0.7-4-1.5c-0.7-0.5-1.4-1-1.5-1.8
	c-0.3-2.9-2.1-5.1-3.8-7.3c-0.5-0.7-1.3-1.4-1.2-2.5c0.2,0,0.5-0.1,0.5,0c2,2.8,4.8,5.1,5.3,8.8c0.3,1.8,1.8,2.4,3.3,2.9
	c0.4,0.1,0.8,0.2,1.3,0.2c3.4,0.5,6.2,2,8.9,4.1c2.4,2,5.5,3.1,8.2,4.6c0.8,0.4,1.5,0.8,2.3,1.3c0.3,0.2,0.7,0.4,0.5,0.8
	c-0.3,0.6-0.8,0.2-1.1,0c-1.4-0.8-2.8-1.6-4.2-2.3C1798,1034.3,1797.6,1033.7,1796.8,1034.1z"/>
<path d="M1561.3,956.9c0.7-0.2,0.8,0.4,1.1,0.8c2.7,3.2,4.7,6.8,6.8,10.4c0.3,0.5,0.7,1.1,0.8,1.7c0.9,5.1,4,8.7,7.6,12
	c1.2,1.1,2.4,2.3,3.5,3.6c3.6,4.5,8.6,7.2,13.1,10.5c5.2,3.8,10,8,14.9,12c0.3,0.3,1,0.6,0.5,1.2c-0.4,0.5-0.9,0-1.3-0.3
	c-3.9-3.4-8.3-6.3-12-10c-1.6-1.6-3.6-2.8-5.6-3.9c-3.6-2-6.7-4.7-9.4-7.8c-2.4-2.8-5-5.4-7.6-7.9c-1.6-1.5-2.9-3.2-3.6-5.4
	c-1.7-5.6-4.6-10.5-8.1-15.2C1561.7,958.2,1561,957.7,1561.3,956.9z"/>
<path d="M1759.5,990.5c0.7,0.6,1.1,0.1,1.6-0.1c2.5-1.1,5.1-2,7.4-3.5c0.4-0.2,0.8-0.5,1.1,0c0.3,0.5-0.1,0.8-0.5,1.1
	c-1.7,1.3-3.5,2.3-5.4,3.3c-7.2,3.7-13.8,8.3-20.5,12.9c-0.3,0.2-0.6,0.5-0.9,0.7c-0.3,0.2-0.6,0.2-0.9,0c-0.3-0.4,0-0.7,0.3-0.9
	c1.5-1.1,3.1-2.1,4.6-3.1c3.5-2.3,7.1-4.6,10.6-6.9c0.4-0.3,0.8-0.5,1-1.2c-1-0.2-1.8,0.4-2.6,0.7c-0.5,0.2-1.1,0.7-1.5,0.1
	c-0.4-0.7,0.3-0.9,0.8-1.2c3.4-2.1,6.8-4.4,10.4-6.2c3-1.5,5.7-3.3,8.3-5.3c0.4-0.3,1-1,1.4-0.4c0.5,0.6-0.4,0.9-0.8,1.2
	c-3.5,2.9-7.6,4.9-11.6,7C1761.4,989.1,1760.3,989.5,1759.5,990.5z"/>
<path d="M1788.3,992.1c1-0.3,1.2,0.2,1.5,0.6c2.2,2.5,4.7,4.8,6.2,8c1.2,2.6,3.9,4.1,6.3,5.7c3.2,2.1,6.4,4.1,9.3,6.4
	c2.2,1.7,5,1.6,7.5,2.5c1.4,0.6,2.9,1.1,4.3,1.7c0.4,0.2,0.9,0.4,0.7,0.9c-0.2,0.6-0.7,0.3-1.1,0.1c-2.8-1.6-5.9-2.3-9-2.9
	c-1.2-0.2-2.3-0.6-3.2-1.5c-3.6-3.4-8.4-5.3-12.1-8.7c-0.2-0.2-0.6-0.4-0.8-0.1c-0.4,0.4,0,0.8,0.2,1.1c2.1,2.6,4.1,5.3,6.5,7.7
	c0.5,0.5,1,1.1,1.5,1.6c0.2,0.3,0.5,0.7,0.1,1c-0.4,0.3-0.7-0.1-0.9-0.4c-4.5-4.9-9.2-9.6-11.1-16.3c-0.6-2.1-2.6-3.5-4-5.1
	C1789.6,993.9,1788.8,993.2,1788.3,992.1z"/>
<path d="M1538,1057.6c-3.8,3.1-7.7,6.2-11.5,9.4c-3.7,3.1-7,6.8-11,9.6c0.9-2.5,25.8-23.7,30.1-25.9c0.5,0.7-0.2,1.2-0.5,1.6
	c-2.4,2.8-4.9,5.6-7.6,8.2c-5,4.8-9.3,10.2-13.9,15.3c-0.5,0.5-0.7,1-1.7,0.5c2.7-3.2,5.5-6.2,8.2-9.4c2.6-3.1,5.6-5.9,8.4-8.8
	C1538.3,1057.9,1538.2,1057.7,1538,1057.6z"/>
<path d="M1304.6,1024.2c1.6,1.4,2.8,2.9,3.9,4.5c1.5,2.2,3.6,4,3.9,6.9c1.4,10.3,7.4,17.5,15.8,23c0.2,0.1,0.4,0.2,0.6,0.4
	c0.3,0.3,0.8,0.5,0.5,1c-0.3,0.4-0.7,0.1-1-0.1c-3-1.9-6-4-8.5-6.6c-2.9-3.2-5.3-6.7-6.9-10.8c-1.4-3.7-4.6-5.7-7.6-7.9
	c-0.6-0.4-1.4-0.7-1.5-2c2.1,1.1,3.8,2.4,5.5,3.7c0.5,0.4,1,1.2,1.7,0.7c0.7-0.5,0.2-1.3,0-1.9c-1.4-3.2-3.6-5.9-5.7-8.7
	C1305.1,1025.8,1304.4,1025.4,1304.6,1024.2z"/>
<path d="M1674.2,1043.2c7.9-4.5,16-8.5,22.9-14.5c-1-0.8-2.2,0.4-2.5-0.6c-0.3-1.1,1-1.2,1.6-1.7c5-3.5,10.4-6.2,15.6-9.4
	c0.4-0.2,0.8-0.6,1.1-0.1c0.3,0.5-0.3,0.8-0.6,1c-2.8,1.7-5.7,3.3-8.5,5c-1.9,1.1-3.8,2.2-5.9,3.4c0.4,0.2,0.5,0.3,0.7,0.4
	c0.5,0,1.2-0.4,1.5,0.3c0.3,0.6-0.3,1-0.7,1.4c-3.4,2.7-6.8,5.4-10.6,7.6c-4.3,2.5-8.5,5.4-13.1,7.3
	C1675.3,1043.4,1674.9,1043.9,1674.2,1043.2z"/>
<path d="M1539.1,1065.4c-4.9,3.6-9,7.7-13.7,11.1c0.1-1.1,0.9-1.6,1.5-2.1c5.7-4.7,11.4-9.4,17.1-14.1c1.4-1.2,2.6-2.5,3.9-3.7
	c0.2-0.2,0.5-0.7,0.9-0.3c0.3,0.3,0.1,0.7-0.1,1c-0.2,0.2-0.4,0.5-0.6,0.7c-5.5,5.9-10.8,11.9-16.1,18.1c-0.3,0.3-0.6,0.6-0.9,0.4
	c-0.5-0.4,0-0.8,0.3-1.1c2.3-2.7,4.6-5.4,6.9-8C1538.6,1066.9,1539.2,1066.5,1539.1,1065.4z"/>
<path d="M1539.4,1076.4c3.8-4.6,8-8.5,12.2-12.8c-1.3-0.1-1.7,0.4-2.1,0.8c-4.5,4.1-9.3,7.8-14,11.8c-0.4,0.3-0.8,0.6-1.1,0.2
	c-0.4-0.4,0.2-0.8,0.5-1c3.3-2.7,6.6-5.3,9.8-8c3.2-2.6,6.1-5.4,9.7-7.5c0.4-0.2,0.8-0.6,1.3-0.5
	C1555.7,1060.9,1541.3,1076.2,1539.4,1076.4z"/>
<path d="M1394.5,999.9c0.9,0,1.6,0.6,2.3,0.9c2.4,1.1,4.7,2.2,7.1,3.3c0.7,0.3,1.5,0.6,1.9,1.1c3.1,3.3,7.2,4.1,11.3,5
	c0.2,0,0.5,0.1,0.7,0.2c0.4,0.2,0.9,0.4,0.7,0.9c-0.2,0.6-0.7,0.3-1.1,0.2c-2.1-0.6-4.3-1.3-6.4-2c-0.5-0.1-1-0.6-1.3,0
	c-0.3,0.4,0.3,0.7,0.5,1.1c2.4,3.4,5.1,6.5,8.8,8.4c0.4,0.2,0.9,0.6,0.6,1c-0.4,0.7-0.8,0-1.2-0.2c-4.6-2.6-7.8-6.7-10.7-10.9
	c-1.1-1.6-2.4-2.8-4.1-3.6c-2.7-1.3-5.3-2.7-8-4C1395.2,1000.9,1394.5,1000.9,1394.5,999.9z"/>
<path d="M1655.3,962.9c2,0.7,2,0.8,0.6,2.3c-0.6,0.6-1.9,0.9-1.4,1.9c0.4,0.7,1.4-0.3,2.2-0.2c0.7,0,1.7-0.7,2.1,0
	c0.4,0.8,0.5,1.8,1.1,2.5c0.1,0.2-0.2,0.4-0.5,0.4c-0.8-0.1-2.1,0.5-2.4-0.3c-0.7-1.7-1.8-1.1-2.9-0.9c-0.5,0.1-1.1,0.4-1.6-0.2
	c-0.5-0.7,0-1.1,0.3-1.7c0.3-0.4,0.8-0.8,0.3-1.3c-0.4-0.4-0.8,0.1-1.2,0.3c-0.3,0.2-0.7,0.3-1,0.5c-0.4,0.2-0.9,0.2-1.1-0.3
	c-0.2-0.4,0.1-0.7,0.3-1c0.5-0.6,1.4-0.8,1.7-1.6c-0.7-0.7-1.2,0.1-1.8,0.2c-0.2,0-0.6,0-0.7-0.1c-0.3-0.3,0-0.6,0.2-0.8
	c2.1-1.2,4.4-1.5,6.7-2.2c0.2-0.1,0.5,0.1,0.6,0.3c0.2,0.3,0,0.6-0.3,0.8C1656.3,961.9,1655.6,962.1,1655.3,962.9z"/>
<path d="M1282.9,1049.1c2.2,0.6,4.4,1.3,6.6,1.5c0.6,0.1,1.3,0.7,1.6-0.1c0.2-0.7-0.7-0.9-1.2-1.2c-2.1-1.5-4.3-3-6.4-4.5
	c-0.4-0.3-1.1-0.5-0.8-1.5c1.5,1,2.8,2,4.2,2.8c3.3,2,6.1,5.1,9.8,6.3c4.5,1.5,8,4.4,11.2,7.8c0.4,0.4,0.9,0.8,0.8,1.6
	c-0.5,0.4-0.8-0.1-1.1-0.4c-5.2-6.8-12.6-9.1-20.6-10.4C1285.5,1050.8,1283.8,1050.7,1282.9,1049.1z"/>
<path d="M1474.5,940.9c-2,0.1-3.7-0.8-5.6-1.3c-0.3-0.1-0.7-0.3-0.6-0.8c0.1-0.3,0.5-0.3,0.8-0.2c0.4,0,0.8,0.1,1.1,0.2
	c4.1,1.9,7.9,0.7,11.6-1.1c2.5-1.3,5.2-2,8-2c1.7,0,3.3,0,4.9-0.6c0.5-0.2,1.5-0.6,1.7,0.3c0.2,0.8-0.8,0.8-1.4,0.9
	c-2.3,0.5-4.6,0.8-7,0.7c-1.7,0-3.3,0.4-4.8,1.2C1480.5,939.6,1477.6,940.7,1474.5,940.9z"/>
<path d="M1384.6,986.4c3.3,2,6.6,3.4,10.1,4.5c1.5,0.5,3,0.7,4.6,0.6c3.9-0.1,7.7,0.2,11.4,1.5c0.8,0.3,1.5,0.6,2.2,1
	c0.3,0.2,0.7,0.4,0.4,0.9c-0.2,0.3-0.5,0.2-0.8,0.1c-4.2-2.2-8.9-2-13.4-2.2c-4.8-0.2-9.1-2.1-13.2-4.5
	C1385.3,987.9,1384.5,987.6,1384.6,986.4z"/>
<path d="M1718.2,981.2c-1.7-0.4-2.7-1.4-3.7-2.2c-2.9-2.5-5.9-4.7-9.7-5.5c-1.7-0.4-3.3-1.3-4.9-2.7c2.3-0.3,3.6,1.7,6.1,1.6
	c-2.6-2.4-4.8-4.4-7.3-6.7C1700,965.8,1717.2,979.6,1718.2,981.2z"/>
<path d="M1236.7,1040.7c1.2-0.2,1.9,0.8,2.8,1.2c1.5,0.7,2.9,1.5,4.3,2.2c0.5,0.3,1.2,0.9,1.6,0.2c0.4-0.5-0.4-0.9-0.8-1.3
	c-1.2-1.1-2.3-2.2-3.5-3.3c-0.3-0.3-0.8-0.6-0.6-1.2c0.8-0.3,1,0.3,1.4,0.7c1.9,1.6,3.6,3.4,5.6,4.9c1.6,1.3,3.1,2.7,5.4,2.7
	c0.5,0,1.1,0.2,1,0.9c-0.1,0.6-0.6,0.4-1.1,0.4c-5.7-0.9-10.7-3.5-15.6-6.4c-0.2-0.1-0.4-0.3-0.5-0.5
	C1236.7,1041.1,1236.7,1040.9,1236.7,1040.7z"/>
<path d="M1723.6,1076.4c3.6-2.4,6.8-4.6,10-6.5c6.2-3.8,12.6-7.1,18.7-11.1c0.3-0.2,0.8-0.7,1.1-0.2c0.4,0.6-0.4,0.8-0.7,1
	c-5,3.1-10.1,6.1-15.2,9c-4,2.3-7.9,4.9-11.8,7.5C1725.2,1076.5,1724.8,1076.5,1723.6,1076.4z"/>
<path d="M1283.8,964.7c0.6,0.1,0.9,0.4,1.1,0.8c1.9,3.9,5.6,5.6,9.3,7.2c0.1,0,0.2,0.1,0.3,0.1c0.4,0.3,1.3,0.4,0.9,1.1
	c-0.3,0.5-0.9,0.1-1.3-0.1c-1.2-0.6-2.3-1.1-3.5-1.7c-0.3-0.2-0.7-0.4-1-0.1c-0.3,0.3,0,0.7,0.2,1c1.1,1.5,2.4,2.7,4.1,3.5
	c1.4,0.7,2.7,1.6,4,2.4c0.4,0.2,0.9,0.4,0.6,0.9c-0.2,0.3-0.8,0.3-1,0.1c-3.3-2.5-7.7-3.7-9.3-8.2c-0.8-2.4-2.8-4.1-4.2-6.1
	C1283.7,965.5,1283.3,965.1,1283.8,964.7z"/>
<path d="M1522.7,1009.9c0,1-0.8,1.5-1.4,2.1c-5.7,6.1-12.3,11.4-17.9,17.6c-0.5,0.6-1,1.2-1.6,1.8c-0.3,0.4-0.7,1.1-1.3,0.6
	c-0.5-0.5,0.1-0.9,0.5-1.2c3.7-3.5,7.1-7.3,10.8-10.8c3.2-2.9,6.2-6.1,9.3-9.1C1521.6,1010.4,1521.8,1009.7,1522.7,1009.9z"/>
<path d="M1284.6,1004c-0.2,0.6-0.5,0.7-0.8,0.4c-3.3-3.7-8.2-5-12.1-7.8c-0.4-0.3-1.3-0.5-1-1.1c0.5-0.7,1.1,0,1.5,0.3
	c1.3,1.2,2.9,1.7,4.4,2.4c0.3,0.2,0.7,0.4,1,0c0.3-0.3,0-0.7-0.1-1c-0.9-1.4-2-2.6-3.3-3.7c-0.4-0.3-1-0.6-0.5-1.2
	c0.4-0.4,0.8,0.1,1.1,0.3c1.3,1,2.4,2.2,3.2,3.6c1.4,2.3,2.7,4.6,5.1,6C1283.8,1002.6,1284.3,1003.2,1284.6,1004z"/>
<path d="M1754.6,1076.3c0.7-1.3,2.4-1.6,3.2-3.3c-2.9,0.8-4.7,3.3-7.6,3.4c1-1.2,2.4-1.7,3.6-2.4c4-2.3,7.9-4.7,11.5-7.4
	c0.4-0.3,0.8-0.9,1.2-0.3c0.4,0.5-0.3,0.8-0.7,1.1c-3.2,2.9-6.4,5.7-9.5,8.6C1755.9,1076.5,1755.4,1076.6,1754.6,1076.3z"/>
<path d="M1475.6,927.4c-0.9-0.6-1.4,0.3-2.1-0.1c-0.3-0.7,0.3-0.9,0.7-1c3.8-1.4,6.3-4.3,9-7c0.4-0.4,0.7-1.2,1.3-0.6
	c0.6,0.6-0.2,1-0.6,1.3c-1.8,1.6-3.4,3.5-4.8,5.4c-2.2,2.9-5.2,4.8-8,7c-0.4,0.3-0.9,0.7-1.3,0.2c-0.3-0.6,0.3-0.8,0.7-1.1
	C1472.4,930.1,1474.1,929,1475.6,927.4z"/>
<path d="M1557,1076.9c0.2-1.4,0.8-1.7,1.2-2.1c3.4-3,6.8-6,10.2-9c0.3-0.3,0.6-0.8,1.1-0.4c0.4,0.4,0,0.8-0.2,1.1
	c-1.9,3.7-4.9,6.5-7.4,9.7c-0.2,0.3-0.7,0.2-1.1-0.1c1.2-2.3,3.6-3.8,4.7-6.3C1562.7,1072,1560.3,1074.6,1557,1076.9z"/>
<path d="M1772.9,1068.8c-3.3,2.8-6.6,5.6-10.4,7.7c0.2-1.3,1.8-1.5,2.2-3c-2.5,0.8-4.3,2.6-6.7,3.1c-0.1-0.2-0.2-0.4-0.3-0.6
	c5-2.6,9.9-5.2,14.9-7.8C1772.7,1068.4,1772.8,1068.6,1772.9,1068.8z"/>
<path d="M1733.6,1076.3c0.1-0.6,0.6-0.8,1-1c7.1-4.8,14.6-8.9,21.8-13.6c0.3-0.2,0.7-0.6,1-0.2c0.4,0.5-0.2,0.8-0.5,1
	c-2,1.3-4,2.5-6,3.7c-5.3,3.2-10.7,6.3-15.7,9.9C1734.6,1076.6,1734.1,1076.6,1733.6,1076.3z"/>
<path d="M1653.4,1065.9c7.7-4.6,16.2-6.7,24.6-9.6c0,1.1-0.7,1.2-1.2,1.4c-7.6,2.5-15.2,4.8-22.5,8.2
	C1654,1066,1653.7,1065.9,1653.4,1065.9z"/>
<path d="M1685.4,968.4c1.4-0.4,2.3,0.5,3.3,0.7c3,0.7,5.6,2,7.4,4.8c1.2,1.8,3,3.2,4.5,4.7c0.3,0.3,0.9,0.7,0.5,1.2
	c-0.5,0.6-0.9-0.1-1.2-0.4c-2-2.1-4.3-3.7-5.9-6.2c-1.1-1.7-3-2.2-4.7-2.7C1687.9,970.2,1686.5,969.8,1685.4,968.4z"/>
<path d="M1506.3,1023c5-6.4,11.1-11.8,17.2-17.5C1523.3,1006.8,1508.5,1021.9,1506.3,1023z"/>
<path d="M1344,977.3c-0.3,0-0.6,0.1-0.8,0c-2.7-2-5.7-3.5-8.1-5.9c-0.4-0.4-1.1-0.8-0.7-1.3c0.5-0.6,0.9,0.2,1.3,0.5
	c0.4,0.4,0.9,1.2,1.5,0.7c0.6-0.5-0.1-1.1-0.2-1.7c-0.3-0.9-0.6-1.9-0.9-2.8c-0.1-0.4-0.3-0.8,0.2-1c0.5-0.2,0.6,0.3,0.7,0.6
	c0.6,1.5,1.3,3.1,1.9,4.7c0.6,1.8,1.7,3.3,3.4,4.2C1342.9,975.8,1343.7,976.2,1344,977.3z"/>
<path d="M1762.3,1063.5c-5.6,5.5-12.7,8.9-19.3,12.8C1749.2,1071.6,1756.1,1068.1,1762.3,1063.5z"/>
<path d="M1543.7,1076.3c0-0.7,0.6-0.9,1-1.3c5.3-4.4,10.5-8.9,15.6-13.6c0.4-0.3,0.8-1.1,1.3-0.6c0.6,0.6-0.3,0.9-0.7,1.3
	c-5.3,4.7-10.7,9.4-16.1,14.1C1544.6,1076.6,1544.2,1076.6,1543.7,1076.3z"/>
<path d="M1293.9,994.5c0,0.6-0.4,0.7-0.7,0.5c-5.3-2.8-11.1-5.1-14.8-10.2c-0.3-0.4-0.8-0.9-0.3-1.3c0.5-0.4,0.7,0.3,0.9,0.6
	c2.7,3.2,6,5.7,9.8,7.5c1.4,0.7,2.7,1.4,4.1,2.1C1293.4,993.8,1293.8,994,1293.9,994.5z"/>
<path d="M1565.1,1063.4c0.2,0.9-0.5,1.2-0.9,1.7c-3.3,3.9-7.1,7.4-10.7,11.1c-0.3,0.3-0.6,0.6-0.9,0.3c-0.4-0.3,0-0.7,0.2-0.9
	c1.2-1.2,2.4-2.4,3.5-3.5c2.5-2.5,5-5,7.3-7.7C1564,1063.9,1564.3,1063.3,1565.1,1063.4z"/>
<path d="M1225.2,1003.2c-0.5-0.1-0.9-0.1-1.5-0.2c0.1,1.5,1.7,2.3,1.8,4.1c-1.8-1-2.7-2.4-3.3-3.9c-0.7-1.6-1-3.4-1.5-5.2
	c-0.1-0.3-0.2-0.6,0.2-0.8c0.4-0.2,0.6,0.1,0.7,0.4c0.8,2.1,1.8,4,3.9,5.2C1225.4,1002.9,1225.3,1003.1,1225.2,1003.2z"/>
<path d="M1245.9,1052c-0.1,0.5-0.5,0.5-0.9,0.4c-4.2-1.1-7.7-3.4-10.9-6.1c-0.2-0.2-0.5-0.5-0.2-0.8c0.4-0.5,0.8,0,1.1,0.2
	c2.5,2.2,5.4,3.7,8.4,5c0.6,0.2,1.2,0.3,1.8,0.5C1245.5,1051.5,1245.8,1051.6,1245.9,1052z"/>
<path d="M1768.3,1076.2c2.7-2,5.6-3.6,8-5.7c0.2-0.2,0.5-0.5,0.8-0.1c0.3,0.4-0.1,0.7-0.3,0.9c-1.9,1.5-4,3-6,4.3
	C1770,1076.1,1769.5,1076.8,1768.3,1076.2z"/>
<path d="M1693.7,977.2c-0.3,0.4-0.3,0.7-0.5,0.7c-0.2,0-0.5,0-0.7-0.2c-1.6-1.5-3.7-2.2-5.5-3.4c-0.3-0.2-0.8-0.4-0.6-0.8
	c0.3-0.6,0.7-0.2,1.1,0c1.7,0.9,3.5,1.8,5,3C1693,976.8,1693.4,977,1693.7,977.2z"/>
<path d="M1271.5,1007.3c-1.8-1.3-3.2-3-4.6-4.6c-0.2-0.2-0.3-0.6,0-0.8c0.2-0.2,0.5-0.1,0.6,0.1c1.5,1.6,3,3.3,4.5,4.9
	C1271.8,1006.9,1271.7,1007.1,1271.5,1007.3z"/>
<path d="M1261.9,1005.6c0.2,0.2,0.4,0.4,0.6,0.6c0.7,1.7,1.5,3.4,2.2,5.1c0.1,0.3,0.2,0.6-0.1,0.8c-0.3,0.2-0.6-0.1-0.7-0.4
	c-0.8-1.7-1.5-3.5-2.3-5.3C1261.4,1006.1,1261.2,1005.8,1261.9,1005.6z"/>
<path d="M1572.2,1071.5c0.3,0.8-0.4,1.1-0.8,1.5c-1,1.1-2.1,2.1-3.1,3.2c-0.4,0.4-0.7,0.4-1.1,0.2c-0.3-0.1-0.1-0.4,0-0.6
	C1567.5,1075.2,1571.4,1071.9,1572.2,1071.5z"/>
<path d="M1216.5,1002.7c0.5,2.1,1.4,4,3.3,5.1c0.2,0.1,0.3,0.4,0.1,0.6c-0.2,0.2-0.4,0.2-0.7,0.1
	C1217.2,1007.7,1215.8,1005,1216.5,1002.7z"/>
<path d="M1223.9,991.1c1.3,0.9,2.6,1.7,4,2.2c0.2,0.1,0.3,0.4,0.1,0.6c-0.2,0.1-0.5,0.2-0.7,0.1c-1.4-0.5-2.6-1.1-3.7-2.1
	c-0.2-0.1-0.2-0.4-0.2-0.6C1223.4,991.3,1223.7,991.3,1223.9,991.1z"/>
<path d="M1775.6,1076.3c0.9-1.3,2.2-2,3.4-2.9c0.2-0.1,0.5-0.2,0.6,0c0.1,0.1,0.1,0.4,0,0.5
	C1778.3,1074.8,1777.3,1076.2,1775.6,1076.3z"/>
<path d="M1779.4,704.8c-0.1,0.8-0.7,1-1.2,1.4c-4.1,3.1-8.2,6-12.2,9.2c-8.8,7-17.7,13.8-27,20.1c-0.1,0-0.1,0.1-0.2,0.1
	c-0.5,0.3-1.1,1.2-1.5,0.6c-0.5-0.8,0.6-1,1.1-1.4c1.2-0.9,2.5-1.7,3.6-2.6c8.9-6.6,17.9-13.1,26.5-20.1c3.1-2.6,6.5-4.8,9.7-7.2
	C1778.6,704.6,1779,704,1779.4,704.8z"/>
<path d="M1760.6,710.4c-0.2,1-1,1.5-1.8,2c-6.7,4.2-12.5,9.7-18.9,14.2c-0.1,0.1-0.2,0.2-0.3,0.2c-0.4,0.3-0.9,0.8-1.2,0.1
	c-0.3-0.6,0.3-0.8,0.7-1.1c0.8-0.5,1.7-1,2.5-1.7c5.7-4.7,11.6-9.2,17.6-13.4C1759.6,710.6,1759.9,710,1760.6,710.4z"/>
<path d="M1774.1,717.8c0.4,0.1,0.6,0.3,0.4,0.6c-0.1,0.3-0.4,0.5-0.6,0.7c-5.8,4.1-11.7,8.2-17.5,12.3c-0.3,0.2-0.8,0.7-1.1,0.3
	c-0.4-0.5,0.1-0.8,0.5-1c6-4.2,11.9-8.5,17.9-12.7C1773.7,717.9,1773.9,717.9,1774.1,717.8z"/>
<path d="M1352.4,787.4c0.1,0.9-0.5,1-0.9,1.4c-9.5,6.9-18.9,13.8-28.4,20.8c-0.3,0.2-0.6,0.5-0.9,0.6c-0.4,0.2-0.8,0.5-1.1,0
	c-0.2-0.4,0.2-0.7,0.5-0.9c2.5-1.8,4.9-3.5,7.4-5.3c7.2-5.2,14.4-10.4,21.6-15.6C1351.1,787.9,1351.5,787.4,1352.4,787.4z"/>
<path d="M1324.2,802.2c-0.3-0.1-0.6-0.2-0.6-0.5c0-0.4,0.3-0.7,0.6-0.9c1.7-1.2,3.4-2.3,5-3.5c4.1-2.9,8.2-5.8,12.3-8.8
	c0.3-0.2,0.6-0.5,0.9-0.6c0.3-0.2,0.7-0.5,1-0.1c0.4,0.5-0.2,0.7-0.5,1c-0.9,0.7-1.7,1.4-2.6,2.1c-5,3.6-10,7.1-15,10.7
	C1324.9,801.9,1324.5,802.1,1324.2,802.2z"/>
<path d="M1339.1,804.2c-0.4,0-0.7-0.1-0.8-0.3c-0.2-0.5,0.2-0.7,0.5-0.9c4.4-3,8.8-6,13.3-8.9c0.6-0.4,1.6-1.7,2.1-1
	c0.6,0.9-0.9,1.4-1.6,1.8c-4.3,2.7-8.1,6.2-12.5,8.7C1339.7,803.8,1339.3,804,1339.1,804.2z"/>
<path d="M1725.8,649c1.6,0,2.9,1.4,2.9,3c0,1.6-1.6,3.3-3.2,3.3c-1.5,0-3.6-2.1-3.5-3.5C1722.1,650.1,1723.7,648.9,1725.8,649z
	 M1725.7,650.3c-1.1,0.1-2,0.5-2.1,1.7c-0.1,1.1,0.7,1.9,1.8,1.9c1.2,0,1.9-0.8,1.9-2C1727.4,650.9,1726.8,650.4,1725.7,650.3z"/>
<path d="M1714,657.6c-0.1,1.4-1.5,2.8-3,2.7c-1.5-0.1-3-1.6-2.9-3.1c0.1-1.4,1.3-2.6,2.7-2.6C1712.5,654.6,1714.1,656.2,1714,657.6z
	 M1712.7,657.6c-0.1-1-0.8-1.5-1.7-1.6c-0.9-0.1-1.4,0.6-1.4,1.4c-0.1,0.9,0.5,1.6,1.4,1.6C1711.9,659.1,1712.5,658.6,1712.7,657.6z
	"/>
<path d="M1685.3,663.9c1.3,0,2.9,1.5,2.8,2.7c-0.1,1.2-1.8,2.6-3.2,2.6c-1.1,0-2.5-1.5-2.5-2.8
	C1682.3,665.2,1683.8,663.9,1685.3,663.9z M1683.8,666.5c0,0.9,0.5,1.3,1.3,1.3c0.9,0,1.5-0.5,1.5-1.3c0.1-0.8-0.6-1.4-1.4-1.4
	C1684.4,665.1,1684,665.8,1683.8,666.5z"/>
<path d="M1695.4,662.2c0-1.6,1-2.7,2.5-2.7c1.3,0,2.9,1.6,2.9,2.9c0,1.2-1.6,2.7-2.9,2.7C1696.5,665.1,1695.4,663.8,1695.4,662.2z
	 M1698,660.8c-0.8,0.2-1.4,0.7-1.4,1.5c0,0.8,0.6,1.4,1.4,1.3c0.8-0.1,1.4-0.6,1.4-1.4C1699.5,661.4,1698.8,660.9,1698,660.8z"/>
<path d="M1281.7,740.9c0,0.6-0.3,1.1-0.9,1.2c-0.6,0.1-0.8-0.4-0.9-0.9c0-0.6,0.2-1.2,0.8-1.2
	C1281.4,739.9,1281.7,740.3,1281.7,740.9z"/>
<path d="M1295.5,736.8c-0.1,0.5-0.3,1-0.9,1c-0.5,0-0.8-0.4-0.8-0.8c0-0.6,0.2-1.1,0.9-1.1C1295.3,736,1295.5,736.4,1295.5,736.8z"
	/>
<path d="M1288.5,739.3c-0.1,0.5-0.4,0.8-0.9,0.8c-0.7-0.1-0.9-0.6-0.8-1.2c0-0.4,0.3-0.9,0.8-0.8
	C1288.2,738.3,1288.5,738.8,1288.5,739.3z"/>
<g>
	<path d="M1735.8,648.1l-0.5-1.4c131.5-49.1,226.5-118.3,282.3-205.6l1.3,0.8C1962.8,529.5,1867.6,598.9,1735.8,648.1z"/>
</g>
<g>
	<path d="M1548.6,681.9c-61.9,0-139.1-5.1-228.2-15.2c-168.8-19.2-368.6-55-562.7-100.9c-213.2-50.4-407-109.8-560.6-171.7
		c-177.8-71.7-296.1-144-351.6-214.9l1.2-0.9c28.4,36.3,74.3,73.6,136.3,110.8c57.7,34.6,129.9,69.5,214.6,103.7
		C351.2,454.6,545,514,758.1,564.4c194,45.9,393.8,81.7,562.5,100.8c171.1,19.4,297.9,20.3,357.3,2.3l0.4,1.4
		C1649.8,677.6,1605.7,681.9,1548.6,681.9z"/>
</g>
<g>
	<path d="M1126.2,752.7c-27.9,0-58.5-0.7-91.2-2c-120.6-5-262.9-19.1-400.8-39.6c-164-24.5-317.7-56.8-456.8-96.2
		c-162.3-46-298.7-100.1-405.2-160.8l0.7-1.3c106.5,60.6,242.7,114.7,404.9,160.6c139,39.4,292.6,71.7,456.6,96.2
		c235.4,35.1,538.2,56.1,637.6,30.6l0.4,1.5C1244,748.9,1192.7,752.7,1126.2,752.7z"/>
</g>
<g>
	<path d="M1302.7,736.4l-0.2-1.5c127.9-19.8,273.9-70.3,400.7-138.6c131.8-71,227.9-152.3,270.5-228.8l1.3,0.7
		c-42.8,76.8-139,158.3-271.1,229.4C1577,666,1430.8,716.6,1302.7,736.4z"/>
</g>
</svg>
