<svg xmlns="http://www.w3.org/2000/svg" width="1440" height="318" viewBox="0 0 1440 318" fill="none"><path d="M759.358 140.898L760.93 139.119C757.685 132.488 750.094 128.93 745.287 130.314C740.47 131.697 734.081 140.898 732.879 144.565C731.677 148.221 734.358 151.097 734.358 151.097L733.249 154.161C733.249 154.161 723.338 145.454 721.026 142.084C718.715 138.714 712.881 130.413 710.662 126.746C708.443 123.08 701.869 115.065 701.869 115.065L1432.14 3.9531L1440 0L699.743 113.286C699.743 113.286 694.279 109.323 691.228 107.05C688.177 104.777 686.966 106.259 686.966 106.259C685.579 105.469 685.394 107.643 685.394 107.643L683.637 106.753C681.88 105.864 680.216 107.149 677.618 109.125C675.029 111.102 677.896 111.794 677.896 111.794C677.063 113.375 679.098 114.165 679.098 114.165C678.774 115.618 679.625 115.668 679.865 115.658H679.93C679.93 115.658 679.902 115.658 679.865 115.658L0 188.266V190.638L682.148 117.723C682.703 118.909 685.015 118.613 685.015 118.613C686.217 120.49 687.049 129.395 687.603 137.607C688.158 145.82 687.696 160.17 687.511 163.342C687.326 166.504 688.251 170.566 689.083 172.147C689.915 173.729 689.73 176.209 688.158 177.593C686.586 178.976 688.066 184.619 688.066 184.619C686.771 184.521 685.468 186.003 684.543 187.09C683.619 188.187 683.804 190.164 683.804 192.338C683.804 194.512 685.375 194.809 685.375 194.809C684.358 197.981 679.726 203.614 679.726 203.614C674.909 205.699 661.762 208.763 655.096 208.763C648.43 208.763 644.722 213.615 637.317 218.468C629.911 223.32 615.747 227.669 615.747 227.669C615.747 227.669 615.007 226.671 613.99 225.583C612.973 224.496 611.586 225.089 611.586 225.089L611.494 224.398C609.09 223.212 607.509 225.88 604.828 225.297C602.146 224.704 597.422 221.532 595.009 218.073C592.605 214.614 589.915 215.404 589.915 215.404C587.233 216.096 587.973 220.553 589.822 225.208C591.671 229.853 601.388 242.226 605.651 245.981C609.913 249.747 612.409 246.377 613.334 243.214C614.258 240.052 615.932 238.965 616.107 238.362C616.292 237.769 620.832 237.374 626.296 237.374C631.76 237.374 637.4 236.672 637.4 236.672C636.66 237.769 637.862 246.476 639.526 253.206C641.191 259.926 645.36 272.507 646.47 274.977C647.579 277.448 649.521 290.118 649.521 290.118L647.579 290.217C647.579 290.217 648.042 298.034 646.655 301.898C645.268 305.752 644.343 307.432 642.3 309.419C640.266 311.395 635.634 316.248 639.434 317.434C643.234 318.62 647.209 317.631 651.564 314.261C655.91 310.901 658.415 307.334 661.836 306.246C661.836 306.246 662.853 305.357 664.526 304.359C666.191 303.371 666.93 301.888 666.838 300.406C666.745 298.923 664.804 296.443 664.804 296.443C662.677 293.666 661.383 288.527 661.013 287.143C660.643 285.759 659.534 285.562 659.534 285.562C658.702 282.498 658.055 269.433 658.239 261.319C658.424 253.206 652.775 246.179 652.775 246.179C653.238 243.807 678.053 237.67 681.566 237.472L690.728 235.496C693.132 234.399 696.747 233.717 696.747 233.717C709.062 237.374 711.651 224.911 712.483 223.913C713.315 222.925 715.164 219.96 715.451 217.875C715.729 215.8 715.913 216.985 717.393 213.022C718.872 209.06 717.393 207.676 717.393 207.676L718.78 204.513C718.78 204.513 726.832 201.143 734.978 196.795C743.123 192.437 744.695 186.705 747.293 180.261C749.882 173.827 749.512 171.653 749.05 170.072C748.587 168.491 745.157 166.01 746.461 163.342C747.755 160.674 751.74 160.081 751.74 160.081C756.649 158.203 757.944 153.943 759.701 149.892C761.457 145.83 760.995 140.691 760.995 140.691L759.331 140.888L759.358 140.898ZM696.683 167.522L691.496 163.658L689.924 143.665C689.924 143.665 700.288 160.189 700.011 162.571C699.734 164.953 696.683 167.522 696.683 167.522ZM700.288 178.808C700.288 178.808 701.86 176.14 698.439 176.031C698.439 176.031 700.011 174.45 699.179 172.276C699.179 172.276 702.701 167.819 702.979 166.929L706.132 170.892C706.132 170.892 702.794 178.611 700.298 178.808H700.288ZM722.136 162.976C719.917 162.877 716.579 163.273 716.579 163.273C716.579 163.273 704.819 149.022 704.079 147.342C703.339 145.662 702.23 144.476 701.398 139.821C700.566 135.166 697.885 129.622 695.379 126.46C695.379 126.46 691.773 119.334 693.068 116.369L695.009 115.974C695.009 115.974 698.615 120.53 700.011 124.186C701.398 127.843 705.475 138.833 707.694 142.687C709.913 146.541 709.821 145.948 713.528 149.022C717.236 152.085 726.028 161.395 725.843 162.383C725.658 163.372 724.364 163.075 722.145 162.976H722.136Z" fill="black"></path></svg>