<?xml version="1.0" encoding="utf-8"?>
<!-- Generator: Adobe Illustrator 22.1.0, SVG Export Plug-In . SVG Version: 6.00 Build 0)  -->
<svg version="1.1" id="Layer_1" xmlns="http://www.w3.org/2000/svg" xmlns:xlink="http://www.w3.org/1999/xlink" x="0px" y="0px"
	 viewBox="0 0 1440 1068" style="enable-background:new 0 0 1440 1068;" xml:space="preserve">
<g>
	<path d="M0,288c0,140,0,780,0,780h1440V0c0,0-2,0-4.7,1.2c-60,22-121.9,35.1-185.8,38.8c-18.5,1.1-36.9,2.8-55.3,3.8
		c-44.7,2.4-88.2,10.4-130.3,25.8c-35.8,13.1-71,28.1-107.4,39c-81.2,24.3-163.1,46.7-244.7,69.6c-59,16.5-118.9,29.3-179.5,38.2
		c-30.7,4.5-61.5,7.8-92.6,6.5c-19.4-0.8-36.9-5.4-48.9-22.3c-0.6-0.8-1.4-1.5-2-2.2c-15.4-17.8-35.4-22.9-57.8-19.7
		c-13.3,1.9-26.5,4.7-39.8,7.3c-53.6,10.6-106.5,24.2-157.1,45.1C89.3,249.7,44.7,269,0,288z"/>
</g>
</svg>
